<?xml version="1.0" encoding="UTF-8" standalone="no"?>
<svg
   xmlns:dc="http://purl.org/dc/elements/1.1/"
   xmlns:cc="http://creativecommons.org/ns#"
   xmlns:rdf="http://www.w3.org/1999/02/22-rdf-syntax-ns#"
   xmlns:svg="http://www.w3.org/2000/svg"
   xmlns="http://www.w3.org/2000/svg"
   id="svg8"
   version="1.1"
   viewBox="0 0 190.64524 72.179604"
   height="72.179604mm"
   width="190.64523mm">
  <defs
     id="defs2" />
  <metadata
     id="metadata5">
    <rdf:RDF>
      <cc:Work
         rdf:about="">
        <dc:format>image/svg+xml</dc:format>
        <dc:type
           rdf:resource="http://purl.org/dc/dcmitype/StillImage" />
        <dc:title></dc:title>
      </cc:Work>
    </rdf:RDF>
  </metadata>
  <g
     transform="translate(96.748507,-88.95212)"
     id="layer1">
    <g
       transform="translate(-11.339286,-0.75595476)"
       id="g86">
      <path
         id="path98"
         d="m -20.180313,125.79156 c 8e-6,-19.35427 0.03149,-27.232882 0.06995,-17.50803 0.03847,9.72485 0.03846,25.56016 -1.3e-5,35.18958 -0.03847,9.62942 -0.06994,1.67272 -0.06994,-17.68155 z m -9.719609,30.64873 c 0.181901,-0.0734 0.479557,-0.0734 0.661458,0 0.181902,0.0734 0.03307,0.13346 -0.330729,0.13346 -0.363802,0 -0.51263,-0.0601 -0.330729,-0.13346 z m -3.306715,-3.92581 c 0.0029,-0.58208 0.05712,-0.78905 0.120407,-0.45994 0.06329,0.32912 0.06088,0.80537 -0.0053,1.05834 -0.06622,0.25296 -0.118004,-0.0163 -0.115067,-0.5984 z m -26.208893,0 c 0.0054,-0.43656 0.06469,-0.58313 0.131773,-0.32569 0.06708,0.25743 0.06267,0.61462 -0.0098,0.79375 -0.07248,0.17913 -0.127363,-0.0315 -0.121971,-0.46806 z m -7.519066,-1.91386 c 0.62231,-0.0559 1.57481,-0.0551 2.116667,0.002 0.541856,0.0568 0.03269,0.10258 -1.131473,0.10162 -1.164167,-0.001 -1.607504,-0.0475 -0.985194,-0.10337 z m 12.964583,0 c 0.62231,-0.0559 1.574811,-0.0551 2.116667,0.002 0.541856,0.0568 0.03269,0.10258 -1.131473,0.10162 -1.164166,-0.001 -1.607505,-0.0475 -0.985194,-0.10337 z m 13.229167,0 c 0.622311,-0.0559 1.574811,-0.0551 2.116667,0.002 0.541856,0.0568 0.03269,0.10258 -1.131472,0.10162 -1.164167,-0.001 -1.607506,-0.0475 -0.985195,-0.10337 z m -26.465327,-2.64316 c 0.472943,-0.0587 1.246849,-0.0587 1.719792,0 0.472942,0.0587 0.08599,0.10671 -0.859896,0.10671 -0.945886,0 -1.332839,-0.048 -0.859896,-0.10671 z m 12.958683,5.2e-4 c 0.469697,-0.0584 1.303134,-0.0594 1.852084,-0.002 0.548947,0.0573 0.16465,0.1051 -0.853996,0.10627 -1.018646,0.001 -1.467787,-0.0457 -0.998088,-0.10414 z m 13.235068,-5.2e-4 c 0.472942,-0.0587 1.246849,-0.0587 1.719791,0 0.472943,0.0587 0.08599,0.10671 -0.859895,0.10671 -0.945886,0 -1.332839,-0.048 -0.859896,-0.10671 z m 32.728557,-4.90809 c -0.071123,-0.18535 -0.094705,-2.95355 -0.052406,-6.15157 l 0.076909,-5.81457 0.060711,6.01113 0.060709,6.01112 3.241146,0.0832 3.2411459,0.0832 -3.2494485,0.0572 c -2.4304706,0.0428 -3.2820426,-0.0277 -3.3787664,-0.27978 z m 33.602085,0 c -0.07112,-0.18535 -0.09471,-2.95355 -0.05241,-6.15157 l 0.07691,-5.81457 0.06071,6.00478 0.06071,6.00477 1.25677,0.0991 1.256771,0.0991 -1.265073,0.0477 c -0.818047,0.0308 -1.31077,-0.0714 -1.394391,-0.28929 z m 5.239152,0.14748 c 0.400182,-0.0606 1.055026,-0.0606 1.455208,0 0.400183,0.0606 0.07276,0.11022 -0.727604,0.11022 -0.800365,0 -1.127786,-0.0496 -0.727604,-0.11022 z m 8.334375,0.003 c 0.327422,-0.0631 0.863203,-0.0631 1.190625,0 0.327422,0.0631 0.05953,0.11466 -0.595312,0.11466 -0.654844,0 -0.922735,-0.0516 -0.595313,-0.11466 z m 5.953125,-0.0103 c 1.273308,-0.0485 3.356902,-0.0485 4.630209,0 1.273307,0.0485 0.23151,0.0882 -2.315104,0.0882 -2.546615,0 -3.588412,-0.0397 -2.315105,-0.0882 z m -114.167712,-0.7934 c 1.055026,-0.0502 2.781432,-0.0502 3.836459,0 1.055026,0.0502 0.191822,0.0913 -1.91823,0.0913 -2.110052,0 -2.973255,-0.0411 -1.918229,-0.0913 z m 12.964584,0 c 1.055026,-0.0502 2.781432,-0.0502 3.836458,0 1.055026,0.0502 0.191823,0.0913 -1.918229,0.0913 -2.110052,0 -2.973255,-0.0411 -1.918229,-0.0913 z m 13.229167,0 c 1.055026,-0.0502 2.781432,-0.0502 3.836458,0 1.055027,0.0502 0.191823,0.0913 -1.918229,0.0913 -2.110052,0 -2.973255,-0.0411 -1.918229,-0.0913 z m 62.177085,-1.30168 c 0.181902,-0.0734 0.479558,-0.0734 0.661459,0 0.181901,0.0734 0.03307,0.13345 -0.330729,0.13345 -0.363802,0 -0.512631,-0.0601 -0.33073,-0.13345 z m 38.100002,0 c 0.181901,-0.0734 0.479557,-0.0734 0.661458,0 0.181901,0.0734 0.03307,0.13345 -0.330729,0.13345 -0.363802,0 -0.51263,-0.0601 -0.330729,-0.13345 z m 9.789583,0 c 0.181902,-0.0734 0.479558,-0.0734 0.661459,0 0.181901,0.0734 0.03307,0.13345 -0.330729,0.13345 -0.363802,0 -0.512631,-0.0601 -0.33073,-0.13345 z M 45.118983,139.5499 c 0.0021,-0.72761 0.05337,-0.99386 0.114187,-0.59168 0.06082,0.40219 0.05919,0.9975 -0.0036,1.32292 -0.0628,0.32542 -0.112559,-0.004 -0.110574,-0.73124 z m -29.514981,0.36404 c 0.179478,-0.18082 0.39297,-0.26211 0.474433,-0.18065 0.08146,0.0815 -0.06538,0.2294 -0.326319,0.32876 -0.377084,0.14359 -0.407474,0.1132 -0.148114,-0.14811 z m 55.939417,-0.23175 c 0,-0.3638 0.06006,-0.51263 0.133453,-0.33073 0.0734,0.1819 0.0734,0.47956 0,0.66146 -0.0734,0.1819 -0.133453,0.0331 -0.133453,-0.33073 z m -60.790126,-4.63021 c 2.64e-4,-2.18281 0.04135,-3.04057 0.09107,-1.90613 0.04972,1.13443 0.04941,2.92037 -7.94e-4,3.96875 -0.05009,1.04837 -0.09076,0.12019 -0.09039,-2.06262 z m 2.643658,-0.39687 c 0,-1.96454 0.04165,-2.76821 0.09256,-1.78594 0.05091,0.98226 0.05091,2.58961 0,3.57187 -0.05091,0.98227 -0.09256,0.1786 -0.09256,-1.78593 z m 31.752716,1.21844 c -0.07789,-0.20297 -0.09417,-0.82805 -0.03617,-1.38906 0.100889,-0.97593 0.107368,-0.96609 0.149924,0.22781 l 0.04448,1.24782 2.844271,0.0851 2.844271,0.085 -2.852573,0.0562 c -2.234679,0.044 -2.883252,-0.0238 -2.994195,-0.31286 z M 0.29497474,132.34 c -0.32910728,-0.41964 -0.31974896,-0.429 0.0998961,-0.0999 0.4407297,0.34564 0.58088744,0.56291 0.36312476,0.56291 -0.0549407,0 -0.26330011,-0.20836 -0.46302085,-0.46302 z M 18.79995,131.03478 c 0.190994,-0.0764 0.4192,-0.067 0.507119,0.0209 0.08792,0.0879 -0.06835,0.15045 -0.347266,0.13896 -0.308226,-0.0127 -0.370919,-0.0754 -0.159853,-0.15985 z m 38.100001,0 c 0.190995,-0.0764 0.4192,-0.067 0.507119,0.0209 0.08792,0.0879 -0.06835,0.15045 -0.347266,0.13896 -0.308226,-0.0127 -0.370919,-0.0754 -0.159853,-0.15985 z m 9.789584,0 c 0.190994,-0.0764 0.4192,-0.067 0.507119,0.0209 0.08792,0.0879 -0.06835,0.15045 -0.347266,0.13896 -0.308226,-0.0127 -0.370919,-0.0754 -0.159853,-0.15985 z M 8.7323312,123.88464 c 0.3291178,-0.0633 0.8053678,-0.0609 1.0583333,0.005 0.2529655,0.0662 -0.016325,0.118 -0.5983975,0.11507 -0.5820834,-0.003 -0.7890537,-0.0571 -0.4599358,-0.12041 z m 11.3770838,0 c 0.329118,-0.0633 0.805368,-0.0609 1.058333,0.005 0.252966,0.0662 -0.01632,0.118 -0.598397,0.11507 -0.582084,-0.003 -0.789054,-0.0571 -0.459936,-0.12041 z m 6.537733,-6.09657 0.0076,-6.01942 2.977054,-0.0136 2.977052,-0.0136 -2.905961,0.0884 -2.905964,0.0884 -0.07871,5.94465 -0.07871,5.94466 0.0076,-6.01942 z m 21.960417,0 0.0076,-6.01942 2.580301,-0.0152 2.580305,-0.0152 -2.509214,0.0908 -2.509215,0.0908 -0.07871,5.94376 -0.07871,5.94375 0.0076,-6.01942 z m 20.043135,1.33485 -0.05947,-4.81655 -1.785937,-0.0782 -1.785938,-0.0782 v -1.19063 -1.19062 l 5.027084,-0.009 5.027083,-0.009 -4.960937,0.0812 -4.960938,0.0812 v 1.05249 1.0525 h 1.728094 c 1.163598,0 1.770719,0.11107 1.858577,0.34002 0.07176,0.18702 0.09479,2.41944 0.05117,4.96094 l -0.07931,4.62091 z m -63.9814879,3.03062 -0.5040286,-0.59531 0.5953125,0.50403 c 0.3274219,0.27721 0.5953125,0.54511 0.5953125,0.59531 0,0.21174 -0.212934,0.0554 -0.6865964,-0.50403 z m -50.8653801,-0.99218 c 0,-0.36381 0.06005,-0.51263 0.133453,-0.33073 0.0734,0.1819 0.0734,0.47955 0,0.66146 -0.0734,0.1819 -0.133453,0.0331 -0.133453,-0.33073 z m 55.0627408,0.34581 c 0.2574317,-0.0671 0.6146192,-0.0627 0.79375,0.01 0.1791309,0.0725 -0.031493,0.12736 -0.4680558,0.12197 -0.4365625,-0.005 -0.5831258,-0.0647 -0.3256942,-0.13177 z m 11.3770842,0 c 0.257431,-0.0671 0.614619,-0.0627 0.79375,0.01 0.17913,0.0725 -0.03149,0.12736 -0.468056,0.12197 -0.436563,-0.005 -0.583126,-0.0647 -0.325694,-0.13177 z m -81.521074,-0.6104 c 0,-0.3638 0.06005,-0.51263 0.133452,-0.33073 0.0734,0.1819 0.0734,0.47956 0,0.66146 -0.0734,0.1819 -0.133452,0.0331 -0.133452,-0.33073 z m 58.2988502,0.26459 -2.6458334,-0.16211 2.5640719,-0.0512 c 1.4820609,-0.0296 2.63307783,0.0604 2.72759494,0.21335 0.0899372,0.14552 0.12673013,0.24152 0.0817615,0.21334 -0.0449686,-0.0282 -1.27238654,-0.12419 -2.72759494,-0.21334 z m 43.5996338,-0.92605 c 0.0021,-0.7276 0.05337,-0.99385 0.114186,-0.59167 0.06082,0.40218 0.05919,0.9975 -0.0036,1.32292 -0.0628,0.32542 -0.112559,-0.004 -0.110574,-0.73125 z m 43.65264,-2.51354 c 0,-0.65484 0.0516,-0.92273 0.114662,-0.59531 0.06307,0.32742 0.06307,0.8632 0,1.19063 -0.06306,0.32742 -0.114662,0.0595 -0.114662,-0.59532 z m 10.562852,0.13229 c 0.0054,-0.43656 0.06469,-0.58312 0.131773,-0.32569 0.06708,0.25743 0.06267,0.61462 -0.0098,0.79375 -0.07248,0.17913 -0.127363,-0.0315 -0.12197,-0.46806 z M 5.6412807,117.30285 c 0.0127,-0.30823 0.07539,-0.37092 0.1598507,-0.15985 0.07643,0.19099 0.067032,0.4192 -0.020876,0.50712 -0.087918,0.0879 -0.1504526,-0.0684 -0.1389644,-0.34727 z m 34.9761743,-1.96233 c 0,-0.65484 0.0516,-0.92273 0.114662,-0.59531 0.06307,0.32742 0.06307,0.8632 0,1.19063 -0.06306,0.32742 -0.114662,0.0595 -0.114662,-0.59532 z m 31.605893,-1.24929 c 0.469696,-0.0584 1.303134,-0.0594 1.852084,-0.002 0.548946,0.0573 0.16465,0.1051 -0.853996,0.10627 -1.018646,0.001 -1.467787,-0.0457 -0.998088,-0.10414 z M -56.061277,111.7025 c -0.329108,-0.41964 -0.319749,-0.429 0.0999,-0.0999 0.254661,0.19972 0.463021,0.40808 0.463021,0.46302 0,0.21776 -0.217273,0.0776 -0.562917,-0.36313 z m 96.408233,0.001 c 1.273307,-0.0485 3.356901,-0.0485 4.630208,0 1.273307,0.0485 0.23151,0.0882 -2.315104,0.0882 -2.546615,0 -3.588412,-0.0397 -2.315104,-0.0882 z m 21.43125,0.007 c 0.400183,-0.0606 1.055026,-0.0606 1.455209,0 0.400182,0.0606 0.07276,0.11022 -0.727604,0.11022 -0.800365,0 -1.127787,-0.0496 -0.727605,-0.11022 z m 16.404168,-0.007 c 1.273307,-0.0485 3.356901,-0.0485 4.630208,0 1.273307,0.0485 0.23151,0.0882 -2.315104,0.0882 -2.546615,0 -3.588412,-0.0397 -2.315104,-0.0882 z m 9.657292,0.002 c 0.763984,-0.0534 2.01414,-0.0534 2.778125,0 0.763984,0.0534 0.138906,0.0972 -1.389063,0.0972 -1.527969,0 -2.153047,-0.0437 -1.389062,-0.0972 z m -146.196863,-5.75804 c 0.0054,-0.43657 0.06469,-0.58313 0.131774,-0.3257 0.06708,0.25743 0.06267,0.61462 -0.0098,0.79375 -0.07249,0.17913 -0.127376,-0.0315 -0.121984,-0.46805 z m 6.319309,-9.017886 c 0.0127,-0.308225 0.07539,-0.37092 0.159851,-0.159853 0.07643,0.190996 0.06703,0.4192 -0.02088,0.507118 -0.08792,0.08792 -0.150453,-0.06835 -0.138964,-0.347265 z"
         style="fill:#d0d0d0;stroke-width:0.26458332" />
      <path
         id="path96"
         d="m 9.589142,140.64063 c 0,-0.0549 0.2083594,-0.2633 0.463021,-0.46302 0.419645,-0.32911 0.429003,-0.31975 0.0999,0.0999 -0.3456438,0.44073 -0.562917,0.58089 -0.562917,0.36313 z m 48.28646,-18.68552 c 0.26339,-0.29105 0.538422,-0.52917 0.611182,-0.52917 0.07276,0 -0.08321,0.23812 -0.346599,0.52917 -0.26339,0.29104 -0.538421,0.52916 -0.611182,0.52916 -0.07276,0 0.08321,-0.23812 0.346599,-0.52916 z"
         style="fill:#c1c1c1;stroke-width:0.26458332" />
      <path
         id="path94"
         d="m -58.02864,149.47177 c 0,-3.8563 0.03699,-5.43388 0.0822,-3.50573 0.04521,1.92815 0.04521,5.08331 0,7.01146 -0.04521,1.92815 -0.0822,0.35057 -0.0822,-3.50573 z m 27.245491,5.19398 c -0.07646,-0.19924 -0.09475,-1.00291 -0.04064,-1.78593 l 0.09838,-1.42367 0.04894,1.63159 c 0.03053,1.0176 0.173403,1.68182 0.379672,1.76505 0.259043,0.10453 0.257244,0.13798 -0.0083,0.15434 -0.18647,0.0115 -0.40159,-0.14213 -0.478049,-0.34138 z m 2.22268,0.18153 c 0.190995,-0.0764 0.419198,-0.067 0.507119,0.0209 0.08792,0.0879 -0.06835,0.15045 -0.347265,0.13896 -0.308227,-0.0127 -0.37092,-0.0754 -0.159854,-0.15985 z m 1.755154,-1.16523 c -0.09777,-0.1582 -0.04527,-0.42014 0.116676,-0.58208 0.216206,-0.21621 0.294446,-0.13978 0.294446,0.28764 0,0.63883 -0.13744,0.73727 -0.411122,0.29444 z m -28.349177,-1.56444 c 0,-0.80037 0.0496,-1.12779 0.110223,-0.72761 0.06062,0.40018 0.06062,1.05503 0,1.45521 -0.06062,0.40018 -0.110223,0.0728 -0.110223,-0.7276 z m 0.03236,-5.68855 0.02064,-1.32291 1.719792,-0.0223 1.719791,-0.0223 -1.640245,0.10074 -1.640244,0.10074 -0.100193,1.24449 -0.100192,1.2445 0.02064,-1.32292 z m 21.07591,-0.28663 c 0.0127,-0.30822 0.07539,-0.37092 0.159851,-0.15985 0.07643,0.19099 0.06703,0.4192 -0.02088,0.50712 -0.08792,0.0879 -0.150452,-0.0684 -0.138964,-0.34727 z m -33.159952,-1.09539 c 0.472943,-0.0587 1.246849,-0.0587 1.719792,0 0.472942,0.0587 0.08599,0.10671 -0.859896,0.10671 -0.945886,0 -1.332839,-0.048 -0.859896,-0.10671 z m 26.193751,0 c 0.472942,-0.0587 1.246849,-0.0587 1.719791,0 0.472943,0.0587 0.08599,0.10671 -0.859895,0.10671 -0.945886,0 -1.332839,-0.048 -0.859896,-0.10671 z m 48.8206614,-1.57945 c 0.2574317,-0.0671 0.6146192,-0.0627 0.7937501,0.01 0.1791308,0.0725 -0.031493,0.12736 -0.4680559,0.12197 -0.4365625,-0.005 -0.5831258,-0.0647 -0.3256942,-0.13177 z m 11.5208766,0.003 c 0.190995,-0.0764 0.419201,-0.067 0.507119,0.0209 0.08792,0.0879 -0.06835,0.15045 -0.347265,0.13896 -0.308227,-0.0127 -0.37092,-0.0754 -0.159854,-0.15985 z m 37.835418,0 c 0.190995,-0.0764 0.419201,-0.067 0.507119,0.0209 0.08792,0.0879 -0.06835,0.15045 -0.347265,0.13896 -0.308227,-0.0127 -0.37092,-0.0754 -0.159854,-0.15985 z m 9.789584,0 c 0.190995,-0.0764 0.419201,-0.067 0.507119,0.0209 0.08792,0.0879 -0.06835,0.15045 -0.347266,0.13896 -0.308226,-0.0127 -0.370919,-0.0754 -0.159853,-0.15985 z m -38.995275,-6.30158 c 1.86e-4,-3.34698 0.0381,-4.67972 0.08426,-2.96164 0.04616,1.71808 0.04601,4.45652 -2.64e-4,6.08542 -0.04634,1.6289 -0.08411,0.2232 -0.08392,-3.12378 z m 12.700001,0 c 1.85e-4,-3.34698 0.0381,-4.67972 0.08426,-2.96164 0.04616,1.71808 0.04601,4.45652 -2.65e-4,6.08542 -0.04634,1.6289 -0.08411,0.2232 -0.08392,-3.12378 z m 1.852083,0 c 1.85e-4,-3.34698 0.0381,-4.67972 0.08426,-2.96164 0.04616,1.71808 0.04601,4.45652 -2.65e-4,6.08542 -0.04634,1.6289 -0.08411,0.2232 -0.08392,-3.12378 z m 9.18931,4.96908 -0.04234,-1.11634 -3.241145,-0.0832 -3.241146,-0.0832 3.249448,-0.0572 c 3.577712,-0.063 3.624019,-0.0418 3.426122,1.57125 -0.09866,0.80414 -0.112464,0.78299 -0.150935,-0.23125 z m 10.063404,-2.32325 c 0.0054,-0.43656 0.06469,-0.58313 0.131773,-0.32569 0.06708,0.25743 0.06267,0.61462 -0.0098,0.79375 -0.07248,0.17913 -0.127362,-0.0315 -0.12197,-0.46806 z m -116.520324,0.19937 c 1.49933,-0.0472 3.88058,-0.047 5.291667,5.3e-4 1.411089,0.0475 0.184364,0.0861 -2.726053,0.0859 -2.910416,-2.3e-4 -4.064942,-0.0391 -2.565614,-0.0863 z m 68.070881,-1.27975 c 0.0127,-0.30823 0.07539,-0.37092 0.15985,-0.15985 0.07643,0.19099 0.06703,0.41919 -0.02088,0.50712 -0.08792,0.0879 -0.150453,-0.0684 -0.138965,-0.34727 z m 24.689756,-3.9467 c 5.29e-4,-2.03729 0.04194,-2.83576 0.09229,-1.77436 0.05035,1.06139 0.05001,2.72826 -7.93e-4,3.70416 -0.05072,0.9759 -0.09191,0.10749 -0.0915,-1.9298 z m -43.0330417,1.26848 c 0.3274219,-0.0631 0.8632032,-0.0631 1.1906251,0 0.3274218,0.0631 0.059531,0.11466 -0.5953126,0.11466 -0.6548437,0 -0.9227344,-0.0516 -0.5953125,-0.11466 z m 19.6662017,-1.29053 c 0.0127,-0.30823 0.07539,-0.37092 0.159851,-0.15985 0.07643,0.19099 0.06703,0.41919 -0.02088,0.50712 -0.08792,0.0879 -0.150452,-0.0684 -0.138964,-0.34727 z M 1.1740555,134.25823 c 0.0054,-0.43656 0.064691,-0.58312 0.1317731,-0.32569 0.067083,0.25743 0.062672,0.61462 -0.00982,0.79375 -0.072477,0.17913 -0.1273625,-0.0315 -0.1219703,-0.46806 z m -59.2340375,-0.85969 c 3.320534,-0.042 8.678347,-0.042 11.90625,1.1e-4 3.227904,0.0421 0.511101,0.0764 -6.037337,0.0764 -6.548437,-6e-5 -9.189448,-0.0345 -5.868913,-0.0765 z m 76.859932,0.0175 c 0.190994,-0.0764 0.4192,-0.067 0.507119,0.0209 0.08792,0.0879 -0.06835,0.15045 -0.347266,0.13896 -0.308226,-0.0127 -0.370919,-0.0754 -0.159853,-0.15985 z m 37.818881,0.005 c 0.181901,-0.0734 0.479557,-0.0734 0.661458,0 0.181902,0.0734 0.03307,0.13346 -0.330729,0.13346 -0.363802,0 -0.51263,-0.0601 -0.330729,-0.13346 z m 10.070704,-0.005 c 0.190994,-0.0764 0.4192,-0.067 0.507119,0.0209 0.08792,0.0879 -0.06835,0.15045 -0.347266,0.13896 -0.308226,-0.0127 -0.370919,-0.0754 -0.159853,-0.15985 z m -37.406291,-11.59322 0.01736,-1.85208 0.994476,-0.0277 c 0.99078,-0.0276 0.991069,-0.0273 0.07743,0.0815 l -0.917052,0.10918 -0.09478,1.77064 -0.09478,1.77064 z m 8.729766,-3.96875 c 1.86e-4,-3.34697 0.0381,-4.67971 0.08426,-2.96163 0.04616,1.71808 0.04601,4.45652 -2.64e-4,6.08542 -0.04635,1.6289 -0.08411,0.22319 -0.08392,-3.12379 z m 33.333874,1.19063 c 0,-2.69214 0.03929,-3.79346 0.08731,-2.4474 0.04802,1.34607 0.04802,3.54873 0,4.8948 -0.04802,1.34606 -0.08731,0.24474 -0.08731,-2.4474 z m -20.097846,-1.38868 0.01198,-3.50611 1.126443,-0.026 1.126445,-0.026 -1.052722,0.10694 -1.052721,0.10694 -0.0857,3.42512 -0.0857,3.42512 0.01199,-3.50611 z m -9.040339,1.19287 c 0.842058,-0.0527 2.151745,-0.0522 2.910417,0.001 0.758671,0.0533 0.06972,0.0964 -1.531014,0.0957 -1.60073,-5.3e-4 -2.221461,-0.0442 -1.379403,-0.0968 z m 37.95805,7.9e-4 c 0.763984,-0.0534 2.01414,-0.0534 2.778125,0 0.763984,0.0534 0.138906,0.0972 -1.389063,0.0972 -1.527969,0 -2.153047,-0.0437 -1.389062,-0.0972 z m -20.519775,-0.99561 c 0.0054,-0.43656 0.06469,-0.58312 0.131773,-0.32569 0.06708,0.25743 0.06267,0.61462 -0.0098,0.79375 -0.07248,0.17913 -0.127362,-0.0315 -0.12197,-0.46806 z M 29.27727,117.35951 c -0.07646,-0.19925 -0.102486,-1.00292 -0.05784,-1.78594 l 0.08117,-1.42367 1.39056,-0.023 1.390558,-0.023 -1.324412,0.10297 -1.324414,0.10296 v 1.55985 1.55985 l 1.389062,0.0972 1.389063,0.0972 -1.397365,0.0489 c -0.974474,0.0341 -1.43944,-0.0607 -1.536383,-0.31332 z m 12.931429,-0.89188 c 0.842058,-0.0527 2.151745,-0.0522 2.910417,0.001 0.758671,0.0533 0.06972,0.0964 -1.531014,0.0958 -1.60073,-5.3e-4 -2.221461,-0.0442 -1.379403,-0.0968 z m 37.95805,7.9e-4 c 0.763984,-0.0534 2.01414,-0.0534 2.778125,0 0.763984,0.0535 0.138906,0.0972 -1.389063,0.0972 -1.527969,0 -2.153047,-0.0437 -1.389062,-0.0972 z m -37.835418,-2.38208 c 0.909505,-0.0517 2.397786,-0.0517 3.307291,0 0.909506,0.0517 0.165365,0.0939 -1.653645,0.0939 -1.819011,0 -2.563152,-0.0423 -1.653646,-0.0939 z m 39.606089,0.002 3.028357,-0.0876 0.106908,-1.05203 0.106907,-1.05203 -0.02595,1.12645 -0.02595,1.1264 -3.109312,0.0132 -3.109312,0.0132 3.028358,-0.0876 z m 7.890259,0.004 c 0.402182,-0.0608 0.997495,-0.0592 1.322916,0.004 0.325422,0.0628 -0.0036,0.11256 -0.731242,0.11058 -0.727604,-0.002 -0.993857,-0.0534 -0.591674,-0.11419 z m -80.9661412,-2.6384 c 0.2546615,-0.0665 0.6713802,-0.0665 0.9260417,0 0.2546615,0.0666 0.046302,0.121 -0.4630209,0.121 -0.5093229,0 -0.7176823,-0.0544 -0.4630208,-0.121 z m 11.3770842,0 c 0.254661,-0.0665 0.67138,-0.0665 0.926041,0 0.254662,0.0666 0.0463,0.121 -0.463021,0.121 -0.509323,0 -0.717682,-0.0544 -0.46302,-0.121 z"
         style="fill:#a4a4a4;stroke-width:0.26458332" />
      <path
         id="path92"
         d="m -75.39172,161.72645 c 0.190996,-0.0764 0.419199,-0.067 0.507118,0.0209 0.08792,0.0879 -0.06835,0.15046 -0.347266,0.13897 -0.308224,-0.0127 -0.370919,-0.0754 -0.159852,-0.15985 z m -6.193238,-3.85416 -0.504028,-0.59531 0.595312,0.50403 c 0.559447,0.47366 0.715762,0.68659 0.504028,0.68659 -0.05021,0 -0.318097,-0.26789 -0.595312,-0.59531 z m 33.461181,-14.15521 c -0.329107,-0.41964 -0.319749,-0.429 0.0999,-0.0999 0.254662,0.19972 0.463021,0.40808 0.463021,0.46302 0,0.21776 -0.217273,0.0776 -0.562917,-0.36313 z m 66.659143,-0.24688 c 0.190995,-0.0764 0.419201,-0.067 0.507119,0.0209 0.08792,0.0879 -0.06835,0.15046 -0.347265,0.13897 -0.308227,-0.0127 -0.37092,-0.0754 -0.159854,-0.15985 z m 49.212502,0 c 0.190995,-0.0764 0.419201,-0.067 0.507119,0.0209 0.08792,0.0879 -0.06835,0.15046 -0.347266,0.13897 -0.308226,-0.0127 -0.370919,-0.0754 -0.159853,-0.15985 z m 2.827734,-1.14218 c 0.263391,-0.29104 0.538422,-0.52916 0.611183,-0.52916 0.07276,0 -0.08321,0.23812 -0.346599,0.52916 -0.26339,0.29104 -0.538422,0.52917 -0.611182,0.52917 -0.07276,0 0.08321,-0.23813 0.346598,-0.52917 z m -76.2259367,-1.69197 c -0.077891,-0.20297 -0.094168,-0.82805 -0.036174,-1.38906 0.1011449,-0.97841 0.1072594,-0.96925 0.1499235,0.22467 l 0.044477,1.24468 1.7859375,0.0926 1.7859376,0.0926 -1.7942402,0.0518 c -1.3272585,0.0383 -1.8311019,-0.0442 -1.9358611,-0.31723 z m 8.4661272,-5.58407 c 2.646e-4,-2.18281 0.041352,-3.04057 0.091067,-1.90613 0.049715,1.13443 0.049414,2.92037 -7.938e-4,3.96875 -0.050086,1.04837 -0.090763,0.12019 -0.090392,-2.06262 z m 45.1892975,3.3794 2.829489,-0.0897 0.106881,-1.0515 0.106881,-1.05149 -0.02596,1.12644 -0.02596,1.12644 -2.910417,0.0148 -2.910417,0.0148 2.829489,-0.0897 z m 12.87947,-1.0643 c -0.329107,-0.41964 -0.319749,-0.429 0.0999,-0.0999 0.44073,0.34564 0.580888,0.56292 0.363125,0.56292 -0.05494,0 -0.2633,-0.20836 -0.463021,-0.46303 z M -5.6810184,134.7874 c 0.00212,-0.72761 0.053372,-0.99386 0.1141862,-0.59168 0.060817,0.40219 0.05919,0.9975 -0.0036,1.32292 -0.062801,0.32542 -0.112559,-0.004 -0.1105747,-0.73124 z m 54.1493144,-1.11977 3.161261,-0.0869 0.107328,-1.24874 0.107328,-1.24874 -0.02701,1.32292 -0.02701,1.32291 -3.241574,0.0128 -3.241575,0.0128 3.16126,-0.0869 z m -33.05832,-1.22909 c 0,-0.0549 0.208359,-0.2633 0.46302,-0.46302 0.419645,-0.3291 0.429004,-0.31975 0.0999,0.0999 -0.345643,0.44073 -0.562916,0.58089 -0.562916,0.36312 z m -75.175419,-7.77145 c -0.329107,-0.41965 -0.319749,-0.42901 0.09989,-0.0999 0.254662,0.19972 0.463021,0.40808 0.463021,0.46302 0,0.21776 -0.217272,0.0776 -0.562916,-0.36312 z M 47.23565,122.61656 c 0.0021,-0.7276 0.05337,-0.99385 0.114186,-0.59167 0.06082,0.40218 0.05919,0.9975 -0.0036,1.32292 -0.0628,0.32542 -0.112559,-0.004 -0.110575,-0.73125 z m 16.706528,-4.7625 c 1.85e-4,-3.34697 0.0381,-4.67971 0.08426,-2.96163 0.04616,1.71808 0.04601,4.45652 -2.65e-4,6.08542 -0.04634,1.6289 -0.08411,0.22319 -0.08392,-3.12379 z m 22.489584,0 c 1.85e-4,-3.34697 0.0381,-4.67971 0.08426,-2.96163 0.04616,1.71808 0.04601,4.45652 -2.65e-4,6.08542 -0.04634,1.6289 -0.08411,0.22319 -0.08392,-3.12379 z m -73.138453,4.7949 c 0,-0.0549 0.208359,-0.2633 0.463021,-0.46302 0.419645,-0.32911 0.429003,-0.31975 0.0999,0.0999 -0.345644,0.44073 -0.562917,0.58088 -0.562917,0.36312 z m 11.377084,0 c 0,-0.0549 0.208359,-0.2633 0.46302,-0.46302 0.419645,-0.32911 0.429004,-0.31975 0.0999,0.0999 -0.345643,0.44073 -0.562916,0.58088 -0.562916,0.36312 z m 27.321868,-1.41288 c 0.402182,-0.0608 0.997495,-0.0592 1.322916,0.004 0.325422,0.0628 -0.0036,0.11256 -0.731242,0.11057 -0.727604,-0.002 -0.993857,-0.0534 -0.591674,-0.11418 z m 26.728807,-1.00077 c 0.0021,-0.7276 0.05337,-0.99385 0.114186,-0.59167 0.06082,0.40218 0.05919,0.9975 -0.0036,1.32292 -0.0628,0.32542 -0.112559,-0.004 -0.110575,-0.73125 z m 11.102973,1.00112 c 0.400182,-0.0606 1.055026,-0.0606 1.455208,0 0.400182,0.0606 0.07276,0.11022 -0.727604,0.11022 -0.800365,0 -1.127787,-0.0496 -0.727604,-0.11022 z m -93.9932328,-2.60531 c 0.9440307,-0.20838 2.6458334,-0.24468 2.6458334,-0.0564 0,0.11298 -0.6846094,0.19162 -1.5213542,0.17473 -0.8367448,-0.0169 -1.3427605,-0.0701 -1.1244792,-0.11829 z m 60.9057488,-0.77706 c 0.0054,-0.43656 0.06469,-0.58312 0.131774,-0.32569 0.06708,0.25743 0.06267,0.61462 -0.0098,0.79375 -0.07248,0.17913 -0.127363,-0.0315 -0.121971,-0.46806 z m 21.980899,-2.51354 c 0,-0.65484 0.0516,-0.92273 0.114663,-0.59531 0.06307,0.32742 0.06307,0.8632 0,1.19063 -0.06306,0.32742 -0.114663,0.0595 -0.114663,-0.59532 z m -20.866992,-1.91823 -0.504029,-0.59531 0.595313,0.50403 c 0.327422,0.27722 0.595312,0.54511 0.595312,0.59531 0,0.21174 -0.212934,0.0554 -0.686596,-0.50403 z m 17.162826,-0.46302 c 0,-0.65484 0.0516,-0.92273 0.114662,-0.59531 0.06307,0.32742 0.06307,0.8632 0,1.19063 -0.06306,0.32742 -0.114662,0.0595 -0.114662,-0.59532 z m -116.646163,-6.94531 -0.504028,-0.59531 0.595312,0.50403 c 0.559446,0.47366 0.715761,0.68659 0.504029,0.68659 -0.05021,0 -0.318098,-0.26789 -0.595313,-0.59531 z M -81.692111,93.776982 c 0.341774,-0.363802 0.680939,-0.661458 0.753699,-0.661458 0.07276,0 -0.147342,0.297656 -0.489116,0.661458 -0.341774,0.363803 -0.680939,0.661459 -0.753699,0.661459 -0.07276,0 0.147342,-0.297656 0.489116,-0.661459 z m 6.300391,-4.017198 c 0.190996,-0.07643 0.419199,-0.06703 0.507118,0.02089 0.08792,0.08792 -0.06835,0.150453 -0.347266,0.138964 -0.308224,-0.0127 -0.370919,-0.07539 -0.159852,-0.159852 z"
         style="fill:#878787;stroke-width:0.26458332" />
      <path
         id="path90"
         d="m -82.378708,158.40146 -0.504028,-0.59531 0.595312,0.50403 c 0.559447,0.47366 0.715762,0.68659 0.504028,0.68659 -0.05021,0 -0.318097,-0.26789 -0.595312,-0.59531 z m 50.626703,-7.03351 c 0.254661,-0.26679 0.509754,-0.44826 0.56687,-0.40327 0.156297,0.12312 -0.530855,0.88834 -0.797703,0.88834 -0.127704,0 -0.02384,-0.21828 0.230833,-0.48507 z m 92.538024,-9.03993 c 0.26339,-0.29104 0.538422,-0.52916 0.611182,-0.52916 0.07276,0 -0.08321,0.23812 -0.346599,0.52916 -0.26339,0.29104 -0.538422,0.52917 -0.611182,0.52917 -0.07276,0 0.08321,-0.23813 0.346599,-0.52917 z m -49.08021,0.16469 c 0,-0.0549 0.208359,-0.2633 0.463021,-0.46302 0.419645,-0.32911 0.429003,-0.31975 0.0999,0.0999 -0.345644,0.44073 -0.562917,0.58089 -0.562917,0.36313 z m 1.694653,-21.3975 -0.504028,-0.59531 0.595312,0.50403 c 0.559446,0.47366 0.715762,0.68659 0.504029,0.68659 -0.05021,0 -0.318098,-0.26789 -0.595313,-0.59531 z m 11.120994,-0.26458 -0.777105,-0.8599 0.859896,0.77711 c 0.801544,0.72437 0.981511,0.94268 0.777105,0.94268 -0.04554,0 -0.432488,-0.38695 -0.859896,-0.85989 z m -74.497316,-0.13229 c -0.329108,-0.41965 -0.319749,-0.42901 0.0999,-0.0999 0.440729,0.34564 0.580887,0.56292 0.363125,0.56292 -0.05494,0 -0.263301,-0.20836 -0.463021,-0.46302 z m 85.229586,-1.75355 c 0,-0.0549 0.20836,-0.2633 0.463021,-0.46302 0.419645,-0.3291 0.429003,-0.31975 0.0999,0.0999 -0.345644,0.44073 -0.562917,0.58089 -0.562917,0.36312 z M -82.35357,93.115524 c 0.263389,-0.291041 0.538421,-0.529166 0.611181,-0.529166 0.07276,0 -0.08321,0.238125 -0.346597,0.529166 -0.263389,0.291042 -0.538421,0.529167 -0.611181,0.529167 -0.07276,0 0.08321,-0.238125 0.346597,-0.529167 z"
         style="fill:#656565;stroke-width:0.26458332" />
      <path
         id="path88"
         d="m -76.051237,161.61771 c -2.148512,-0.36057 -4.196283,-1.40908 -5.870067,-3.0056 -1.74142,-1.66103 -2.763161,-3.5264 -3.185392,-5.81549 -0.403366,-2.18683 -0.403366,-51.82329 0,-54.010107 0.422231,-2.289096 1.443972,-4.154464 3.185392,-5.815498 1.782427,-1.700147 3.74053,-2.65068 6.251728,-3.034814 1.203497,-0.184096 29.505113,-0.249182 87.110801,-0.20033 l 85.328128,0.07236 1.449171,0.592732 c 3.166736,1.295244 5.380896,3.465943 6.547206,6.418726 0.44012,1.114236 0.47029,2.973023 0.47029,28.971871 0,25.99886 -0.0302,27.85764 -0.47029,28.97188 -1.16631,2.95278 -3.38047,5.12348 -6.547206,6.41872 l -1.449171,0.59274 -85.725003,0.0364 c -47.532336,0.0202 -86.335633,-0.0661 -87.095587,-0.19361 z m 56.007045,-35.82615 V 90.734274 h -28.004414 c -27.028208,0 -28.056429,0.0179 -29.496566,0.513376 -2.730395,0.939393 -4.565718,2.527603 -5.947533,5.146738 l -0.712948,1.351344 v 28.045828 28.04584 l 0.712948,1.35134 c 1.357125,2.57234 3.200958,4.19088 5.845261,5.13105 1.308585,0.46526 2.820391,0.49139 29.491271,0.50973 l 28.111981,0.0193 z m -51.064586,23.7074 v -6.90635 l 3.902605,0.006 c 3.260435,0.005 4.084749,0.0885 5.009537,0.50837 2.05095,0.93116 2.610433,3.46151 1.13654,5.14018 l -0.799235,0.91028 0.886097,0.54764 c 2.230336,1.37842 2.000107,4.63505 -0.417558,5.90638 -0.992665,0.522 -1.60453,0.60006 -5.418506,0.69125 l -4.29948,0.10279 z m 8.158081,3.78385 c 0.450648,-0.31564 0.582447,-0.6315 0.521892,-1.25073 -0.112237,-1.14773 -0.939715,-1.49334 -3.586743,-1.49807 l -2.182813,-0.004 v 1.5875 1.5875 h 2.322379 c 1.698241,0 2.484409,-0.1135 2.925285,-0.4223 z m -0.808618,-5.54583 c 0.693945,-0.48606 0.792077,-1.73524 0.176451,-2.24617 -0.226373,-0.18787 -1.357466,-0.39634 -2.513542,-0.46327 l -2.101955,-0.12167 v 1.62149 1.6215 h 1.925504 c 1.314512,0 2.112097,-0.1307 2.513542,-0.41188 z m 5.879705,1.71659 v -6.89738 l 4.214945,0.0844 c 3.777287,0.0756 4.292404,0.14152 4.960937,0.63495 1.83624,1.35529 2.123832,3.60491 0.646933,5.06045 l -0.738756,0.72808 0.987975,0.71569 c 1.860735,1.3479 1.979274,3.88214 0.249661,5.33751 -1.081376,0.90992 -2.89101,1.23371 -6.895135,1.23371 h -3.42656 z m 8.202083,3.72237 c 0.622856,-0.62286 0.674066,-1.28801 0.153985,-1.99995 -0.319566,-0.43746 -0.770617,-0.52707 -3.042708,-0.60453 l -2.667527,-0.0909 v 1.61229 1.6123 h 2.513542 c 2.160765,0 2.58781,-0.0743 3.042708,-0.52917 z m -0.79375,-5.55625 c 0.54655,-0.54655 0.669235,-1.22218 0.321294,-1.76939 -0.347281,-0.54616 -1.621477,-0.87644 -3.381227,-0.87644 h -1.702567 v 1.5875 1.5875 h 2.116667 c 1.76389,0 2.20486,-0.0882 2.645833,-0.52917 z m 5.55625,1.87927 v -6.90635 l 3.902605,0.006 c 3.260434,0.005 4.084748,0.0885 5.009536,0.50837 2.057437,0.93411 2.610549,3.46138 1.127279,5.15073 l -0.808498,0.92083 0.804021,0.41577 c 1.488951,0.76997 2.063641,2.9891 1.204396,4.6507 -0.221279,0.4279 -0.905888,1.04281 -1.521354,1.36645 -0.992664,0.522 -1.604528,0.60006 -5.418505,0.69125 l -4.29948,0.1028 v -6.90636 z m 8.158081,3.78385 c 0.450649,-0.31564 0.582446,-0.6315 0.521891,-1.25073 -0.112236,-1.14773 -0.939716,-1.49334 -3.586742,-1.49807 l -2.182813,-0.004 v 1.5875 1.5875 h 2.322378 c 1.698241,0 2.484411,-0.1135 2.925286,-0.4223 z m -0.808619,-5.54583 c 0.693946,-0.48606 0.792077,-1.73524 0.176453,-2.24617 -0.226375,-0.18787 -1.357469,-0.39634 -2.513542,-0.46327 l -2.101956,-0.12167 v 1.62149 1.6215 h 1.925503 c 1.314513,0 2.112097,-0.1307 2.513542,-0.41188 z m 7.533351,8.43157 c 0.254662,-0.0665 0.671381,-0.0665 0.926042,0 0.254662,0.0665 0.0463,0.121 -0.463021,0.121 -0.509323,0 -0.717682,-0.0545 -0.463021,-0.121 z m -1.762418,-0.89625 c -0.518134,-0.61576 -0.676368,-1.083 -0.649627,-1.91823 l 0.03535,-1.10417 0.17934,1.29366 c 0.131157,0.94607 0.374438,1.46147 0.905444,1.91823 0.399357,0.34351 0.610986,0.62456 0.470286,0.62456 -0.1407,0 -0.564057,-0.36632 -0.940797,-0.81405 z m 3.30582,0.74791 c 0.06063,-0.0364 0.467432,-0.3638 0.903994,-0.72761 l 0.79375,-0.66145 -0.641432,0.7276 c -0.35279,0.40018 -0.759587,0.7276 -0.903994,0.7276 -0.144407,0 -0.21295,-0.0298 -0.152318,-0.0661 z m -2.138714,-2.84427 c 0,-1.73378 0.209288,-1.89721 1.702567,-1.32947 0.731512,0.27812 0.930397,1.2365 0.372396,1.79451 -0.231992,0.23199 -0.224134,0.40527 0.0324,0.71437 0.227063,0.27359 0.241546,0.40809 0.04394,0.40809 -0.162108,0 -0.44345,-0.23813 -0.625208,-0.52917 -0.181758,-0.29104 -0.480425,-0.52916 -0.663702,-0.52916 -0.183277,0 -0.333229,0.23812 -0.333229,0.52916 0,0.29104 -0.119063,0.52917 -0.264584,0.52917 -0.146992,0 -0.264583,-0.70556 -0.264583,-1.5875 z m 1.559909,0.0226 c 0.509302,-0.32249 0.163187,-1.08098 -0.493273,-1.08098 -0.396912,0 -0.537469,0.17298 -0.537469,0.66145 0,0.67863 0.378346,0.83262 1.030742,0.41953 z m 2.165147,0.88134 c 0.0127,-0.30823 0.07539,-0.37092 0.15985,-0.15985 0.07643,0.19099 0.06703,0.41919 -0.02088,0.50712 -0.08792,0.0879 -0.150453,-0.0684 -0.138965,-0.34727 z m -0.09201,-1.67654 c -0.115085,-0.44009 -0.08065,-0.54339 0.115687,-0.34705 0.153749,0.15375 0.227486,0.43572 0.163859,0.6266 -0.06605,0.19816 -0.185986,0.0782 -0.279546,-0.27955 z m -1.119507,-1.36206 c -0.436563,-0.27964 -0.658112,-0.50907 -0.492332,-0.50983 0.165778,-8e-4 0.582496,0.23277 0.926042,0.51897 0.786622,0.65532 0.597411,0.65133 -0.43371,-0.009 z m -2.848682,-0.27947 c 0.179478,-0.18083 0.39297,-0.26212 0.474432,-0.18066 0.08146,0.0815 -0.06538,0.22941 -0.326318,0.32877 -0.377084,0.14358 -0.407474,0.11319 -0.148114,-0.14811 z m -26.898789,-12.66717 -0.562554,-1.85208 h -3.143059 -3.143059 l 0.423052,-1.32292 0.423052,-1.32292 h 11.708078 11.708077 l 0.355389,1.25677 0.355388,1.25677 -3.109336,0.0742 -3.109333,0.0742 -0.549172,1.84401 -0.549169,1.84401 h -5.1224 -5.122402 z m 5.379268,-6.39293 c -0.120203,-0.1945 -0.184671,-0.67662 -0.143261,-1.07139 0.06684,-0.63721 -0.243711,-0.94902 -2.767111,-2.77829 -3.889514,-2.81959 -4.610678,-3.47594 -5.168608,-4.70408 -0.614267,-1.35215 -0.624938,-3.20506 -0.02522,-4.3781 0.783581,-1.53265 3.502299,-5.04701 3.774327,-4.87888 0.140449,0.0868 0.25536,0.55958 0.25536,1.05061 0,0.8368 0.198724,1.03645 3.168428,3.18312 3.576233,2.58511 4.617752,3.63952 5.017747,5.0799 0.589049,2.12114 0.208121,3.35045 -1.953671,6.30476 -1.94886,2.66332 -1.898523,2.61218 -2.157997,2.19235 z m 6.125454,-8.81211 c 0.525351,-1.25735 0.480668,-2.41857 -0.1426,-3.70608 -0.428292,-0.88472 -1.356469,-1.68521 -4.997699,-4.31014 -4.852305,-3.49799 -5.806565,-4.54015 -6.392085,-6.98087 -0.409723,-1.70792 -0.196196,-3.81157 0.531712,-5.23839 0.694516,-1.36136 5.060617,-7.421979 5.346835,-7.421979 0.113438,0 0.133247,0.532638 0.04402,1.183641 -0.117313,0.855893 -0.04562,1.361616 0.258911,1.826389 0.231629,0.353512 2.559201,2.202939 5.172379,4.109829 5.036082,3.67494 5.88127,4.4742 6.74015,6.37389 0.752102,1.66351 0.73814,4.48369 -0.02991,6.04129 -0.828241,1.67966 -6.184358,9.03996 -6.57841,9.03996 -0.26353,0 -0.253386,-0.19933 0.0467,-0.91754 z m 56.388073,20.45769 c 1.481373,-0.37301 2.770849,-1.6011 3.205946,-3.05333 0.189825,-0.63358 0.320606,-2.70348 0.320606,-5.07429 v -4.0042 h -1.455208 -1.455209 v 3.81924 c 0,2.10058 -0.118305,4.1304 -0.2629,4.51071 -0.36739,0.96631 -1.8857545,1.57744 -3.0030529,1.20869 -1.4411114,-0.47561 -1.6157735,-1.03544 -1.7171142,-5.50374 l -0.091509,-4.0349 H 4.114756 2.656616 l 0.1006237,4.43177 c 0.078219,3.44498 0.196387,4.60851 0.5307066,5.22552 1.250225,2.30739 3.755779,3.22682 6.7433907,2.47453 z m 11.054763,0.0103 c 0.575255,-0.15971 1.438458,-0.68292 1.918229,-1.16269 0.778413,-0.77842 0.87231,-1.03136 0.87231,-2.34981 0,-2.1037 -0.774866,-2.91001 -3.700549,-3.85072 -2.367455,-0.76123 -2.98894,-1.27288 -2.403274,-1.97857 0.478562,-0.57663 1.946492,-0.52601 3.193407,0.11012 0.570489,0.29104 1.097235,0.52917 1.170546,0.52917 0.07331,0 0.432429,-0.44022 0.798038,-0.97827 0.612447,-0.90129 0.631566,-1.01492 0.243007,-1.44427 -0.695476,-0.7685 -2.881789,-1.35417 -4.593024,-1.23039 -2.669236,0.19308 -4.316391,2.11278 -3.867214,4.5071 0.254254,1.35529 1.351463,2.21664 3.876062,3.04286 1.847807,0.60473 2.255046,0.83702 2.324505,1.32593 0.190476,1.34071 -2.612851,1.40195 -4.405305,0.0962 -0.654066,-0.47646 -0.66253,-0.47395 -1.458704,0.43285 -0.939617,1.07016 -0.809815,1.47504 0.728893,2.27356 1.817082,0.94298 3.548584,1.16399 5.303073,0.67689 z m 38.993063,-0.34466 c 1.059992,-0.54814 1.642327,-1.43817 1.823178,-2.78652 0.278955,-2.07975 -0.694659,-3.26558 -3.365284,-4.09879 -2.656784,-0.82891 -2.910416,-0.96909 -2.910416,-1.60862 0,-1.07316 1.556326,-1.24071 3.369857,-0.36279 0.635622,0.3077 1.184045,0.51606 1.218716,0.46302 0.03467,-0.053 0.38829,-0.53844 0.785818,-1.07867 l 0.722778,-0.98224 -0.669737,-0.43883 c -1.731642,-1.13462 -4.405791,-1.49199 -6.043597,-0.80767 -0.475064,0.19849 -1.198184,0.75834 -1.606933,1.24412 -0.669169,0.79526 -0.732058,1.03701 -0.631479,2.4275 0.146455,2.0247 0.608703,2.46024 3.698706,3.48499 2.224646,0.73776 2.463162,0.8803 2.463162,1.47195 0,1.3101 -2.36039,1.3926 -4.196368,0.14667 l -0.942301,-0.63947 -0.804103,1.01527 c -0.442256,0.55839 -0.804103,1.07771 -0.804103,1.15404 0,0.25649 1.881024,1.30432 2.99619,1.66904 1.356643,0.4437 3.770241,0.30911 4.895916,-0.273 z m 9.816907,-0.0141 c 1.1708,-0.60545 1.867972,-1.86562 1.869165,-3.37861 0.0016,-1.85397 -0.882094,-2.71992 -3.69956,-3.62583 -2.367455,-0.76123 -2.98894,-1.27288 -2.403274,-1.97857 0.469638,-0.56587 1.75787,-0.51856 3.156153,0.11593 0.634357,0.28784 1.184082,0.52336 1.221613,0.52336 0.03753,0 0.381628,-0.47357 0.76466,-1.05237 l 0.69642,-1.05236 -0.663665,-0.43485 c -1.816997,-1.19054 -4.608439,-1.50573 -6.209835,-0.70116 -2.585577,1.29904 -2.87528,4.99742 -0.488738,6.23933 0.484188,0.25196 1.713778,0.72215 2.732424,1.04486 1.478216,0.46831 1.868678,0.70331 1.934284,1.16416 0.187682,1.31833 -2.318547,1.48175 -4.148815,0.27053 l -0.986065,-0.65254 -0.875591,1.04292 c -0.838277,0.99848 -0.854644,1.05938 -0.384077,1.42903 2.091893,1.64324 5.428464,2.10959 7.484901,1.04617 z m -70.1798849,0.10532 c 2.4634614,-0.93338 3.1147333,-4.12174 1.14013725,-5.58162 l -0.76956182,-0.56896 0.65014742,-0.77266 c 0.98792245,-1.17408 0.89404295,-2.59016 -0.2548943,-3.8448 l -0.90503908,-0.9883 -3.98975277,-0.0852 -3.9897501,-0.0852 v 6.10448 6.10448 h 3.6869424 c 2.0278197,0 4.02211661,-0.127 4.431771,-0.28221 z m -5.2082966,-3.58317 v -1.21955 l 2.0104259,0.10153 c 1.6007583,0.0808 2.0859883,0.20486 2.3812501,0.60865 0.47071492,0.64374 0.46526715,0.80292 -0.04495,1.31314 -0.3033501,0.30335 -0.9472322,0.41577 -2.3812501,0.41577 h -1.9654758 z m 0,-4.73358 v -1.19063 h 1.3963359 c 1.5483682,0 2.5724142,0.52891 2.5724142,1.32861 0,0.71694 -0.7960678,1.05264 -2.496148,1.05264 h -1.4726021 z m 33.6020845,2.51354 v -6.08542 h -1.455208 -1.455209 v 6.08542 6.08542 h 1.455209 1.455208 z m 4.497917,2.34587 v -3.73956 l 2.844271,3.73952 2.844271,3.73951 1.256771,4e-5 1.25677,4e-5 v -6.08542 -6.08542 h -1.447527 -1.44753 l -0.07382,3.42085 -0.07383,3.42085 -2.58999,-3.42085 -2.589991,-3.42085 h -1.312614 -1.312614 v 6.08542 6.08542 h 1.322917 1.322917 z m 19.314584,2.41663 v -1.32292 H 48.615182 45.30789 v -1.04938 -1.04938 l 2.844271,-0.0751 2.844271,-0.0751 0.08064,-1.25677 0.08064,-1.25677 h -2.924913 -2.924914 v -1.05019 -1.05019 l 3.241146,-0.0743 3.241146,-0.0743 0.08064,-1.25677 0.08064,-1.25677 H 47.17446 42.397463 v 6.08542 6.08542 h 4.762501 4.7625 z M 11.46789,123.77065 c 1.123442,-0.37614 2.619169,-1.46791 2.619169,-1.9118 0,-0.18365 -0.361519,-0.68026 -0.803373,-1.10359 -0.67867,-0.6502 -0.873755,-0.71867 -1.256771,-0.44106 -0.838684,0.60789 -2.1506974,1.11175 -2.8922954,1.11075 -2.438207,-0.003 -4.0720356,-3.27721 -2.7321194,-5.47474 1.113327,-1.82591 2.7161994,-2.27149 4.6405798,-1.29003 l 1.32165,0.67406 0.927309,-0.94061 0.927311,-0.94062 -0.894331,-0.7579 c -2.370161,-2.00861 -6.8535737,-1.58159 -8.9020652,0.84787 -1.0672393,1.26573 -1.4483954,2.3654 -1.4483954,4.17879 0,2.67019 1.2956329,4.7912 3.5718751,5.84733 1.2091009,0.56101 3.5602735,0.65729 4.9214565,0.20155 z m 11.377084,0 c 1.123442,-0.37614 2.619169,-1.46791 2.619169,-1.9118 0,-0.18365 -0.361519,-0.68026 -0.803373,-1.10359 -0.67867,-0.6502 -0.873755,-0.71867 -1.256771,-0.44106 -1.638724,1.18776 -3.177776,1.3845 -4.504217,0.57579 -1.574152,-0.95973 -2.064382,-3.14672 -1.120214,-4.99745 0.94184,-1.84616 3.349144,-2.26738 5.264661,-0.9212 0.603747,0.4243 0.652304,0.40778 1.5875,-0.54032 l 0.964705,-0.97801 -0.894331,-0.7579 c -2.370162,-2.00861 -6.853574,-1.58159 -8.902065,0.84787 -1.08439,1.28607 -1.448396,2.37002 -1.448396,4.31313 0,2.64627 1.255191,4.65582 3.571875,5.71855 1.209993,0.55506 3.568481,0.64898 4.921457,0.19599 z m -28.8163118,-1.28638 0.5497804,-1.32291 h 2.4516928 2.45169536 l 0.47571291,1.32291 0.47571556,1.32292 H 1.9967986 c 1.1426402,0 1.5291198,-0.089 1.4356716,-0.33073 -0.070326,-0.1819 -1.2294712,-2.92034 -2.57587762,-6.08542 l -2.44800978,-5.75468 h -1.3835407 -1.3835407 l -2.4850329,5.86149 c -1.3667687,3.22381 -2.524723,5.96225 -2.5732291,6.08541 -0.048509,0.12316 0.5831682,0.22393 1.4037258,0.22393 h 1.4919193 z m 1.802146,-4.19805 c 0,-0.12611 0.2614692,-0.85846 0.5810435,-1.62744 l 0.5810436,-1.39815 0.4388141,1.03323 c 0.9525873,2.24296 0.9563523,2.22166 -0.3924459,2.22166 -0.6646519,0 -1.2084553,-0.10318 -1.2084553,-0.2293 z m 33.6020848,3.66889 v -1.85209 h 0.923933 c 0.850238,0 1.022164,0.14773 2.155486,1.85209 l 1.231551,1.85208 h 1.696588 c 1.913966,0 1.901642,0.16728 0.169198,-2.29637 -0.63232,-0.8992 -1.149673,-1.74329 -1.149673,-1.87576 0,-0.13247 0.303533,-0.37915 0.674518,-0.54818 0.775179,-0.35319 1.695112,-2.17095 1.695112,-3.34948 0,-1.47775 -0.876898,-2.9133 -2.158574,-3.53375 -1.016469,-0.49206 -1.634485,-0.56729 -4.660215,-0.56729 h -3.488341 v 6.08541 6.08542 h 1.455208 1.455209 z m 0,-6.08542 v -1.5875 h 1.669222 c 2.015164,0 2.652305,0.38135 2.652305,1.5875 0,1.20615 -0.637141,1.5875 -2.652305,1.5875 h -1.669222 z m 17.991667,6.74687 v -1.19062 h -3.307292 -3.307292 v -1.19063 -1.19062 h 2.778126 2.778125 v -1.32292 -1.32291 h -2.778125 -2.778126 v -1.05834 -1.05833 h 3.175001 3.175 v -1.32292 -1.32291 H 42.529768 37.89956 v 6.08541 6.08542 h 4.7625 4.7625 z m 8.878308,0.69159 c 0.590204,-0.26808 1.49886,-0.98482 2.019237,-1.59276 2.573756,-3.00686 1.722236,-7.51583 -1.76942,-9.36945 -0.887756,-0.47129 -1.623367,-0.57793 -4.564062,-0.66167 l -3.50573,-0.0998 v 6.11137 6.11138 l 3.373438,-0.006 c 2.703483,-0.005 3.586552,-0.10261 4.446537,-0.49323 z m -4.909558,-5.58638 v -3.43958 h 1.349076 c 2.510393,0 3.942591,1.24505 3.942591,3.4274 0,2.29621 -1.27994,3.45177 -3.823319,3.45177 H 51.39331 Z m 12.700001,0 v -6.08541 h -1.455209 -1.455208 v 6.08541 6.08542 h 1.455208 1.455209 z m 7.408333,1.32292 v -4.7625 h 1.852084 1.852083 v -1.32292 -1.32291 h -5.159375 -5.159375 v 1.32291 1.32292 h 1.852083 1.852083 v 4.7625 4.7625 h 1.455209 1.455208 z m 13.758334,3.57187 v -1.19062 h -3.175 -3.175 v -1.19063 -1.19062 h 2.778125 2.778125 v -1.32292 -1.32291 h -2.778125 -2.778125 v -1.05834 -1.05833 h 3.175 3.175 v -1.32292 -1.32291 h -4.630209 -4.630208 v 6.08541 6.08542 h 4.630208 4.630209 z m 9.277483,0.46303 c 2.121752,-1.07592 2.989066,-2.45587 3.115355,-4.95676 0.08686,-1.72013 0.01511,-2.09969 -0.616061,-3.25938 -1.36882,-2.51497 -3.040777,-3.22709 -7.57671,-3.22709 h -3.141734 v 6.08541 6.08542 h 3.392141 c 3.176278,0 3.483446,-0.0463 4.827009,-0.7276 z m -5.308733,-5.35782 v -3.43958 l 1.521354,9.8e-4 c 1.86163,0.001 3.109495,0.67764 3.653944,1.98068 0.488214,1.16846 0.482304,2.0904 -0.02019,3.14934 -0.582729,1.228 -1.636739,1.74817 -3.542287,1.74817 h -1.612823 z"
         style="fill:#4b4b4b;stroke-width:0.26458332" />
    </g>
  </g>
</svg>
