<?xml version="1.0" encoding="UTF-8" standalone="no"?>
<svg
   xmlns:dc="http://purl.org/dc/elements/1.1/"
   xmlns:cc="http://creativecommons.org/ns#"
   xmlns:rdf="http://www.w3.org/1999/02/22-rdf-syntax-ns#"
   xmlns:svg="http://www.w3.org/2000/svg"
   xmlns="http://www.w3.org/2000/svg"
   xmlns:sodipodi="http://sodipodi.sourceforge.net/DTD/sodipodi-0.dtd"
   xmlns:inkscape="http://www.inkscape.org/namespaces/inkscape"
   width="2191.6826"
   height="834.48651"
   viewBox="0 0 194.731 74.119901"
   version="1.1"
   id="svg22"
   sodipodi:docname="diesel-5.svg"
   inkscape:version="0.92.2 (5c3e80d, 2017-08-06)">
  <metadata
     id="metadata28">
    <rdf:RDF>
      <cc:Work
         rdf:about="">
        <dc:format>image/svg+xml</dc:format>
        <dc:type
           rdf:resource="http://purl.org/dc/dcmitype/StillImage" />
        <dc:title></dc:title>
      </cc:Work>
    </rdf:RDF>
  </metadata>
  <defs
     id="defs26" />
  <sodipodi:namedview
     pagecolor="#ffffff"
     bordercolor="#666666"
     borderopacity="1"
     objecttolerance="10"
     gridtolerance="10"
     guidetolerance="10"
     inkscape:pageopacity="0"
     inkscape:pageshadow="2"
     inkscape:window-width="640"
     inkscape:window-height="480"
     id="namedview24"
     showgrid="false"
     fit-margin-top="0"
     fit-margin-left="0"
     fit-margin-right="0"
     fit-margin-bottom="0"
     inkscape:zoom="0.152"
     inkscape:cx="964.9083"
     inkscape:cy="367.1089"
     inkscape:window-x="0"
     inkscape:window-y="0"
     inkscape:window-maximized="0"
     inkscape:current-layer="svg22" />
  <path
     d="m 0,1.60365 v 70.66 h 14.968 c 19.796,1.84 19.788,-23.264 19.788,-23.264 v -21.842 c -0.23,-26.011 -18.88,-25.554 -18.88,-25.554 H 0.001001 Z m 13.903,10.942 c 7.73,-0.554 7.505,10.664 7.504,10.664 v 26.937 c 0.23,13.352 -8.293999,11.296 -8.293999,11.296 v -48.817 c 0.264999,-0.044 0.539999,-0.063 0.789999,-0.08 z m 27.298,-10.955 h 12.89 v 70.666 h -12.89 z m 49.489001,70.468 v -10.391 H 73.887 v -19.796 h 11.740001 v -11.278 H 74.117 v -17.724 h 16.114001 v -11.28 H 60.765 v 70.61 z M 114.627,21.84565 h 11.279 c 0,0 1.38,-21.866 -16.344,-21.866 -17.723999,0 -16.800999,17.032 -16.800999,17.032 0,0 -2.302,13.81 12.429999,24.858 0,0 15.422,8.979 9.668,18.645 0,0 -9.208,8.287 -9.44,-8.286 H 93.681001 c 0,0 -2.071,22.788 17.263999,21.868 0,0 15.88,-0.231 17.033,-16.804 0,0 1.842,-12.2 -10.588,-23.48 0,0 -17.723999,-11.508 -11.28,-20.715 0.001,0 7.367,-7.594 8.516,8.748 z m 17.433,-20.255 h 29.488 v 11.508 h -16.075 v 17.725 h 11.969 v 11.739 h -12.2 v 19.105 h 16.804 v 11.049 h -29.695 z m 36.148,0 h 12.939 v 60.077 h 13.584 v 11.049 h -26.523 z m 21.582,1.155 c 0.289,-0.06 0.712,-0.1 1.098,-0.1 0.613,0 1.015,0.12 1.29,0.37 0.218,0.19 0.349,0.493 0.349,0.842 0,0.578 -0.375,0.968 -0.835,1.125 v 0.02 c 0.337,0.119 0.54,0.435 0.65,0.896 0.146,0.617 0.25,1.045 0.338,1.216 h -0.593 c -0.073,-0.126 -0.17,-0.507 -0.29,-1.06 -0.131,-0.611 -0.374,-0.842 -0.894,-0.862 h -0.54 v 1.922 h -0.571 v -4.368 h -0.002 z m 0.571,2.013 h 0.586 c 0.611,0 1,-0.334 1,-0.841 0,-0.573 -0.414,-0.822 -1.02,-0.822 -0.277,0 -0.469,0.026 -0.566,0.054 z"
     id="path18"
     inkscape:connector-curvature="0"
     style="fill:#ffffff" />
  <path
     d="m 193.686,4.10265 a 3.893,3.893 0 0 1 -3.893,3.893 h -0.002 a 3.89,3.89 0 0 1 -3.894,-3.891 v -0.002 a 3.891,3.891 0 0 1 3.892,-3.893 v -0.002 h 0.004 v 0.002 c 1.074,0 2.047,0.436 2.752,1.14 a 3.873,3.873 0 0 1 1.14,2.75 h 0.002 v 0.003 z m -0.882,0 v -0.002 c 0,-0.83 -0.339,-1.581 -0.884,-2.125 v -0.002 a 2.992,2.992 0 0 0 -2.127,-0.882 h -0.004 c -0.829,0 -1.582,0.339 -2.127,0.884 a 2.993,2.993 0 0 0 -0.884,2.128 h 0.003 v 0.003 h -0.003 c 0.001,0.829 0.34,1.579 0.884,2.125 a 2.995,2.995 0 0 0 2.13,0.884 v -10e-4 h 0.001 c 0.83,0 1.582,-0.336 2.13,-0.881 h -0.003 a 3.01,3.01 0 0 0 0.883,-2.13 z"
     id="path20"
     inkscape:connector-curvature="0"
     style="fill:#ffffff" />
</svg>
