<?xml version="1.0" encoding="UTF-8" standalone="no"?>
<svg
   xmlns:dc="http://purl.org/dc/elements/1.1/"
   xmlns:cc="http://creativecommons.org/ns#"
   xmlns:rdf="http://www.w3.org/1999/02/22-rdf-syntax-ns#"
   xmlns:svg="http://www.w3.org/2000/svg"
   xmlns="http://www.w3.org/2000/svg"
   id="svg8"
   version="1.1"
   viewBox="0 0 317.46927 92.901451"
   height="92.901451mm"
   width="317.46927mm">
  <defs
     id="defs2" />
  <metadata
     id="metadata5">
    <rdf:RDF>
      <cc:Work
         rdf:about="">
        <dc:format>image/svg+xml</dc:format>
        <dc:type
           rdf:resource="http://purl.org/dc/dcmitype/StillImage" />
        <dc:title></dc:title>
      </cc:Work>
    </rdf:RDF>
  </metadata>
  <g
     transform="translate(43.845793,-111.63638)"
     id="layer1">
    <path
       id="path37"
       d="m -4.6869054,204.45517 c -0.485069,-0.0914 -2.145516,-0.41457 -3.689882,-0.71806 -13.0030556,-2.55528 -23.4566446,-10.71521 -29.3005286,-22.87159 -2.89659,-6.02545 -4.443503,-11.38178 -6.000185,-20.77617 l -0.168292,-1.01563 1.723539,0.22864 c 2.297153,0.30473 6.555049,1.4248 10.447849,2.7484 18.487101,6.2858 30.4494286,19.51422 32.7165826,36.1793 0.21741,1.5981 0.435878,2.86505 0.48549,2.81544 0.04961,-0.0496 0.344067,-1.66785 0.654349,-3.59609 2.25436,-14.00953 10.9463814,-25.18928 25.0574674,-32.2291 5.26391,-2.62609 13.083787,-5.19915 17.921291,-5.89683 l 1.693514,-0.24424 -0.227923,1.89481 c -0.125356,1.04215 -0.619799,3.6906 -1.098762,5.88546 -3.793088,17.38189 -12.948708,29.36219 -26.483366,34.65397 -5.89365,2.30431 -8.816453,2.83837 -16.3228094,2.98257 -3.58951398,0.069 -6.923264,0.0506 -7.408334,-0.0409 z m 62.7552904,-0.22311 c -0.15312,-0.34488 -0.20429,-82.0947 -0.05427,-86.69566 l 0.189812,-5.82136 33.818471,-0.0208 33.818482,-0.0208 v 8.22346 8.22346 H 101.32282 76.804758 v 9.87777 9.87778 h 24.518062 24.51806 v 7.9375 7.9375 H 101.32282 76.804758 v 11.99445 11.99445 h 24.518062 24.51806 v 8.29028 8.29027 H 91.974208 c -18.62667,0 -33.884289,-0.0397 -33.905823,-0.0882 z m 72.599435,-0.14135 c -0.13245,-0.13245 -0.24083,-20.91322 -0.24083,-46.17948 v -45.93865 l 1.49931,-0.19702 c 2.71255,-0.35646 42.98568,0.0371 45.74083,0.44698 11.54541,1.71763 19.91328,8.709 22.40562,18.71993 2.18633,8.78177 1.15032,20.69957 -2.37466,27.31714 -2.45134,4.60198 -7.30103,8.4707 -13.08446,10.4378 -5.39699,1.83565 -8.47057,2.17903 -20.31997,2.27012 -5.91785,0.0455 -11.59159,0.10722 -12.60832,0.13717 l -1.84859,0.0544 -0.0917,16.49236 -0.0917,16.49237 -9.37237,0.0938 c -5.1548,0.0516 -9.48074,-0.0145 -9.61319,-0.14699 z m 43.92753,-50.15462 c 2.65212,-1.06346 5.27516,-3.45251 6.23152,-5.67563 1.6574,-3.85274 1.69902,-10.31488 0.0898,-13.95267 -0.80555,-1.82109 -2.75107,-3.81857 -4.67539,-4.80029 -2.82671,-1.44208 -5.50386,-1.7274 -16.2692,-1.7339 l -10.14236,-0.006 v 13.60407 13.60407 l 11.37708,-0.11649 c 10.88694,-0.11146 11.46374,-0.15123 13.3885,-0.92303 z m 11.73262,49.7668 c 0.13067,-0.33955 1.24454,-3.47486 2.47526,-6.96736 2.08848,-5.9266 11.50473,-32.38764 17.82628,-50.09445 1.52395,-4.26861 4.06322,-11.41236 5.64282,-15.875 5.13971,-14.52051 6.0034,-16.91779 6.48104,-17.98897 l 0.4707,-1.05563 9.48827,-0.0521 c 11.67004,-0.0641 12.09263,-0.01 12.68279,1.63443 0.24373,0.67897 4.60129,12.98199 9.68346,27.34005 5.08218,14.35805 10.50518,29.67744 12.05111,34.04306 1.54593,4.36563 4.29552,12.14438 6.1102,17.28611 1.81468,5.14174 3.54335,10.0233 3.84149,10.84792 l 0.54208,1.4993 h -10.50326 -10.50326 l -0.56918,-1.85208 c -0.31305,-1.01864 -1.63733,-5.30489 -2.94284,-9.525 l -2.37366,-7.67292 h -17.05353 c -9.37944,0 -17.05352,0.0481 -17.05352,0.10691 0,0.14147 -5.86422,17.53006 -6.18027,18.32573 -0.22553,0.56779 -1.05259,0.61736 -10.29939,0.61736 -9.43072,0 -10.03943,-0.0383 -9.81659,-0.61736 z m 54.87125,-34.54525 c 0,-0.13069 -2.31929,-7.55225 -5.15396,-16.49237 -2.83468,-8.94011 -5.38548,-17.02446 -5.66845,-17.96523 -0.28296,-0.94077 -0.56553,-1.65515 -0.62792,-1.5875 -0.0935,0.10139 -10.85389,32.91187 -11.6388,35.48896 l -0.24176,0.79375 h 11.66545 c 6.41599,0 11.66544,-0.10693 11.66544,-0.23761 z m -246.0944404,1.47792 c -7.1418076,-1.5539 -13.8717066,-6.21061 -18.0902746,-12.51743 -1.916025,-2.86449 -4.262089,-7.90757 -3.863884,-8.30578 0.09665,-0.0967 0.717426,0.0985 1.379513,0.43357 0.845896,0.42814 2.305077,0.64688 4.907961,0.73573 3.522198,0.12022 3.803889,0.0757 5.73411,-0.90672 1.666745,-0.8483 2.100361,-0.9483 2.423521,-0.55892 1.670549,2.01289 11.67547962,1.97921 13.35538962,-0.045 0.31872698,-0.38404 0.68949298,-0.30264 2.02745198,0.44516 2.894295,1.61766 9.4362034,1.55837 11.8913884,-0.10776 l 1.257029,-0.85305 1.257028,0.85305 c 1.552416,1.05349 3.559806,1.37427 7.353864,1.17514 2.158305,-0.11329 3.262655,-0.35268 4.212671,-0.91321 0.708152,-0.41781 1.287547,-0.68927 1.287547,-0.60323 0,0.086 -0.389558,1.1914 -0.865685,2.45635 -2.742547,7.28628 -8.90132,13.80643 -15.951735,16.88772 -3.9126314,1.70997 -7.2004004,2.35079 -11.9022044,2.31988 -2.34580298,-0.0154 -5.231963,-0.23842 -6.413691,-0.49554 z M -28.091672,140.934 c -0.312481,-0.31248 0.02017,-3.18888 0.727132,-6.28736 2.443966,-10.71151 10.571318,-19.07635 21.6193016,-22.25104 3.482841,-1.00081 11.215526,-0.93503 14.921939,0.12694 12.1617714,3.48461 20.8718334,13.80553 21.9810584,26.04628 l 0.235987,2.60421 H 18.645088 c -7.011762,0 -12.7486594,-0.0842 -12.7486594,-0.18717 0,-0.10294 0.564977,-0.68322 1.255504,-1.28952 1.941298,-1.70448 2.775342,-3.59307 2.775342,-6.28442 0,-6.33124 -6.240403,-10.30568 -11.982764,-7.63169 -3.116743,1.45134 -4.811625,4.15717 -4.794896,7.65489 0.01273,2.66232 0.773268,4.38093 2.755618,6.22698 l 1.622485,1.51093 H -15.162463 c -6.9796,0 -12.797744,-0.10756 -12.929209,-0.23903 z"
       style="fill:#377bb4;stroke-width:0.35277778" />
  </g>
</svg>
