<?xml version="1.0" encoding="UTF-8" standalone="no"?>
<svg
   xmlns:dc="http://purl.org/dc/elements/1.1/"
   xmlns:cc="http://creativecommons.org/ns#"
   xmlns:rdf="http://www.w3.org/1999/02/22-rdf-syntax-ns#"
   xmlns:svg="http://www.w3.org/2000/svg"
   xmlns="http://www.w3.org/2000/svg"
   id="svg8"
   version="1.1"
   viewBox="0 0 338.64514 56.304577"
   height="56.304577mm"
   width="338.64514mm">
  <defs
     id="defs2" />
  <metadata
     id="metadata5">
    <rdf:RDF>
      <cc:Work
         rdf:about="">
        <dc:format>image/svg+xml</dc:format>
        <dc:type
           rdf:resource="http://purl.org/dc/dcmitype/StillImage" />
        <dc:title></dc:title>
      </cc:Work>
    </rdf:RDF>
  </metadata>
  <g
     transform="translate(37.778087,-103.16816)"
     id="layer1">
    <g
       transform="translate(-60.47619,-124.73214)"
       id="g21">
      <path
         id="path35"
         d="m 189.58105,284.04366 c 0.19099,-0.0764 0.4192,-0.067 0.50712,0.0209 0.0879,0.0879 -0.0684,0.15045 -0.34727,0.13896 -0.30823,-0.0127 -0.37092,-0.0754 -0.15985,-0.15985 z m 3.02617,-4.23498 c 0.25466,-0.0666 0.67138,-0.0666 0.92604,0 0.25466,0.0666 0.0463,0.121 -0.46302,0.121 -0.50932,0 -0.71768,-0.0545 -0.46302,-0.121 z m 46.96354,-6.07826 c 0.1819,-0.0734 0.47956,-0.0734 0.66146,0 0.1819,0.0734 0.0331,0.13346 -0.33073,0.13346 -0.3638,0 -0.51263,-0.0601 -0.33073,-0.13346 z M 30.301884,273.46033 c 0.190996,-0.0764 0.419199,-0.067 0.507118,0.0209 0.08792,0.0879 -0.06835,0.15046 -0.347265,0.13897 -0.308225,-0.0127 -0.37092,-0.0754 -0.159853,-0.15985 z m 34.660416,0 c 0.190995,-0.0764 0.419198,-0.067 0.507119,0.0209 0.08792,0.0879 -0.06835,0.15046 -0.347266,0.13897 -0.308226,-0.0127 -0.370919,-0.0754 -0.159853,-0.15985 z M 95.54,270.33378 c 5.29e-4,-1.74625 0.04334,-2.4262 0.09516,-1.51099 0.05181,0.91521 0.05139,2.34396 -0.0011,3.175 -0.05234,0.83104 -0.09473,0.0822 -0.09421,-1.66401 z m 6.02618,2.51354 c 0,-0.3638 0.0601,-0.51263 0.13346,-0.33073 0.0734,0.1819 0.0734,0.47956 0,0.66146 -0.0734,0.1819 -0.13346,0.0331 -0.13346,-0.33073 z m 102.37287,0.11024 c 0.0127,-0.30823 0.0754,-0.37092 0.15985,-0.15985 0.0764,0.19099 0.067,0.4192 -0.0209,0.50712 -0.0879,0.0879 -0.15045,-0.0684 -0.13896,-0.34727 z m 6.70714,-5.5342 c 1.9e-4,-3.34698 0.0381,-4.67972 0.0843,-2.96164 0.0462,1.71808 0.046,4.45652 -2.6e-4,6.08542 -0.0463,1.6289 -0.0841,0.2232 -0.0839,-3.12378 z m 17.40626,-2.96095 c -0.0315,-4.9755 0.0321,-9.1017 0.14123,-9.16932 0.10914,-0.0676 0.16813,2.57448 0.1311,5.87136 -0.12664,11.27311 -0.21512,12.34467 -0.27233,3.29796 z m 49.26511,4.15157 c 0,-2.69213 0.0393,-3.79346 0.0873,-2.44739 0.048,1.34607 0.048,3.54872 0,4.89479 -0.048,1.34607 -0.0873,0.24474 -0.0873,-2.4474 z m -114.56725,3.63802 -0.50403,-0.59531 0.59532,0.50403 c 0.55944,0.47366 0.71576,0.6866 0.50402,0.6866 -0.0502,0 -0.31809,-0.26789 -0.59531,-0.59532 z m 140.35283,-0.13229 c -0.32908,-0.41964 -0.31974,-0.429 0.0999,-0.0999 0.44072,0.34564 0.58089,0.56291 0.36311,0.56291 -0.0549,0 -0.26328,-0.20836 -0.46302,-0.46302 z m 43.44631,-0.74965 c 0.0127,-0.30823 0.0754,-0.37092 0.15986,-0.15985 0.0764,0.19099 0.067,0.4192 -0.0209,0.50712 -0.0879,0.0879 -0.15047,-0.0684 -0.13899,-0.34727 z m -109.80207,-0.79375 c 0.0127,-0.30823 0.0754,-0.37092 0.15985,-0.15985 0.0764,0.19099 0.067,0.4192 -0.0209,0.50712 -0.0879,0.0879 -0.15045,-0.0684 -0.13896,-0.34727 z M 72.502229,269.27544 c 0.0016,-0.87312 0.05088,-1.19841 0.109765,-0.72286 0.05889,0.47555 0.05767,1.18992 -0.0027,1.5875 -0.06037,0.39757 -0.10855,0.008 -0.107066,-0.86464 z m 78.805621,-0.39687 c 0,-0.3638 0.06,-0.51263 0.13345,-0.33073 0.0734,0.1819 0.0734,0.47956 0,0.66146 -0.0734,0.1819 -0.13345,0.0331 -0.13345,-0.33073 z m -50.02714,-0.15434 c 0.0127,-0.30823 0.0754,-0.37092 0.15985,-0.15986 0.0764,0.191 0.067,0.4192 -0.0209,0.50712 -0.0879,0.0879 -0.15045,-0.0684 -0.13897,-0.34726 z m 35.53225,-3.15295 c 5.3e-4,-1.60073 0.0442,-2.22146 0.0968,-1.37941 0.0527,0.84206 0.0522,2.15175 -0.001,2.91042 -0.0533,0.75867 -0.0964,0.0697 -0.0958,-1.53101 z m 219.26149,2.3592 c 0.0127,-0.30823 0.0754,-0.37092 0.15986,-0.15986 0.0764,0.191 0.067,0.4192 -0.0209,0.50712 -0.0879,0.0879 -0.15047,-0.0684 -0.13899,-0.34726 z m -151.84013,-0.7717 c 0.005,-0.43657 0.0647,-0.58313 0.13177,-0.3257 0.0671,0.25743 0.0627,0.61462 -0.01,0.79375 -0.0725,0.17913 -0.12736,-0.0315 -0.12197,-0.46805 z m 137.31873,0 c 0.005,-0.43657 0.0647,-0.58313 0.13179,-0.3257 0.0671,0.25743 0.0627,0.61462 -0.01,0.79375 -0.0725,0.17913 -0.12734,-0.0315 -0.12197,-0.46805 z m -99.47351,-0.66146 c 0,-0.50933 0.0545,-0.71769 0.121,-0.46302 0.0666,0.25466 0.0666,0.67138 0,0.92604 -0.0665,0.25466 -0.121,0.0463 -0.121,-0.46302 z m 23.772,-0.15434 c 0.0127,-0.30823 0.0754,-0.37092 0.15986,-0.15986 0.0764,0.191 0.067,0.4192 -0.0209,0.50712 -0.0879,0.0879 -0.15045,-0.0684 -0.13897,-0.34726 z m -85.19583,-0.26459 c 0.0127,-0.30822 0.0754,-0.37091 0.15985,-0.15985 0.0764,0.191 0.067,0.4192 -0.0209,0.50712 -0.0879,0.0879 -0.15045,-0.0684 -0.13897,-0.34727 z m -24.02591,-1.43316 c 0,-0.65484 0.0516,-0.92273 0.11467,-0.59531 0.0631,0.32742 0.0631,0.8632 0,1.19063 -0.0631,0.32742 -0.11467,0.0595 -0.11467,-0.59532 z m 175.72155,-3.83645 c 2.6e-4,-2.7649 0.0395,-3.86005 0.0871,-2.43366 0.0477,1.42639 0.0475,3.68858 0,5.02709 -0.0479,1.3385 -0.0869,0.17146 -0.0867,-2.59343 z m -11.44558,3.57187 c 0,-0.3638 0.0601,-0.51263 0.13345,-0.33073 0.0734,0.1819 0.0734,0.47956 0,0.66146 -0.0734,0.1819 -0.13345,0.0331 -0.13345,-0.33073 z m -121.93902,-1.19062 c 0.002,-0.72761 0.0534,-0.99386 0.11418,-0.59168 0.0608,0.40218 0.0592,0.9975 -0.004,1.32292 -0.0628,0.32542 -0.11255,-0.004 -0.11057,-0.73124 z m -71.41779,-1.45521 c 0,-1.38245 0.0446,-1.948 0.0991,-1.25677 0.0545,0.69122 0.0545,1.82231 0,2.51354 -0.0545,0.69122 -0.0991,0.12567 -0.0991,-1.25677 z m 173.51306,1.32291 c 0,-0.3638 0.0601,-0.51263 0.13345,-0.33073 0.0734,0.18191 0.0734,0.47956 0,0.66146 -0.0734,0.1819 -0.13345,0.0331 -0.13345,-0.33073 z M 22.699465,262.90339 c 0.0127,-0.30822 0.07539,-0.37092 0.159853,-0.15985 0.07643,0.191 0.06703,0.4192 -0.02089,0.50712 -0.08792,0.0879 -0.150452,-0.0684 -0.138964,-0.34727 z m 161.395835,0 c 0.0127,-0.30822 0.0754,-0.37092 0.15985,-0.15985 0.0764,0.191 0.067,0.4192 -0.0209,0.50712 -0.0879,0.0879 -0.15045,-0.0684 -0.13896,-0.34727 z m 5.82083,-0.26458 c 0.0127,-0.30823 0.0754,-0.37092 0.15985,-0.15985 0.0764,0.19099 0.067,0.4192 -0.0209,0.50712 -0.0879,0.0879 -0.15045,-0.0684 -0.13896,-0.34727 z m 116.44734,-0.24253 c 0.005,-0.43657 0.0647,-0.58313 0.13179,-0.3257 0.0671,0.25743 0.0627,0.61462 -0.01,0.79375 -0.0725,0.17913 -0.12734,-0.0315 -0.12197,-0.46805 z m -136.36159,0.21613 c 0.191,-0.0764 0.4192,-0.067 0.50712,0.0209 0.0879,0.0879 -0.0683,0.15045 -0.34727,0.13896 -0.30822,-0.0127 -0.37091,-0.0754 -0.15985,-0.15985 z m 3.43958,0 c 0.191,-0.0764 0.41921,-0.067 0.50712,0.0209 0.0879,0.0879 -0.0683,0.15045 -0.34726,0.13896 -0.30823,-0.0127 -0.37092,-0.0754 -0.15986,-0.15985 z m 6.97056,-0.34843 c 0,-0.3638 0.06,-0.51263 0.13345,-0.33073 0.0734,0.18191 0.0734,0.47956 0,0.66146 -0.0734,0.1819 -0.13345,0.0331 -0.13345,-0.33073 z m 75.29832,0.35394 c 0.1819,-0.0734 0.47956,-0.0734 0.66146,0 0.1819,0.0734 0.0331,0.13346 -0.33073,0.13346 -0.3638,0 -0.51263,-0.0601 -0.33073,-0.13346 z m 3.19154,-0.006 c 0.19099,-0.0764 0.4192,-0.067 0.50712,0.0209 0.0879,0.0879 -0.0684,0.15046 -0.34727,0.13897 -0.30822,-0.0127 -0.37092,-0.0754 -0.15985,-0.15985 z m 96.92888,-0.34844 c 0,-0.3638 0.0601,-0.51263 0.13346,-0.33073 0.0734,0.18191 0.0734,0.47956 0,0.66146 -0.0734,0.1819 -0.13346,0.0331 -0.13346,-0.33073 z M 28.276603,261.47023 c 0,-0.3638 0.06005,-0.51263 0.133452,-0.33073 0.0734,0.18191 0.0734,0.47956 0,0.66146 -0.0734,0.1819 -0.133452,0.0331 -0.133452,-0.33073 z M 204.4989,261.33794 c 0.005,-0.43656 0.0647,-0.58312 0.13178,-0.32569 0.0671,0.25743 0.0627,0.61462 -0.01,0.79375 -0.0725,0.17913 -0.12736,-0.0315 -0.12197,-0.46806 z m -82.26132,-0.79375 c 0.002,-0.7276 0.0534,-0.99385 0.11419,-0.59167 0.0608,0.40218 0.0592,0.99749 -0.004,1.32291 -0.0628,0.32543 -0.11256,-0.004 -0.11057,-0.73124 z m 204.77321,-0.13229 c 0,-0.50932 0.0545,-0.71768 0.12099,-0.46302 0.0666,0.25466 0.0666,0.67138 0,0.92604 -0.0665,0.25466 -0.12099,0.0463 -0.12099,-0.46302 z m -90.50711,-0.26458 c 0,-0.36381 0.0601,-0.51263 0.13345,-0.33073 0.0734,0.1819 0.0734,0.47956 0,0.66146 -0.0734,0.1819 -0.13345,0.0331 -0.13345,-0.33073 z m 5.29167,0 c 0,-0.36381 0.06,-0.51263 0.13345,-0.33073 0.0734,0.1819 0.0734,0.47956 0,0.66146 -0.0734,0.1819 -0.13345,0.0331 -0.13345,-0.33073 z m 99.50294,-0.26459 c 0,-0.50932 0.0544,-0.71768 0.12099,-0.46302 0.0666,0.25466 0.0666,0.67138 0,0.92604 -0.0665,0.25467 -0.12099,0.0463 -0.12099,-0.46302 z m -190.25502,-0.52916 c 0,-0.36381 0.06,-0.51263 0.13345,-0.33073 0.0734,0.1819 0.0734,0.47956 0,0.66146 -0.0734,0.1819 -0.13345,0.0331 -0.13345,-0.33073 z m 33.05203,-0.15434 c 0.0127,-0.30823 0.0754,-0.37092 0.15985,-0.15986 0.0764,0.191 0.067,0.4192 -0.0209,0.50712 -0.0879,0.0879 -0.15045,-0.0684 -0.13896,-0.34726 z m 87.87235,-0.50712 c 0.005,-0.43656 0.0647,-0.58313 0.13178,-0.3257 0.0671,0.25744 0.0627,0.61462 -0.01,0.79375 -0.0725,0.17914 -0.12736,-0.0315 -0.12197,-0.46805 z m -82.03063,-0.13229 c 0,-0.36381 0.0601,-0.51263 0.13345,-0.33073 0.0734,0.1819 0.0734,0.47956 0,0.66146 -0.0734,0.1819 -0.13345,0.0331 -0.13345,-0.33073 z m 75.68063,-0.13229 c 0.005,-0.43657 0.0647,-0.58313 0.13178,-0.3257 0.0671,0.25743 0.0627,0.61462 -0.01,0.79375 -0.0725,0.17913 -0.12736,-0.0315 -0.12197,-0.46805 z m 95.48388,0.24253 c 0.0127,-0.30823 0.0754,-0.37092 0.15986,-0.15985 0.0764,0.19099 0.067,0.4192 -0.0209,0.50712 -0.0879,0.0879 -0.15047,-0.0684 -0.13899,-0.34727 z m -219.07498,-0.26458 c 0.0127,-0.30823 0.0754,-0.37092 0.15985,-0.15986 0.0764,0.191 0.067,0.4192 -0.0209,0.50712 -0.0879,0.0879 -0.15045,-0.0684 -0.13896,-0.34726 z m 14.30838,-0.63941 c 0,-0.36381 0.0601,-0.51263 0.13346,-0.33073 0.0734,0.1819 0.0734,0.47956 0,0.66146 -0.0734,0.1819 -0.13346,0.0331 -0.13346,-0.33073 z m 14.17958,0.34244 c 0.32742,-0.0631 0.8632,-0.0631 1.19063,0 0.32742,0.0631 0.0595,0.11466 -0.59532,0.11466 -0.65484,0 -0.92273,-0.0516 -0.59531,-0.11466 z m 9.63292,-0.34244 c 0,-0.36381 0.0601,-0.51263 0.13346,-0.33073 0.0734,0.1819 0.0734,0.47956 0,0.66146 -0.0734,0.1819 -0.13346,0.0331 -0.13346,-0.33073 z m 18.79522,-0.13229 c 0.005,-0.43657 0.0647,-0.58313 0.13178,-0.3257 0.0671,0.25743 0.0627,0.61462 -0.01,0.79375 -0.0725,0.17913 -0.12736,-0.0315 -0.12197,-0.46805 z m 156.60263,-0.022 c 0.0127,-0.30823 0.0754,-0.37092 0.15986,-0.15986 0.0764,0.191 0.0671,0.4192 -0.0209,0.50712 -0.0879,0.0879 -0.15047,-0.0684 -0.13899,-0.34726 z m -279.420871,0.0715 c 0,-0.0455 0.386953,-0.43249 0.859896,-0.8599 l 0.859896,-0.7771 -0.777105,0.85989 c -0.724371,0.80155 -0.942687,0.98151 -0.942687,0.77711 z M 221.9614,256.84003 c 0.005,-0.43657 0.0647,-0.58313 0.13178,-0.3257 0.0671,0.25743 0.0627,0.61462 -0.01,0.79375 -0.0725,0.17913 -0.12736,-0.0315 -0.12197,-0.46805 z m -17.2286,-0.022 c 0.0127,-0.30823 0.0754,-0.37092 0.15985,-0.15986 0.0764,0.191 0.067,0.4192 -0.0209,0.50712 -0.0879,0.0879 -0.15045,-0.0684 -0.13896,-0.34726 z m 115.93333,-0.77171 c 0.003,-0.58209 0.0571,-0.78906 0.12041,-0.45994 0.0633,0.32912 0.0609,0.80537 -0.005,1.05833 -0.0662,0.25297 -0.118,-0.0163 -0.11506,-0.59839 z m -292.389527,0.13229 c 0,-0.36381 0.06005,-0.51263 0.133452,-0.33073 0.0734,0.1819 0.0734,0.47956 0,0.66146 -0.0734,0.1819 -0.133452,0.0331 -0.133452,-0.33073 z M 216.4203,255.25253 c 0.003,-0.58209 0.0571,-0.78906 0.1204,-0.45994 0.0633,0.32912 0.0609,0.80537 -0.005,1.05833 -0.0662,0.25297 -0.11801,-0.0163 -0.11507,-0.59839 z m 110.2854,0.50711 c 0.0127,-0.30822 0.0754,-0.37092 0.15986,-0.15985 0.0764,0.191 0.067,0.4192 -0.0209,0.50712 -0.0879,0.0879 -0.15047,-0.0684 -0.13899,-0.34727 z m -85.19582,-0.52916 c 0.0127,-0.30823 0.0754,-0.37092 0.15985,-0.15986 0.0764,0.191 0.067,0.4192 -0.0209,0.50712 -0.0879,0.0879 -0.15045,-0.0684 -0.13896,-0.34726 z m 53.74109,-0.50712 c 0.005,-0.43656 0.0647,-0.58313 0.13179,-0.3257 0.0671,0.25744 0.0627,0.61462 -0.01,0.79375 -0.0725,0.17914 -0.12734,-0.0315 -0.12197,-0.46805 z m -46.13867,-0.57762 c 0.19099,-0.0764 0.4192,-0.067 0.50712,0.0209 0.0879,0.0879 -0.0684,0.15045 -0.34727,0.13897 -0.30823,-0.0127 -0.37092,-0.0754 -0.15985,-0.15986 z m 33.3375,-0.26458 c 0.19099,-0.0764 0.4192,-0.067 0.50711,0.0209 0.0879,0.0879 -0.0684,0.15045 -0.34726,0.13896 -0.30823,-0.0127 -0.37092,-0.0754 -0.15985,-0.15985 z m -77.45242,-0.50277 c 0.0127,-0.30822 0.0754,-0.37092 0.15985,-0.15985 0.0764,0.191 0.067,0.4192 -0.0209,0.50712 -0.0879,0.0879 -0.15045,-0.0684 -0.13896,-0.34727 z m 101.07082,-1.32291 c 0.0127,-0.30823 0.0754,-0.37092 0.15986,-0.15986 0.0764,0.191 0.067,0.4192 -0.0209,0.50712 -0.0879,0.0879 -0.15047,-0.0683 -0.13899,-0.34726 z m -80.20387,-1.89618 -0.9118,-0.99219 0.99219,0.9118 c 0.92351,0.84868 1.11384,1.07257 0.9118,1.07257 -0.0442,0 -0.4907,-0.44648 -0.99219,-0.99218 z m 44.48513,0.57326 c 0.0127,-0.30822 0.0754,-0.37092 0.15985,-0.15985 0.0764,0.19099 0.067,0.4192 -0.0209,0.50712 -0.0879,0.0879 -0.15046,-0.0684 -0.13897,-0.34727 z m -6.66922,-0.30868 c -0.32911,-0.41964 -0.31975,-0.429 0.0999,-0.0999 0.25467,0.19972 0.46303,0.40808 0.46303,0.46303 0,0.21776 -0.21728,0.0776 -0.56292,-0.36313 z m -109.3966,-0.39688 -0.50402,-0.59531 0.59531,0.50403 c 0.55944,0.47366 0.71576,0.6866 0.50403,0.6866 -0.0502,0 -0.3181,-0.26789 -0.59532,-0.59532 z m 190.0945,-0.13229 c -0.32909,-0.41964 -0.31975,-0.429 0.0999,-0.0999 0.44072,0.34564 0.58089,0.56291 0.36311,0.56291 -0.0549,0 -0.26328,-0.20836 -0.46302,-0.46302 z M 134.93309,248.3223 c 0.25743,-0.0671 0.61462,-0.0627 0.79375,0.01 0.17913,0.0725 -0.0315,0.12736 -0.46806,0.12197 -0.43656,-0.005 -0.58312,-0.0647 -0.32569,-0.13177 z m 36.92087,0.003 c 0.191,-0.0764 0.41921,-0.067 0.50712,0.0209 0.0879,0.0879 -0.0683,0.15046 -0.34726,0.13897 -0.30823,-0.0127 -0.37092,-0.0754 -0.15986,-0.15985 z m 168.01042,0 c 0.191,-0.0764 0.4192,-0.067 0.50712,0.0209 0.0879,0.0879 -0.0684,0.15046 -0.34726,0.13897 -0.30824,-0.0127 -0.37092,-0.0754 -0.15986,-0.15985 z m 14.13867,-0.002 c 0.25466,-0.0666 0.67138,-0.0666 0.92604,0 0.25466,0.0665 0.0463,0.121 -0.46302,0.121 -0.50932,0 -0.71768,-0.0545 -0.46302,-0.121 z m -119.05746,-0.26557 c 0.25743,-0.0671 0.61462,-0.0627 0.79375,0.01 0.17913,0.0725 -0.0315,0.12736 -0.46806,0.12197 -0.43656,-0.005 -0.58312,-0.0647 -0.32569,-0.13178 z m 56.35624,-2.91041 c 0.25744,-0.0671 0.61463,-0.0627 0.79375,0.01 0.17915,0.0725 -0.0315,0.12736 -0.46805,0.12197 -0.43656,-0.005 -0.58312,-0.0647 -0.3257,-0.13177 z m -74.90648,-3.25623 c 0,-0.36381 0.06,-0.51263 0.13345,-0.33073 0.0734,0.1819 0.0734,0.47955 0,0.66146 -0.0734,0.1819 -0.13345,0.0331 -0.13345,-0.33073 z M 30.88066,235.67336 c 0.341774,-0.3638 0.680939,-0.66146 0.7537,-0.66146 0.07276,0 -0.147342,0.29766 -0.489117,0.66146 -0.341774,0.3638 -0.680939,0.66146 -0.753699,0.66146 -0.07276,0 0.147342,-0.29766 0.489116,-0.66146 z m 1.5875,-1.5875 c 0.341774,-0.3638 0.680939,-0.66146 0.7537,-0.66146 0.07276,0 -0.147342,0.29766 -0.489117,0.66146 -0.341774,0.3638 -0.680939,0.66146 -0.753699,0.66146 -0.07276,0 0.147342,-0.29766 0.489116,-0.66146 z"
         style="fill:#b1c7df;stroke-width:0.26458332" />
      <path
         id="path33"
         d="m 191.69771,279.81033 c 0.191,-0.0764 0.4192,-0.067 0.50712,0.0209 0.0879,0.0879 -0.0683,0.15046 -0.34726,0.13897 -0.30823,-0.0127 -0.37092,-0.0754 -0.15986,-0.15985 z m -23.28333,-5.82084 c 0.191,-0.0764 0.4192,-0.067 0.50712,0.0209 0.0879,0.0879 -0.0684,0.15045 -0.34727,0.13896 -0.30822,-0.0127 -0.37091,-0.0754 -0.15985,-0.15985 z m 121.86505,-4.71405 c 0,-2.32833 0.0408,-3.24541 0.0899,-2.03796 0.0491,1.20746 0.0489,3.11246 0,4.23334 -0.0495,1.12088 -0.0897,0.13296 -0.0893,-2.19538 z m -86.34038,2.88837 c 0.0127,-0.30823 0.0754,-0.37092 0.15985,-0.15985 0.0764,0.19099 0.067,0.4192 -0.0209,0.50712 -0.0879,0.0879 -0.15045,-0.0684 -0.13896,-0.34727 z m -34.73092,-2.67223 c 0.191,-0.0764 0.4192,-0.067 0.50712,0.0209 0.0879,0.0879 -0.0684,0.15046 -0.34727,0.13897 -0.30822,-0.0127 -0.37091,-0.0754 -0.15985,-0.15985 z m -17.92117,-1.5611 c 0.0127,-0.30823 0.0754,-0.37092 0.15985,-0.15986 0.0764,0.191 0.067,0.4192 -0.0209,0.50712 -0.0879,0.0879 -0.15045,-0.0684 -0.13897,-0.34726 z m 90.75208,-0.26459 c 0.0127,-0.30822 0.0754,-0.37091 0.15986,-0.15985 0.0764,0.191 0.067,0.4192 -0.0209,0.50712 -0.0879,0.0879 -0.15045,-0.0684 -0.13896,-0.34727 z m -85.41992,-1.16857 c 0,-0.50933 0.0545,-0.71769 0.12101,-0.46302 0.0665,0.25466 0.0665,0.67138 0,0.92604 -0.0666,0.25466 -0.12101,0.0463 -0.12101,-0.46302 z m 47.58451,-0.41893 c 0.0127,-0.30822 0.0754,-0.37091 0.15985,-0.15985 0.0764,0.191 0.067,0.4192 -0.0209,0.50712 -0.0879,0.0879 -0.15045,-0.0684 -0.13896,-0.34727 z m 137.33964,-0.11024 c 0,-0.3638 0.0601,-0.51263 0.13345,-0.33073 0.0734,0.1819 0.0734,0.47956 0,0.66146 -0.0734,0.1819 -0.13345,0.0331 -0.13345,-0.33073 z m -64.25354,-3.57187 c 0.002,-0.87313 0.0509,-1.19842 0.10976,-0.72287 0.0589,0.47555 0.0577,1.18992 -0.003,1.5875 -0.0604,0.39758 -0.10855,0.008 -0.10706,-0.86463 z m -140.50368,-0.66146 c 0,-0.65485 0.0516,-0.92274 0.11467,-0.59532 0.0631,0.32743 0.0631,0.86321 0,1.19063 -0.0631,0.32742 -0.11467,0.0595 -0.11467,-0.59531 z m 47.30925,0.37482 c 0.0127,-0.30822 0.0754,-0.37092 0.15985,-0.15985 0.0764,0.191 0.067,0.4192 -0.0209,0.50712 -0.0879,0.0879 -0.15045,-0.0684 -0.13896,-0.34727 z m 116.96672,-0.11024 c 0,-0.3638 0.0601,-0.51263 0.13345,-0.33073 0.0734,0.1819 0.0734,0.47956 0,0.66146 -0.0734,0.1819 -0.13345,0.0331 -0.13345,-0.33073 z m 54.74784,-0.68351 c 0.0127,-0.30822 0.0754,-0.37092 0.15986,-0.15985 0.0764,0.191 0.067,0.4192 -0.0209,0.50712 -0.0879,0.0879 -0.15047,-0.0684 -0.13898,-0.34727 z m -145.18642,-1.83003 c 0.001,-1.16417 0.0475,-1.60751 0.10337,-0.9852 0.0559,0.62231 0.0551,1.57481 -0.002,2.11667 -0.0568,0.54186 -0.10258,0.0327 -0.10162,-1.13147 z m 31.15102,1.56545 c 0.0127,-0.30823 0.0754,-0.37092 0.15985,-0.15985 0.0764,0.19099 0.067,0.4192 -0.0209,0.50712 -0.0879,0.0879 -0.15046,-0.0684 -0.13897,-0.34727 z m 23.853,-1.16858 c 0,-0.50932 0.0545,-0.71768 0.121,-0.46302 0.0665,0.25466 0.0665,0.67138 0,0.92604 -0.0666,0.25467 -0.121,0.0463 -0.121,-0.46302 z m -81.53216,0.11025 c 0.0127,-0.30823 0.0754,-0.37092 0.15985,-0.15986 0.0764,0.191 0.067,0.4192 -0.0209,0.50712 -0.0879,0.0879 -0.15045,-0.0684 -0.13896,-0.34726 z m 32.34723,-1.96233 c 0,-1.09141 0.0467,-1.53789 0.10378,-0.99219 0.0571,0.54571 0.0571,1.43867 0,1.98438 -0.0571,0.5457 -0.10378,0.0992 -0.10378,-0.99219 z m 20.04026,1.16858 c 0.0127,-0.30823 0.0754,-0.37092 0.15986,-0.15986 0.0764,0.191 0.067,0.4192 -0.0209,0.50712 -0.0879,0.0879 -0.15045,-0.0684 -0.13896,-0.34726 z m 90.48749,0 c 0.0127,-0.30823 0.0754,-0.37092 0.15986,-0.15986 0.0764,0.191 0.067,0.4192 -0.0209,0.50712 -0.0879,0.0879 -0.15047,-0.0684 -0.13899,-0.34726 z m -199.49582,-0.26459 c 0.0127,-0.30822 0.0754,-0.37092 0.15985,-0.15985 0.0764,0.191 0.067,0.4192 -0.0209,0.50712 -0.0879,0.0879 -0.15045,-0.0684 -0.13897,-0.34727 z m 28.83959,-0.26458 c 0.0127,-0.30823 0.0754,-0.37092 0.15985,-0.15985 0.0764,0.19099 0.067,0.4192 -0.0209,0.50712 -0.0879,0.0879 -0.15045,-0.0684 -0.13896,-0.34727 z m 164.34674,-0.90399 c 0,-0.50933 0.0544,-0.71769 0.12099,-0.46302 0.0666,0.25466 0.0666,0.67138 0,0.92604 -0.0665,0.25466 -0.12099,0.0463 -0.12099,-0.46302 z m -148.2942,0.35394 c 0.18191,-0.0734 0.47956,-0.0734 0.66146,0 0.1819,0.0734 0.0331,0.13345 -0.33073,0.13345 -0.3638,0 -0.51263,-0.0601 -0.33073,-0.13345 z m 122.87459,-2.20603 c 0,-0.3638 0.0601,-0.51263 0.13346,-0.33073 0.0734,0.18191 0.0734,0.47956 0,0.66146 -0.0734,0.1819 -0.13346,0.0331 -0.13346,-0.33073 z M 84.0123,253.61658 c 0.190995,-0.0764 0.419198,-0.067 0.507119,0.0209 0.08792,0.0879 -0.06835,0.15045 -0.347266,0.13896 -0.308226,-0.0127 -0.370919,-0.0754 -0.159853,-0.15985 z m 191.45051,-3.06041 -0.50403,-0.59531 0.59531,0.50403 c 0.32742,0.27721 0.59532,0.5451 0.59532,0.59531 0,0.21173 -0.21294,0.0554 -0.6866,-0.50403 z m -62.06926,-11.22709 c 0.19099,-0.0764 0.4192,-0.067 0.50712,0.0209 0.0879,0.0879 -0.0684,0.15045 -0.34727,0.13896 -0.30823,-0.0127 -0.37092,-0.0754 -0.15985,-0.15985 z m 78.03864,-0.006 c 0.32911,-0.0633 0.80536,-0.0609 1.05833,0.005 0.25294,0.0662 -0.0164,0.118 -0.59841,0.11506 -0.58208,-0.003 -0.78906,-0.0571 -0.45992,-0.1204 z"
         style="fill:#91b2d2;stroke-width:0.26458332" />
      <path
         id="path31"
         d="m 201.14003,281.57857 c 0.26339,-0.29104 0.53842,-0.52917 0.61118,-0.52917 0.0728,0 -0.0832,0.23813 -0.34659,0.52917 -0.26339,0.29104 -0.53843,0.52916 -0.61119,0.52916 -0.0728,0 0.0832,-0.23812 0.3466,-0.52916 z m 52.47018,-7.58908 c 0.191,-0.0764 0.4192,-0.067 0.50712,0.0209 0.0879,0.0879 -0.0684,0.15045 -0.34726,0.13896 -0.30823,-0.0127 -0.37092,-0.0754 -0.15986,-0.15985 z m 53.975,0 c 0.191,-0.0764 0.41921,-0.067 0.50713,0.0209 0.0879,0.0879 -0.0684,0.15045 -0.34727,0.13896 -0.30824,-0.0127 -0.37092,-0.0754 -0.15986,-0.15985 z m 36.24792,-0.26458 c 0.191,-0.0764 0.4192,-0.067 0.50712,0.0209 0.0879,0.0879 -0.0684,0.15045 -0.34726,0.13896 -0.30824,-0.0127 -0.37092,-0.0754 -0.15986,-0.15985 z m -127.36428,-7.0953 c 1.5e-4,-3.78354 0.0373,-5.29456 0.0826,-3.35782 0.0453,1.93674 0.0451,5.03236 -2.6e-4,6.87917 -0.0454,1.8468 -0.0825,0.26219 -0.0823,-3.52135 z m 5.81716,1.45521 c 0,-2.98318 0.0386,-4.20357 0.0857,-2.71198 0.0472,1.49159 0.0472,3.93237 0,5.42396 -0.0472,1.49158 -0.0857,0.27119 -0.0857,-2.71198 z m -18.34696,3.28524 c 0.0127,-0.30823 0.0754,-0.37092 0.15985,-0.15985 0.0764,0.19099 0.067,0.4192 -0.0209,0.50712 -0.0879,0.0879 -0.15045,-0.0684 -0.13896,-0.34727 z m 142.6104,-1.05833 c 0.0127,-0.30823 0.0754,-0.37092 0.15986,-0.15986 0.0764,0.191 0.067,0.4192 -0.0209,0.50712 -0.0879,0.0879 -0.15047,-0.0684 -0.13899,-0.34726 z m -204.78749,-0.26459 c 0.0127,-0.30822 0.0754,-0.37091 0.15985,-0.15985 0.0764,0.191 0.067,0.4192 -0.0209,0.50712 -0.0879,0.0879 -0.15045,-0.0684 -0.13897,-0.34727 z m 100.27708,-1.5875 c 0.0127,-0.30822 0.0754,-0.37091 0.15986,-0.15985 0.0764,0.191 0.067,0.4192 -0.0209,0.50712 -0.0879,0.0879 -0.15045,-0.0684 -0.13896,-0.34727 z m -85.42972,-0.50711 c 0.005,-0.43657 0.0647,-0.58313 0.13177,-0.3257 0.0671,0.25743 0.0627,0.61462 -0.01,0.79375 -0.0725,0.17913 -0.12736,-0.0315 -0.12197,-0.46805 z m -5.26126,-1.85209 c 0.002,-0.87312 0.0509,-1.19841 0.10977,-0.72286 0.0589,0.47555 0.0577,1.18992 -0.003,1.5875 -0.0604,0.39757 -0.10855,0.008 -0.10707,-0.86464 z m 204.72639,0.50712 c 0.0127,-0.30823 0.0754,-0.37092 0.15986,-0.15985 0.0764,0.19099 0.067,0.4192 -0.0209,0.50712 -0.0879,0.0879 -0.15047,-0.0684 -0.13899,-0.34727 z m -14.53118,-1.69774 c 0,-0.3638 0.0601,-0.51263 0.13345,-0.33073 0.0734,0.1819 0.0734,0.47956 0,0.66146 -0.0734,0.1819 -0.13345,0.0331 -0.13345,-0.33073 z m -51.282,-1.5875 c 0,-1.09141 0.0467,-1.53789 0.1038,-0.99219 0.0571,0.5457 0.0571,1.43867 0,1.98437 -0.0571,0.54571 -0.1038,0.0992 -0.1038,-0.99218 z m -24.64362,-1.98438 c 0.005,-0.43656 0.0647,-0.58312 0.13178,-0.32569 0.0671,0.25743 0.0627,0.61462 -0.01,0.79375 -0.0725,0.17913 -0.12736,-0.0315 -0.12197,-0.46806 z m -81.49166,-0.26458 c 0.005,-0.43656 0.0647,-0.58313 0.13177,-0.3257 0.0671,0.25744 0.0627,0.61462 -0.01,0.79375 -0.0725,0.17914 -0.12736,-0.0315 -0.12197,-0.46805 z m 116.93603,-0.13229 c 0,-0.36381 0.0601,-0.51263 0.13345,-0.33073 0.0734,0.1819 0.0734,0.47956 0,0.66146 -0.0734,0.1819 -0.13345,0.0331 -0.13345,-0.33073 z m -23.83339,-0.41893 c 0.0127,-0.30822 0.0754,-0.37092 0.15985,-0.15985 0.0764,0.191 0.067,0.4192 -0.0209,0.50712 -0.0879,0.0879 -0.15045,-0.0684 -0.13896,-0.34727 z m 78.58123,0 c 0.0127,-0.30822 0.0754,-0.37092 0.15986,-0.15985 0.0764,0.191 0.067,0.4192 -0.0209,0.50712 -0.0879,0.0879 -0.15047,-0.0684 -0.13898,-0.34727 z m -219.07498,-0.26458 c 0.0127,-0.30823 0.0754,-0.37092 0.15985,-0.15985 0.0764,0.19099 0.067,0.4192 -0.0209,0.50712 -0.0879,0.0879 -0.15046,-0.0684 -0.13897,-0.34727 z m 183.93125,-0.7717 c 0.003,-0.58208 0.0571,-0.78905 0.12041,-0.45994 0.0633,0.32912 0.0609,0.80537 -0.005,1.05834 -0.0662,0.25296 -0.118,-0.0163 -0.11506,-0.5984 z m -164.35208,-0.022 c 0.0127,-0.30823 0.0754,-0.37092 0.15985,-0.15985 0.0764,0.19099 0.067,0.41919 -0.0209,0.50711 -0.0879,0.0879 -0.15045,-0.0684 -0.13896,-0.34726 z m 138.97216,-1.30088 c 0,-1.01864 0.049,-1.40294 0.10629,-0.85399 0.0573,0.54895 0.0563,1.38238 -0.003,1.85208 -0.0584,0.4697 -0.1053,0.0206 -0.10414,-0.99809 z m -173.10341,0.24254 c 0.0127,-0.30823 0.0754,-0.37092 0.15985,-0.15986 0.0764,0.191 0.067,0.4192 -0.0209,0.50712 -0.0879,0.0879 -0.15045,-0.0684 -0.13896,-0.34726 z m 88.37083,-1.32292 c 0.0127,-0.30823 0.0754,-0.37092 0.15985,-0.15985 0.0764,0.19099 0.067,0.4192 -0.0209,0.50712 -0.0879,0.0879 -0.15045,-0.0684 -0.13896,-0.34727 z m 30.95625,-0.79375 c 0.0127,-0.30823 0.0754,-0.37092 0.15985,-0.15985 0.0764,0.19099 0.067,0.4192 -0.0209,0.50712 -0.0879,0.0879 -0.15045,-0.0684 -0.13896,-0.34727 z m 64.60951,-2.22691 c 0,-0.65484 0.0516,-0.92273 0.11465,-0.59531 0.0631,0.32742 0.0631,0.8632 0,1.19062 -0.063,0.32742 -0.11465,0.0595 -0.11465,-0.59531 z m -94.59446,-5.20231 c 0.1819,-0.0734 0.47955,-0.0734 0.66146,0 0.1819,0.0734 0.0331,0.13345 -0.33073,0.13345 -0.36381,0 -0.51263,-0.0601 -0.33073,-0.13345 z m 45.24683,-0.54107 c 0.32912,-0.0633 0.80537,-0.0609 1.05833,0.005 0.25297,0.0662 -0.0163,0.118 -0.59839,0.11507 -0.58209,-0.003 -0.78906,-0.0571 -0.45994,-0.12041 z m 26.71983,0.0119 c 0.1819,-0.0734 0.47956,-0.0734 0.66146,0 0.1819,0.0734 0.0331,0.13345 -0.33073,0.13345 -0.3638,0 -0.51263,-0.06 -0.33073,-0.13345 z m -199.3585,-0.27271 c 0.257432,-0.0671 0.614619,-0.0627 0.79375,0.01 0.179131,0.0725 -0.03149,0.12736 -0.468056,0.12197 -0.436562,-0.005 -0.583126,-0.0647 -0.325694,-0.13178 z m 28.31504,-8.74371 c 0.84206,-0.0527 2.15175,-0.0522 2.91042,0.001 0.75867,0.0533 0.0697,0.0964 -1.53102,0.0958 -1.60073,-6e-4 -2.22146,-0.0442 -1.3794,-0.0968 z"
         style="fill:#719bc5;stroke-width:0.26458332" />
      <path
         id="path29"
         d="m 295.31468,266.62961 c 1.6e-4,-3.78354 0.0373,-5.29456 0.0826,-3.35782 0.0453,1.93674 0.0451,5.03236 0,6.87917 -0.0454,1.8468 -0.0825,0.26219 -0.0823,-3.52135 z m -33.48652,5.4901 c -0.32911,-0.41964 -0.31975,-0.429 0.0999,-0.0999 0.44073,0.34564 0.58089,0.56291 0.36313,0.56291 -0.0549,0 -0.2633,-0.20836 -0.46302,-0.46302 z m -105.19475,-2.3151 c 0.002,-0.72761 0.0534,-0.99386 0.11419,-0.59168 0.0608,0.40219 0.0592,0.9975 -0.004,1.32292 -0.0628,0.32542 -0.11256,-0.004 -0.11057,-0.73124 z m -34.18603,0.50712 c 0.0127,-0.30823 0.0754,-0.37092 0.15985,-0.15986 0.0764,0.191 0.067,0.4192 -0.0209,0.50712 -0.0879,0.0879 -0.15046,-0.0684 -0.13897,-0.34726 z m 19.33547,-1.16858 c 0,-0.3638 0.06,-0.51263 0.13345,-0.33073 0.0734,0.1819 0.0734,0.47956 0,0.66146 -0.0734,0.1819 -0.13345,0.0331 -0.13345,-0.33073 z m 94.96453,-0.41892 c 0.0127,-0.30823 0.0754,-0.37092 0.15985,-0.15986 0.0764,0.191 0.067,0.4192 -0.0209,0.50712 -0.0879,0.0879 -0.15045,-0.0684 -0.13896,-0.34726 z m -85.42973,-4.74045 c 0.005,-0.43657 0.0647,-0.58313 0.13178,-0.3257 0.0671,0.25743 0.0627,0.61462 -0.01,0.79375 -0.0725,0.17913 -0.12736,-0.0315 -0.12197,-0.46805 z m 190.20471,-0.022 c 0.0127,-0.30823 0.0754,-0.37092 0.15986,-0.15986 0.0764,0.191 0.0671,0.4192 -0.0209,0.50712 -0.0879,0.0879 -0.15047,-0.0684 -0.13898,-0.34726 z m -75.90471,-1.30088 c 0.005,-0.43656 0.0647,-0.58313 0.13178,-0.3257 0.0671,0.25744 0.0627,0.61462 -0.01,0.79375 -0.0725,0.17914 -0.12736,-0.0315 -0.12197,-0.46805 z m -43.37652,-0.79375 c 0.003,-0.58208 0.0571,-0.78905 0.12041,-0.45994 0.0633,0.32912 0.0609,0.80537 -0.005,1.05834 -0.0662,0.25296 -0.118,-0.0163 -0.11507,-0.5984 z m 19.53333,0.50712 c 0.0127,-0.30823 0.0754,-0.37092 0.15985,-0.15986 0.0764,0.191 0.067,0.4192 -0.0209,0.50712 -0.0879,0.0879 -0.15046,-0.0684 -0.13897,-0.34726 z m 48.43964,-1.43316 c 0,-0.36381 0.0601,-0.51263 0.13346,-0.33073 0.0734,0.1819 0.0734,0.47956 0,0.66146 -0.0734,0.1819 -0.13346,0.0331 -0.13346,-0.33073 z m 30.42708,0 c 0,-0.36381 0.0601,-0.51263 0.13346,-0.33073 0.0734,0.1819 0.0734,0.47956 0,0.66146 -0.0734,0.1819 -0.13346,0.0331 -0.13346,-0.33073 z m -19.60007,-0.94809 c 0.0127,-0.30823 0.0754,-0.37092 0.15987,-0.15986 0.0764,0.191 0.067,0.4192 -0.0209,0.50712 -0.0879,0.0879 -0.15047,-0.0684 -0.13898,-0.34726 z m -40.48123,-2.91042 c 0.0127,-0.30823 0.0754,-0.37092 0.15985,-0.15985 0.0764,0.19099 0.067,0.4192 -0.0209,0.50712 -0.0879,0.0879 -0.15045,-0.0684 -0.13896,-0.34727 z m 45.55951,-0.90399 c 0,-0.65485 0.0516,-0.92274 0.11465,-0.59532 0.0631,0.32743 0.0631,0.86321 0,1.19063 -0.063,0.32742 -0.11465,0.0595 -0.11465,-0.59531 z m -95.56576,0.11024 c 0.0127,-0.30823 0.0754,-0.37092 0.15985,-0.15985 0.0764,0.19099 0.067,0.4192 -0.0209,0.50712 -0.0879,0.0879 -0.15045,-0.0684 -0.13896,-0.34727 z m -115.801234,-3.61597 -0.504029,-0.59531 0.595313,0.50402 c 0.559445,0.47367 0.715761,0.6866 0.504028,0.6866 -0.05021,0 -0.318098,-0.26789 -0.595312,-0.59531 z M 58.892743,237.98846 c -0.329108,-0.41964 -0.319749,-0.429 0.0999,-0.0999 0.440729,0.34564 0.580887,0.56291 0.363125,0.56291 -0.05494,0 -0.263301,-0.20836 -0.463021,-0.46302 z"
         style="fill:#5487ba;stroke-width:0.26458332" />
      <path
         id="path27"
         d="m 191.69771,284.04366 c 0.191,-0.0764 0.4192,-0.067 0.50712,0.0209 0.0879,0.0879 -0.0683,0.15045 -0.34726,0.13896 -0.30823,-0.0127 -0.37092,-0.0754 -0.15986,-0.15985 z m 1.17913,-0.003 c 0.25743,-0.0671 0.61462,-0.0627 0.79375,0.01 0.17913,0.0725 -0.0315,0.12736 -0.46806,0.12197 -0.43656,-0.005 -0.58312,-0.0647 -0.32569,-0.13177 z m -81.96732,-27.59787 c 0,-9.38609 0.0331,-13.22586 0.0736,-8.53281 0.0405,4.69304 0.0405,12.37258 0,17.06562 -0.0405,4.69305 -0.0736,0.85328 -0.0736,-8.53281 z m 155.73577,14.92691 c 0.0127,-0.30823 0.0754,-0.37092 0.15986,-0.15985 0.0764,0.19099 0.067,0.4192 -0.0209,0.50712 -0.0879,0.0879 -0.15045,-0.0684 -0.13897,-0.34727 z m -24.60625,-1.5875 c 0.0127,-0.30823 0.0754,-0.37092 0.15986,-0.15985 0.0764,0.19099 0.067,0.4192 -0.0209,0.50712 -0.0879,0.0879 -0.15045,-0.0684 -0.13896,-0.34727 z m 104.55091,-1.16858 c 0,-0.50932 0.0545,-0.71768 0.121,-0.46302 0.0666,0.25466 0.0666,0.67138 0,0.92604 -0.0665,0.25467 -0.121,0.0463 -0.121,-0.46302 z m -204.77681,-1.05833 c 0,-0.65484 0.0516,-0.92273 0.11466,-0.59531 0.0631,0.32742 0.0631,0.8632 0,1.19062 -0.0631,0.32742 -0.11466,0.0595 -0.11466,-0.59531 z m 94.98007,-0.13229 c 0.003,-0.58208 0.0571,-0.78905 0.12041,-0.45994 0.0633,0.32912 0.0609,0.80537 -0.005,1.05834 -0.0662,0.25296 -0.118,-0.0163 -0.11506,-0.5984 z m 78.88793,-5.68854 c 0,-2.54662 0.0397,-3.58841 0.0882,-2.31511 0.0485,1.27331 0.0485,3.3569 0,4.63021 -0.0485,1.27331 -0.0882,0.23151 -0.0882,-2.3151 z m -50.09418,1.96232 c 0.0127,-0.30822 0.0754,-0.37092 0.15985,-0.15985 0.0764,0.191 0.067,0.4192 -0.0209,0.50712 -0.0879,0.0879 -0.15046,-0.0684 -0.13897,-0.34727 z m -114.27911,-0.90399 c 0,-0.3638 0.06,-0.51263 0.13345,-0.33073 0.0734,0.1819 0.0734,0.47956 0,0.66146 -0.0734,0.1819 -0.13345,0.0331 -0.13345,-0.33073 z m 70.90833,-2.38125 c 0,-0.3638 0.0601,-0.51263 0.13345,-0.33073 0.0734,0.1819 0.0734,0.47956 0,0.66146 -0.0734,0.1819 -0.13345,0.0331 -0.13345,-0.33073 z m 67.97702,-0.41892 c 0.0127,-0.30823 0.0754,-0.37092 0.15986,-0.15986 0.0764,0.191 0.067,0.4192 -0.0209,0.50712 -0.0879,0.0879 -0.15047,-0.0684 -0.13899,-0.34726 z m 15.8959,-2.22691 c 0,-0.36381 0.0601,-0.51263 0.13345,-0.33073 0.0734,0.1819 0.0734,0.47956 0,0.66146 -0.0734,0.1819 -0.13345,0.0331 -0.13345,-0.33073 z m -165.68518,-7.07761 -0.9118,-0.99218 0.99218,0.91179 c 0.54571,0.50149 0.99219,0.94798 0.99219,0.99219 0,0.20204 -0.22389,0.0117 -1.07257,-0.9118 z m 131.72713,-2.09897 c 0.19099,-0.0764 0.4192,-0.067 0.50711,0.0209 0.0879,0.0879 -0.0684,0.15045 -0.34726,0.13897 -0.30823,-0.0127 -0.37092,-0.0754 -0.15985,-0.15986 z"
         style="fill:#447cb4;stroke-width:0.26458332" />
      <path
         id="path25"
         d="m 66.814383,273.46033 c 0.190995,-0.0764 0.419198,-0.067 0.507119,0.0209 0.08792,0.0879 -0.06835,0.15046 -0.347265,0.13897 -0.308227,-0.0127 -0.37092,-0.0754 -0.159854,-0.15985 z m 2.38125,0 c 0.190995,-0.0764 0.419198,-0.067 0.507119,0.0209 0.08792,0.0879 -0.06835,0.15046 -0.347265,0.13897 -0.308227,-0.0127 -0.37092,-0.0754 -0.159854,-0.15985 z m 203.096197,-5.24322 c -2.3e-4,-2.91042 0.0384,-4.13714 0.0859,-2.72605 0.0475,1.41108 0.0477,3.79233 5.3e-4,5.29166 -0.0472,1.49933 -0.0861,0.34481 -0.0863,-2.56561 z m 49.38678,3.41753 c 0.0127,-0.30822 0.0754,-0.37091 0.15986,-0.15985 0.0764,0.191 0.0671,0.4192 -0.0209,0.50712 -0.0879,0.0879 -0.15047,-0.0684 -0.13898,-0.34727 z m -79.59907,-0.63941 c 0,-0.50932 0.0545,-0.71768 0.121,-0.46302 0.0666,0.25466 0.0666,0.67138 0,0.92604 -0.0665,0.25467 -0.121,0.0463 -0.121,-0.46302 z m 89.91782,-1.21267 c 0.0127,-0.30823 0.0754,-0.37092 0.15986,-0.15985 0.0764,0.19099 0.067,0.4192 -0.0209,0.50712 -0.0879,0.0879 -0.15047,-0.0684 -0.13898,-0.34727 z m -204.76659,-0.37483 c 0,-0.3638 0.06,-0.51263 0.13345,-0.33073 0.0734,0.18191 0.0734,0.47956 0,0.66146 -0.0734,0.1819 -0.13345,0.0331 -0.13345,-0.33073 z m -4.73222,-0.79375 c 0,-0.65484 0.0516,-0.92273 0.11467,-0.59531 0.0631,0.32742 0.0631,0.8632 0,1.19063 -0.0631,0.32742 -0.11467,0.0595 -0.11467,-0.59532 z m 204.80013,-0.79375 c 0,-0.94588 0.048,-1.33283 0.10671,-0.85989 0.0587,0.47294 0.0587,1.24685 0,1.71979 -0.0587,0.47294 -0.10671,0.086 -0.10671,-0.8599 z m -129.46594,-0.0999 c 0,-0.0549 0.20836,-0.2633 0.46302,-0.46302 0.41965,-0.32911 0.429,-0.31975 0.0999,0.0999 -0.34565,0.44073 -0.56292,0.58089 -0.56292,0.36313 z m 148.80894,-5.72094 c 0,-3.27422 0.038,-4.61367 0.0844,-2.97656 0.0464,1.63711 0.0464,4.31601 0,5.95312 -0.0464,1.63711 -0.0844,0.29766 -0.0844,-2.97656 z m -100.3693,5.13733 c 0.0127,-0.30823 0.0754,-0.37092 0.15985,-0.15986 0.0764,0.191 0.067,0.4192 -0.0209,0.50712 -0.0879,0.0879 -0.15045,-0.0684 -0.13896,-0.34726 z m -104.43886,-2.75608 c 0,-1.23693 0.0456,-1.74294 0.10129,-1.12448 0.0557,0.61846 0.0557,1.6305 0,2.24896 -0.0557,0.61846 -0.10129,0.11245 -0.10129,-1.12448 z m 94.97496,0.66146 c 0.002,-0.87313 0.0509,-1.19842 0.10976,-0.72287 0.0589,0.47555 0.0577,1.18993 -0.003,1.5875 -0.0604,0.39758 -0.10855,0.008 -0.10706,-0.86463 z m 64.49722,-0.022 c 0.0127,-0.30823 0.0754,-0.37092 0.15986,-0.15985 0.0764,0.19099 0.067,0.41919 -0.0209,0.50711 -0.0879,0.0879 -0.15047,-0.0684 -0.13899,-0.34726 z m 54.78965,-0.11025 c 0,-0.3638 0.0601,-0.51263 0.13345,-0.33073 0.0734,0.1819 0.0734,0.47956 0,0.66146 -0.0734,0.1819 -0.13345,0.0331 -0.13345,-0.33073 z m -151.89172,-1.21268 c 0.0127,-0.30822 0.0754,-0.37092 0.15985,-0.15985 0.0764,0.191 0.067,0.4192 -0.0209,0.50712 -0.0879,0.0879 -0.15045,-0.0684 -0.13896,-0.34727 z m 37.59172,-0.11024 c 0,-0.3638 0.06,-0.51263 0.13345,-0.33073 0.0734,0.1819 0.0734,0.47956 0,0.66146 -0.0734,0.1819 -0.13345,0.0331 -0.13345,-0.33073 z m 99.74792,-0.79375 c 0,-0.3638 0.0601,-0.51263 0.13345,-0.33073 0.0734,0.1819 0.0734,0.47956 0,0.66146 -0.0734,0.1819 -0.13345,0.0331 -0.13345,-0.33073 z m -190.23542,-1.05833 c 0,-0.36381 0.06,-0.51263 0.13345,-0.33073 0.0734,0.1819 0.0734,0.47956 0,0.66146 -0.0734,0.1819 -0.13345,0.0331 -0.13345,-0.33073 z m 209.81458,0 c 0,-0.36381 0.0601,-0.51263 0.13346,-0.33073 0.0734,0.1819 0.0734,0.47956 0,0.66146 -0.0734,0.1819 -0.13346,0.0331 -0.13346,-0.33073 z m -204.7875,-0.52917 c 0,-0.3638 0.0601,-0.51263 0.13346,-0.33073 0.0734,0.1819 0.0734,0.47956 0,0.66146 -0.0734,0.1819 -0.13346,0.0331 -0.13346,-0.33073 z M 22.739961,260.14732 c 0,-0.50933 0.05445,-0.71769 0.121,-0.46302 0.06655,0.25466 0.06655,0.67138 0,0.92604 -0.06655,0.25466 -0.121,0.0463 -0.121,-0.46302 z m 44.43039,0 c 0,-0.36381 0.06006,-0.51263 0.133453,-0.33073 0.0734,0.1819 0.0734,0.47956 0,0.66146 -0.0734,0.1819 -0.133453,0.0331 -0.133453,-0.33073 z m 238.949039,-0.79375 c 0,-0.65485 0.0516,-0.92274 0.11465,-0.59532 0.0631,0.32743 0.0631,0.86321 0,1.19063 -0.063,0.32742 -0.11465,0.0595 -0.11465,-0.59531 z m -83.90321,0 c 0,-0.36381 0.0601,-0.51263 0.13345,-0.33073 0.0734,0.1819 0.0734,0.47956 0,0.66146 -0.0734,0.1819 -0.13345,0.0331 -0.13345,-0.33073 z m 67.97702,-0.15434 c 0.0127,-0.30823 0.0754,-0.37092 0.15986,-0.15986 0.0764,0.191 0.067,0.4192 -0.0209,0.50712 -0.0879,0.0879 -0.15047,-0.0684 -0.13899,-0.34726 z m -223.003241,-0.904 c 0,-0.50932 0.05445,-0.71768 0.121002,-0.46302 0.06655,0.25466 0.06655,0.67138 0,0.92604 -0.06655,0.25467 -0.121002,0.0463 -0.121002,-0.46302 z m 233.902351,-0.26458 c 0,-0.65484 0.0516,-0.92273 0.11464,-0.59531 0.0631,0.32742 0.0631,0.8632 0,1.19062 -0.0631,0.32742 -0.11464,0.0595 -0.11464,-0.59531 z m -59.58243,-0.15434 c 0.0127,-0.30823 0.0754,-0.37092 0.15985,-0.15985 0.0764,0.19099 0.067,0.4192 -0.0209,0.50712 -0.0879,0.0879 -0.15045,-0.0684 -0.13896,-0.34727 z m -66.41042,-0.79375 c 0.0127,-0.30823 0.0754,-0.37092 0.15985,-0.15985 0.0764,0.19099 0.067,0.4192 -0.0209,0.50712 -0.0879,0.0879 -0.15045,-0.0684 -0.13897,-0.34727 z m -84.178411,-0.57326 -0.641432,-0.72761 0.727604,0.64143 c 0.680056,0.59952 0.84894,0.81378 0.641432,0.81378 -0.04739,0 -0.374814,-0.32742 -0.727604,-0.7276 z m 224.693051,0.19843 c 0,-0.3638 0.0601,-0.51263 0.13345,-0.33073 0.0734,0.18191 0.0734,0.47956 0,0.66146 -0.0734,0.1819 -0.13345,0.0331 -0.13345,-0.33073 z M 22.730157,256.31086 c 0.0054,-0.43656 0.06469,-0.58313 0.131774,-0.3257 0.06708,0.25744 0.06267,0.61462 -0.0098,0.79375 -0.07248,0.17914 -0.127362,-0.0315 -0.12197,-0.46805 z m 236.187583,-2.71198 c -0.32911,-0.41964 -0.31975,-0.429 0.0999,-0.0999 0.25467,0.19972 0.46303,0.40808 0.46303,0.46303 0,0.21776 -0.21728,0.0776 -0.56292,-0.36313 z m 61.46865,-1.25677 c 0.005,-0.43656 0.0647,-0.58313 0.13179,-0.32569 0.0671,0.25743 0.0627,0.61461 -0.01,0.79375 -0.0725,0.17913 -0.12737,-0.0315 -0.122,-0.46806 z m -198.99734,-1.08038 c 0.0127,-0.30823 0.0754,-0.37092 0.15985,-0.15986 0.0764,0.191 0.067,0.4192 -0.0209,0.50712 -0.0879,0.0879 -0.15045,-0.0684 -0.13896,-0.34726 z m 65.99265,-0.37483 c 0.26339,-0.29104 0.53842,-0.52917 0.61118,-0.52917 0.0728,0 -0.0832,0.23813 -0.3466,0.52917 -0.26339,0.29104 -0.53842,0.52917 -0.61118,0.52917 -0.0728,0 0.0832,-0.23813 0.3466,-0.52917 z m -9.67732,-0.46302 -0.64143,-0.7276 0.7276,0.64143 c 0.40019,0.35279 0.72761,0.68021 0.72761,0.7276 0,0.20751 -0.21426,0.0386 -0.81378,-0.64143 z m 62.03968,-0.13229 -0.50403,-0.59531 0.59531,0.50402 c 0.32743,0.27722 0.59532,0.54511 0.59532,0.59532 0,0.21173 -0.21294,0.0554 -0.6866,-0.50403 z m 49.70568,-1.44013 c 0.25744,-0.0671 0.61463,-0.0627 0.79375,0.01 0.17915,0.0725 -0.0315,0.12736 -0.46804,0.12197 -0.43657,-0.005 -0.58312,-0.0647 -0.32571,-0.13178 z m 28.71881,0.003 c 0.191,-0.0764 0.4192,-0.067 0.50712,0.0209 0.0879,0.0879 -0.0684,0.15045 -0.34726,0.13897 -0.30824,-0.0127 -0.37092,-0.0754 -0.15986,-0.15986 z m -103.13789,-4.41707 c 0,-0.0549 0.20836,-0.26331 0.46302,-0.46303 0.41964,-0.3291 0.429,-0.31974 0.0999,0.0999 -0.34564,0.44073 -0.56291,0.58089 -0.56291,0.36313 z m -151.755187,-9.75584 -0.777105,-0.85989 0.859896,0.7771 c 0.801544,0.72437 0.981511,0.94269 0.777105,0.94269 -0.04554,0 -0.432488,-0.38696 -0.859896,-0.8599 z M 48.29355,227.95199 c 0.190997,-0.0764 0.4192,-0.067 0.507119,0.0209 0.08792,0.0879 -0.06835,0.15045 -0.347266,0.13897 -0.308225,-0.0127 -0.370919,-0.0754 -0.159853,-0.15986 z"
         style="fill:#306eac;stroke-width:0.26458332" />
      <path
         id="path23"
         d="m 188.44003,283.79913 c -2.33657,-0.56885 -2.98897,-1.34794 -2.68699,-3.20879 0.25786,-1.58899 0.66517,-1.80379 2.32966,-1.22859 1.05382,0.36417 2.19338,0.49021 4.45837,0.49312 2.75572,0.004 3.15501,-0.0585 4.23334,-0.65755 1.70614,-0.94786 2.38125,-2.38898 2.38125,-5.08315 0,-1.13333 -0.0368,-2.0606 -0.0817,-2.0606 -0.0449,0 -1.08671,0.37471 -2.31511,0.8327 -4.02063,1.49901 -7.19662,0.98436 -9.527,-1.5438 -1.96357,-2.13023 -2.8678,-5.31098 -2.88168,-10.13682 -0.0151,-5.23529 0.93333,-8.09862 3.45599,-10.43417 2.69991,-2.49964 6.0275,-3.04414 10.00651,-1.6374 2.20063,0.77802 3.28076,0.8536 4.25335,0.29761 0.36381,-0.20797 1.10376,-0.38234 1.64434,-0.3875 1.4838,-0.0141 1.64584,0.495 1.29158,4.05821 -0.29057,2.92261 -0.64454,8.94439 -0.95845,16.30533 -0.3551,8.32671 -0.82457,10.20918 -3.06986,12.30938 -2.0265,1.89556 -2.62236,2.06263 -7.63886,2.14188 -2.40109,0.0379 -4.60375,0.011 -4.89479,-0.0599 z m 8.82202,-15.63522 c 1.71581,-1.05885 1.8609,-1.63724 1.87826,-7.48743 0.0163,-5.49976 -0.16503,-6.23823 -1.80016,-7.33047 -1.93469,-1.29234 -4.23677,-1.01254 -5.88465,0.71522 -1.24024,1.30036 -1.56026,2.64413 -1.56026,6.55153 0,5.11657 0.62779,7.44507 2.19993,8.15965 1.30833,0.59467 3.66741,0.31684 5.16688,-0.6085 z m -44.61501,5.14207 c -0.79586,-0.84715 -1.11277,-2.89423 -1.11549,-7.20554 -0.003,-5.3743 -0.45531,-10.33804 -1.06713,-11.72115 l -0.52348,-1.18341 -1.7344,0.13922 c -1.24219,0.0997 -2.23679,0.39155 -3.50462,1.02832 -2.66805,1.34004 -2.65372,1.28958 -2.84732,10.02737 -0.0885,3.99625 -0.27446,7.6403 -0.41315,8.0979 -0.27238,0.89869 -0.78359,1.14282 -2.40556,1.14877 -1.7422,0.006 -1.85006,-0.48713 -2.08101,-9.52139 -0.20521,-8.0271 -0.38448,-9.40401 -1.35009,-10.36963 -0.77787,-0.77786 -3.02849,-0.53893 -5.34716,0.56767 -2.71538,1.29593 -2.63402,1.01789 -2.83126,9.67611 -0.18443,8.09563 -0.36514,9.27544 -1.46293,9.55096 -0.80174,0.20123 -2.46526,-0.0455 -2.84114,-0.42139 -0.34876,-0.34875 -0.64561,-5.13296 -0.69001,-11.12039 -0.0311,-4.1906 -0.16108,-6.04044 -0.69155,-9.83998 -0.25392,-1.81871 0.0161,-2.56373 1.09204,-3.0133 1.24972,-0.52216 2.45416,-0.009 3.57143,1.52199 0.45954,0.62966 0.94266,1.11524 1.0736,1.07907 0.13093,-0.0362 0.81768,-0.48219 1.52611,-0.99114 2.64397,-1.8995 5.32864,-2.56258 8.07065,-1.99334 1.19837,0.24878 1.77296,0.56832 2.94021,1.63513 l 1.45078,1.32592 1.92369,-1.04826 c 2.6177,-1.42644 4.50579,-2.00255 6.58365,-2.00888 2.33181,-0.007 4.03127,0.83817 5.07303,2.52318 0.97579,1.57829 1.1996,3.72506 1.41661,13.58774 0.16011,7.27662 0.14301,7.7029 -0.33101,8.25347 -0.31282,0.36333 -0.94568,0.64316 -1.69144,0.74787 -1.03726,0.14565 -1.26951,0.0844 -1.79305,-0.47289 z m 12.56456,0.17308 c -5.1208,-1.57391 -5.85676,-10.09548 -1.14546,-13.26313 1.80024,-1.21039 3.51874,-1.65746 7.24835,-1.88565 4.07819,-0.24953 4.30075,-0.40052 3.61992,-2.45584 -0.25792,-0.77862 -0.85487,-1.80262 -1.32655,-2.27556 -0.78589,-0.78798 -0.99813,-0.86038 -2.53772,-0.8657 -0.99185,-0.003 -2.84524,0.29411 -4.52429,0.72631 -2.14004,0.55086 -2.95555,0.66186 -3.29401,0.44836 -0.75242,-0.47461 -1.41602,-1.53841 -1.47698,-2.3677 -0.0507,-0.68981 0.0874,-0.85646 1.13288,-1.36748 2.87824,-1.40679 11.25977,-2.10698 13.1052,-1.09481 1.28361,0.70402 3.23301,2.96277 3.53958,4.10128 0.15281,0.56747 0.46371,3.94504 0.69089,7.5057 0.33985,5.32648 0.5892,8.01326 0.95025,10.23926 0.15017,0.92582 -1.25453,2.71716 -2.13042,2.7168 -0.22704,-9e-5 -1.09518,-0.53587 -1.92922,-1.19062 -0.83403,-0.65476 -1.64952,-1.19046 -1.8122,-1.19046 -0.16268,0 -0.98167,0.42335 -1.81998,0.94079 -2.73443,1.68779 -5.54718,2.12154 -8.29024,1.27845 z m 6.23389,-4.17196 c 2.48399,-0.74757 3.87946,-2.48351 3.89186,-4.8414 0.009,-1.72007 -0.37879,-1.93713 -3.46117,-1.93713 -3.30981,0 -4.19431,0.33982 -5.26055,2.02112 -0.9337,1.4723 -0.99465,2.28243 -0.26211,3.48394 0.9261,1.51897 2.75578,1.97656 5.09197,1.27347 z m 78.81473,3.78301 c -2.56929,-1.28389 -3.81229,-3.49615 -3.79351,-6.75159 0.0156,-2.6996 1.58845,-5.4782 3.71546,-6.56363 1.14639,-0.585 3.41806,-0.96856 6.74143,-1.13825 3.31848,-0.16943 3.87997,-0.38636 3.87997,-1.49898 0,-0.99816 -1.29647,-3.25736 -2.31516,-4.03436 -1.23125,-0.93912 -2.04513,-0.91362 -5.97847,0.18731 -3.60414,1.00879 -4.17453,0.94252 -4.77355,-0.55457 -0.23461,-0.58635 -0.42657,-1.23954 -0.42657,-1.45152 0,-0.62012 1.17824,-1.22229 3.78281,-1.9333 1.98079,-0.54073 3.07638,-0.66922 5.87448,-0.68898 3.27012,-0.0231 3.51521,0.0128 4.97443,0.72937 1.684,0.8269 2.71186,2.07773 3.11742,3.79367 0.13115,0.5549 0.35951,4.05388 0.50746,7.77551 0.17104,4.30228 0.41268,7.31818 0.6635,8.28114 0.57341,2.20147 0.51983,3.2551 -0.1847,3.63216 -0.83356,0.44611 -2.48563,0.38137 -3.18539,-0.12481 -1.91415,-1.38464 -1.57015,-1.35379 -3.8281,-0.34334 -4.05998,1.81687 -6.1747,1.98181 -8.77151,0.68417 z m 7.60718,-4.15446 c 1.79092,-1.10472 2.67513,-2.36676 2.85082,-4.06899 0.21969,-2.12864 -0.0832,-2.33809 -3.38163,-2.33809 -2.82481,0 -3.9717,0.30965 -4.86739,1.31417 -0.71856,0.80587 -0.74595,3.53763 -0.0462,4.60561 1.06158,1.62017 3.28516,1.81919 5.44438,0.4873 z m 47.20049,4.18442 c -2.96752,-1.50189 -3.39678,-2.96595 -3.80352,-12.97275 -0.42053,-10.34624 -0.21492,-11.37709 2.26941,-11.37709 1.49688,0 2.16112,0.61162 2.3499,2.16374 0.0765,0.62896 0.20452,3.82246 0.28448,7.09668 0.22018,9.0161 0.55877,10.43898 2.6077,10.95858 1.25818,0.31907 2.41859,-0.0444 5.02378,-1.57357 l 2.0638,-1.21138 -0.069,-7.46025 c -0.0714,-7.7204 -0.0393,-8.00488 1.04349,-9.24619 0.25116,-0.28796 0.78171,-0.46302 1.40319,-0.46302 0.80938,0 1.10723,0.15156 1.56712,0.79741 0.53277,0.74823 0.58219,1.25498 0.8009,8.21492 0.12821,4.07962 0.38229,8.39399 0.56464,9.58748 0.18236,1.19349 0.33608,2.88206 0.34158,3.75238 0.009,1.45241 -0.0472,1.60994 -0.68657,1.91781 -1.04229,0.50187 -2.28732,0.13044 -3.44574,-1.02801 -0.55936,-0.55935 -1.27233,-1.01699 -1.58441,-1.01699 -0.31205,0 -1.77056,0.55171 -3.24114,1.22604 -3.62554,1.66248 -5.19531,1.7954 -7.48964,0.63421 z m 52.62004,0.32256 c -0.82936,-0.7099 -1.08892,-2.1441 -1.37673,-7.60677 -0.37182,-7.05762 -0.72017,-10.63687 -1.11551,-11.46173 -0.21887,-0.45665 -0.71538,-0.83439 -1.39465,-1.06101 -1.37909,-0.46011 -3.02405,0.0261 -5.42039,1.60209 l -1.71979,1.13107 -0.13229,8.38772 c -0.0943,5.98057 -0.22273,8.47804 -0.44744,8.70244 -0.17335,0.1731 -0.90556,0.37146 -1.62716,0.4408 -1.18623,0.11398 -1.35488,0.0607 -1.75903,-0.55618 -0.52914,-0.80758 -0.81499,-3.68556 -1.16662,-11.74646 -0.28612,-6.55878 -0.51787,-7.38117 -2.23817,-7.94282 -1.31548,-0.42948 -2.33844,-0.15559 -4.93241,1.32062 l -1.98438,1.12929 -0.15885,7.9375 c -0.18881,9.43526 -0.29716,9.90833 -2.27132,9.91783 -1.45468,0.007 -2.15643,-0.40919 -2.31513,-1.37306 -0.079,-0.47952 -0.25792,-4.62232 -0.39767,-9.20623 -0.18015,-5.90953 -0.38391,-8.96699 -0.70038,-10.50874 -0.41595,-2.02656 -0.41645,-2.2199 -0.007,-2.84427 0.77272,-1.1793 2.91058,-0.80789 4.37547,0.76017 0.82601,0.88415 1.6501,0.86806 3.16577,-0.0618 2.06534,-1.26712 3.67694,-1.75127 5.85345,-1.75849 2.48963,-0.008 3.79913,0.53805 5.14282,2.14552 l 0.98486,1.17822 0.83708,-0.55147 c 1.63804,-1.07915 4.2979,-2.31375 5.69495,-2.64336 3.41106,-0.80479 6.79947,0.73854 7.67498,3.49576 0.48493,1.52719 0.82444,5.72295 1.00192,12.38152 0.20699,7.7664 0.13298,8.36017 -1.10659,8.8781 -1.18914,0.49686 -1.8034,0.47532 -2.45943,-0.0862 z m -291.816125,0.007 c -0.909505,-0.0541 -1.653645,-0.18475 -1.653645,-0.29026 0,-0.10552 0.355409,-1.11484 0.789802,-2.24293 2.555616,-6.63684 2.946649,-13.37761 1.173366,-20.22701 -0.698039,-2.69622 -2.661192,-7.13333 -4.047641,-9.14846 -5.292444,-7.69231 -14.094551,-10.2857 -21.705119,-6.39505 -4.49201,2.2964 -8.127745,6.55839 -10.346758,12.129 -1.254404,3.14905 -1.611378,5.1756 -1.770484,10.05107 -0.17954,5.50165 0.155201,8.22551 1.536371,12.50178 0.56813,1.75899 1.032963,3.28425 1.032963,3.38945 0,0.2495 -3.577837,-0.0699 -4.724663,-0.42171 -0.711852,-0.21841 -1.010317,-0.54239 -1.503227,-1.63172 -1.352527,-2.98908 -2.128598,-10.33751 -1.714681,-16.23589 0.615635,-8.77292 4.803811,-16.85552 11.504187,-22.20151 4.427539,-3.53257 7.696903,-4.70967 12.974842,-4.67146 6.892211,0.0499 11.531224,2.08406 16.300389,7.14755 3.301164,3.5049 7.904874,12.00254 7.910462,14.60134 0.0027,1.26203 0.525306,2.63414 1.06898,2.8067 0.377378,0.11977 0.850924,-0.12048 1.685589,-0.85518 3.200376,-2.81708 9.230672,-4.22592 13.371542,-3.12394 2.650394,0.70533 4.749911,1.94872 6.894139,4.08289 4.298497,4.27834 6.111471,9.21082 6.743611,18.34707 l 0.16018,2.3151 h -2.924215 -2.924219 l -0.0039,-3.63802 c -0.0057,-5.28924 -0.800989,-8.08254 -3.297248,-11.58074 -2.010908,-2.81804 -5.216118,-4.62499 -8.203914,-4.62499 -1.362091,0 -4.190225,0.84329 -5.295964,1.57914 -4.044775,2.69174 -6.482291,7.86245 -6.482291,13.75092 0,2.8333 -0.198546,3.93317 -0.762556,4.22423 -0.561885,0.28996 -3.701092,0.48672 -5.785882,0.36263 z m 172.496575,-0.0699 c -1.11536,-0.47682 -1.29936,-1.55599 -1.48924,-8.73455 -0.21326,-8.06232 -0.44708,-9.92459 -1.36203,-10.84791 -0.9944,-1.00351 -2.64271,-0.88329 -5.35768,0.39077 l -2.16419,1.01559 v 9.0864 9.0864 h -2.77813 -2.77812 l -0.008,-6.68073 c -0.009,-7.90268 -0.33128,-12.9101 -0.9586,-14.90019 -0.44374,-1.4077 -0.44163,-1.46239 0.0837,-2.16858 0.99338,-1.33549 2.44932,-1.12784 4.31263,0.61507 l 1.26758,1.18568 3.00904,-1.46259 c 3.34315,-1.62499 4.90717,-1.96515 6.71208,-1.4598 1.43882,0.40284 3.49823,2.13798 4.02017,3.38718 0.57559,1.37757 1.61902,20.78026 1.1455,21.30075 -0.3065,0.33691 -2.98358,0.47352 -3.65495,0.18651 z M 111.04941,256.44315 v -16.93333 h 2.77812 2.77813 v 16.93333 16.93333 h -2.77813 -2.77812 z m 99.69951,7.34219 c -0.0906,-10.35258 -0.1121,-10.50926 -1.51301,-10.99762 -1.06152,-0.37004 -1.39187,-1.06192 -1.06767,-2.23609 0.31623,-1.14529 1.1815,-1.51681 3.53259,-1.51681 2.05846,0 3.28189,0.61469 3.99128,2.00535 0.49859,0.9774 0.53407,1.65283 0.61399,11.68683 l 0.0848,10.64948 h -2.77905 -2.77905 z m 61.6861,5.29166 c -0.006,-2.36471 -0.1131,-6.50807 -0.23882,-9.20746 -0.1968,-4.22526 -0.32419,-5.18496 -0.91582,-6.89906 -1.11824,-3.23982 -0.87947,-4.20025 1.04417,-4.20025 1.06643,0 1.34034,0.14408 2.76652,1.45521 0.8706,0.80037 1.74884,1.45521 1.95165,1.45521 0.20281,0 0.55786,-0.28864 0.78901,-0.64142 0.63083,-0.96275 3.53978,-2.28888 5.38855,-2.45652 1.48897,-0.13501 1.60146,-0.10313 2.16537,0.61377 0.49698,0.63181 0.56647,0.95267 0.42246,1.9509 -0.25113,1.74079 -0.99925,2.37993 -3.08908,2.63911 -1.9414,0.24076 -2.94849,0.69022 -3.9731,1.77314 -1.31337,1.38812 -1.37701,1.8209 -1.48185,10.07779 l -0.0983,7.73906 h -2.36028 -2.36029 l -0.0102,-4.29948 z m 17.99506,-2.51354 c -0.007,-7.15349 -0.28604,-11.42885 -0.82222,-12.60563 -0.176,-0.3863 -0.58849,-0.76975 -0.91662,-0.85211 -0.89985,-0.22585 -1.45739,-0.99422 -1.62429,-2.23856 -0.12003,-0.89491 -0.0524,-1.19059 0.33757,-1.47574 0.70908,-0.51849 4.33366,-0.46685 5.70349,0.0812 1.93767,0.77531 1.94341,0.81214 2.042,13.12204 l 0.0864,10.78177 h -2.39972 -2.39974 l -0.007,-6.81302 z m -79.16641,-21.89638 c -0.91106,-0.51344 -1.52468,-1.67862 -1.52468,-2.89517 0,-1.7076 1.47463,-2.46738 4.26795,-2.19898 1.74115,0.16731 2.21434,0.66361 2.21434,2.3225 0,1.11544 -0.12318,1.43155 -0.83531,2.14369 -1.00892,1.00892 -2.92767,1.3012 -4.1223,0.62796 z m 79.01134,0.13968 c -1.32043,-0.53351 -2.30897,-2.81781 -1.70657,-3.94343 0.45316,-0.84674 1.68802,-1.35351 3.29809,-1.35351 1.94582,0 2.74232,0.39692 3.05279,1.52132 0.714,2.58591 -2.04253,4.82685 -4.64431,3.77562 z"
         style="fill:#004d99;stroke-width:0.26458332" />
    </g>
  </g>
</svg>
