<?xml version="1.0" encoding="UTF-8" standalone="no"?>
<svg
   xmlns:dc="http://purl.org/dc/elements/1.1/"
   xmlns:cc="http://creativecommons.org/ns#"
   xmlns:rdf="http://www.w3.org/1999/02/22-rdf-syntax-ns#"
   xmlns:svg="http://www.w3.org/2000/svg"
   xmlns="http://www.w3.org/2000/svg"
   xmlns:sodipodi="http://sodipodi.sourceforge.net/DTD/sodipodi-0.dtd"
   xmlns:inkscape="http://www.inkscape.org/namespaces/inkscape"
   id="svg8"
   version="1.1"
   viewBox="0 0 102.40266 49.122757"
   height="49.122757mm"
   width="102.40266mm"
   sodipodi:docname="nyc.svg"
   inkscape:version="0.92.2 (5c3e80d, 2017-08-06)">
  <sodipodi:namedview
     pagecolor="#ffffff"
     bordercolor="#666666"
     borderopacity="1"
     objecttolerance="10"
     gridtolerance="10"
     guidetolerance="10"
     inkscape:pageopacity="0"
     inkscape:pageshadow="2"
     inkscape:window-width="640"
     inkscape:window-height="480"
     id="namedview14"
     showgrid="false"
     inkscape:zoom="0.98182674"
     inkscape:cx="175.21905"
     inkscape:cy="92.830407"
     inkscape:window-x="0"
     inkscape:window-y="0"
     inkscape:window-maximized="0"
     inkscape:current-layer="svg8" />
  <defs
     id="defs2" />
  <metadata
     id="metadata5">
    <rdf:RDF>
      <cc:Work
         rdf:about="">
        <dc:format>image/svg+xml</dc:format>
        <dc:type
           rdf:resource="http://purl.org/dc/dcmitype/StillImage" />
        <dc:title />
      </cc:Work>
    </rdf:RDF>
  </metadata>
  <g
     transform="matrix(0.87368421,0,0,0.72022103,48.477115,-69.990101)"
     id="layer1">
    <g
       transform="translate(-124.73214,-1.5119048)"
       id="g48">
      <path
         id="path62"
         d="m 119.5409,156.23991 c 0.0611,-0.0245 0.13414,-0.0215 0.16228,0.007 0.0281,0.0281 -0.0219,0.0481 -0.11113,0.0445 -0.0986,-0.004 -0.11869,-0.0241 -0.0512,-0.0512 z m 3.15522,-0.92289 c 0.004,-0.0986 0.0241,-0.11869 0.0512,-0.0512 0.0245,0.0611 0.0215,0.13414 -0.007,0.16228 -0.0281,0.0281 -0.0482,-0.0219 -0.0445,-0.11113 z m -27.908463,-2.95628 c -2.7e-5,-1.6764 0.01128,-2.3742 0.02513,-1.55066 0.01385,0.82353 0.01387,2.19513 5e-5,3.048 -0.01382,0.85286 -0.02515,0.17906 -0.02518,-1.49734 z m 11.684053,-0.0423 c 0,-1.69968 0.0113,-2.39501 0.0251,-1.54517 0.0138,0.84985 0.0138,2.2405 0,3.09034 -0.0138,0.84984 -0.0251,0.15451 -0.0251,-1.54517 z m 12.5559,2.82259 c 0.0582,-0.0235 0.15345,-0.0235 0.21166,0 0.0582,0.0235 0.0106,0.0427 -0.10583,0.0427 -0.11642,0 -0.16404,-0.0192 -0.10583,-0.0427 z m 4.92103,-0.34609 c -0.10532,-0.13429 -0.10232,-0.13728 0.032,-0.032 0.0815,0.0639 0.14816,0.13059 0.14816,0.14817 0,0.0697 -0.0695,0.0248 -0.18013,-0.1162 z m 4.87913,-0.0212 c 0.0843,-0.0931 0.1723,-0.16933 0.19558,-0.16933 0.0233,0 -0.0266,0.0762 -0.11091,0.16933 -0.0843,0.0931 -0.1723,0.16934 -0.19558,0.16934 -0.0233,0 0.0266,-0.0762 0.11091,-0.16934 z m -26.72821,-0.73517 c 0.0611,-0.0245 0.13415,-0.0214 0.16228,0.007 0.0281,0.0281 -0.0219,0.0481 -0.11112,0.0445 -0.0986,-0.004 -0.1187,-0.0241 -0.0512,-0.0512 z m -14.595258,-2.90549 c 0,-1.04775 0.01215,-1.47638 0.02701,-0.9525 0.01485,0.52387 0.01485,1.38112 0,1.905 -0.01486,0.52387 -0.02701,0.0952 -0.02701,-0.9525 z m 30.968308,1.05833 c 0.002,-0.1397 0.0207,-0.1866 0.0422,-0.10422 0.0215,0.0824 0.02,0.19668 -0.003,0.254 -0.0232,0.0573 -0.0408,-0.0101 -0.039,-0.14978 z m -19.56782,-0.43039 c 0.0041,-0.0986 0.02412,-0.11869 0.05115,-0.0512 0.02446,0.0611 0.02145,0.13414 -0.0067,0.16228 -0.02813,0.0281 -0.04815,-0.0219 -0.04447,-0.11113 z m 3.10482,-1.10735 c 0.0582,-0.0235 0.15345,-0.0235 0.21166,0 0.0582,0.0235 0.0106,0.0427 -0.10583,0.0427 -0.11642,0 -0.16404,-0.0192 -0.10583,-0.0427 z m 17.526,0 c 0.0582,-0.0235 0.15345,-0.0235 0.21166,0 0.0582,0.0235 0.0106,0.0427 -0.10583,0.0427 -0.11642,0 -0.16404,-0.0192 -0.10583,-0.0427 z m -16.28486,-2.18759 c -9e-5,-0.79164 0.0126,-1.12688 0.0283,-0.74499 0.0156,0.38189 0.0157,1.02959 1.7e-4,1.43933 -0.0156,0.40974 -0.0284,0.0973 -0.0285,-0.69434 z m -21.187943,1.05833 c 0,-0.11642 0.01922,-0.16404 0.0427,-0.10583 0.02349,0.0582 0.02349,0.15346 0,0.21166 -0.02349,0.0582 -0.0427,0.0106 -0.0427,-0.10583 z m 12.716685,-1.73567 c -2.54e-4,-0.4191 0.01406,-0.60122 0.03181,-0.40472 0.01776,0.19651 0.01797,0.53941 5.08e-4,0.762 -0.01754,0.2226 -0.03206,0.0618 -0.03232,-0.35728 z m 11.684468,-0.0423 c 0,-0.44238 0.0143,-0.62336 0.0317,-0.40217 0.0174,0.2212 0.0174,0.58315 0,0.80434 -0.0174,0.22119 -0.0317,0.0402 -0.0317,-0.40217 z m -22.731988,-0.0635 c -0.105314,-0.13429 -0.102319,-0.13728 0.03197,-0.032 0.08149,0.0639 0.148167,0.13059 0.148167,0.14817 0,0.0697 -0.06953,0.0248 -0.180134,-0.1162 z m -2.248115,-5.07995 c 1.202346,-0.0132 3.145446,-0.0132 4.318,3e-5 1.172553,0.0133 0.188815,0.0241 -2.186085,0.0241 -2.3749,-1e-5 -3.334262,-0.0109 -2.131915,-0.0241 z m 21.336003,0 c 1.20234,-0.0132 3.14544,-0.0132 4.318,3e-5 1.17255,0.0133 0.18881,0.0241 -2.18609,0.0241 -2.3749,-1e-5 -3.33426,-0.0109 -2.13191,-0.0241 z m 23.45266,0 c 1.20235,-0.0132 3.14545,-0.0132 4.318,3e-5 1.17256,0.0133 0.18882,0.0241 -2.18608,0.0241 -2.3749,-1e-5 -3.33426,-0.0109 -2.13192,-0.0241 z m 30.93975,-4e-5 c 2.94534,-0.0123 7.76499,-0.0123 10.71034,0 2.94534,0.0123 0.53551,0.0224 -5.35517,0.0224 -5.89068,0 -8.30051,-0.0101 -5.35517,-0.0224 z m -23.72783,-0.78318 c 0.41716,-0.4191 0.77752,-0.762 0.8008,-0.762 0.0233,0 -0.29898,0.3429 -0.71613,0.762 -0.41716,0.4191 -0.77752,0.762 -0.80081,0.762 -0.0233,0 0.29898,-0.3429 0.71614,-0.762 z m -22.0996,-9.82133 c 0,-4.67995 0.0102,-6.59447 0.0228,-4.2545 0.0125,2.33998 0.0125,6.16903 0,8.509 -0.0125,2.33998 -0.0228,0.42545 -0.0228,-4.2545 z m 23.45034,5.29167 c -2e-5,-1.76954 0.0112,-2.50547 0.025,-1.63541 0.0137,0.87006 0.0138,2.31786 4e-5,3.21733 -0.0137,0.89948 -0.025,0.18761 -0.025,-1.58192 z m 10.66983,-7.40834 c 0,-3.51578 0.0104,-4.95405 0.0232,-3.19616 0.0128,1.75789 0.0128,4.63444 0,6.39233 -0.0128,1.75789 -0.0232,0.31962 -0.0232,-3.19617 z m 21.32866,-1.143 c 0,-0.60536 0.0136,-0.8419 0.03,-0.52564 0.0163,0.31626 0.0162,0.81156 0,1.10067 -0.0165,0.2891 -0.0299,0.0303 -0.0297,-0.57503 z m 0,-6.39233 c 0,-0.58208 0.0135,-0.82021 0.03,-0.52917 0.0165,0.29105 0.0165,0.7673 0,1.05834 -0.0165,0.29104 -0.03,0.0529 -0.03,-0.52917 z m 10.97377,0.71967 c 0.15797,-0.16299 0.30626,-0.29634 0.32955,-0.29634 0.0233,0 -0.0869,0.13335 -0.24488,0.29634 -0.15798,0.16298 -0.30627,0.29633 -0.32955,0.29633 -0.0233,0 0.0869,-0.13335 0.24488,-0.29633 z m -50.46261,-5.0165 -1.05706,-1.0795 1.0795,1.05706 c 1.00275,0.9819 1.11789,1.10194 1.05706,1.10194 -0.0123,0 -0.49811,-0.48578 -1.0795,-1.0795 z m -30.52424,-0.635 -0.420151,-0.4445 0.4445,0.42015 c 0.244475,0.23108 0.4445,0.43111 0.4445,0.4445 0,0.0632 -0.07844,-0.007 -0.468849,-0.42015 z m 28.11075,-1.778 -0.76023,-0.78317 0.78316,0.76023 c 0.43074,0.41813 0.78317,0.77056 0.78317,0.78317 0,0.0615 -0.10001,-0.0328 -0.8061,-0.76023 z m -29.893612,0 -0.161289,-0.1905 0.1905,0.16129 c 0.179023,0.15157 0.229044,0.21971 0.161289,0.21971 -0.01607,0 -0.101791,-0.0857 -0.1905,-0.1905 z m -1.011138,-1.016 -0.420151,-0.4445 0.4445,0.42015 c 0.413037,0.39041 0.483328,0.46885 0.420151,0.46885 -0.01339,0 -0.213418,-0.20003 -0.4445,-0.4445 z m 30.13898,-1.92617 c 0,-1.18745 0.0119,-1.67322 0.0265,-1.0795 0.0145,0.59373 0.0145,1.56528 0,2.159 -0.0146,0.59373 -0.0265,0.10795 -0.0265,-1.0795 z m 21.9342,1.524 c 0.0843,-0.0931 0.1723,-0.16933 0.19558,-0.16933 0.0233,0 -0.0266,0.0762 -0.11091,0.16933 -0.0843,0.0931 -0.1723,0.16933 -0.19558,0.16933 -0.0233,0 0.0266,-0.0762 0.11091,-0.16933 z m 0.762,-0.762 c 0.0843,-0.0931 0.1723,-0.16933 0.19558,-0.16933 0.0233,0 -0.0266,0.0762 -0.11091,0.16933 -0.0843,0.0931 -0.1723,0.16933 -0.19558,0.16933 -0.0233,0 0.0266,-0.0762 0.11091,-0.16933 z m 0.762,-0.762 c 0.0843,-0.0931 0.1723,-0.16933 0.19558,-0.16933 0.0233,0 -0.0266,0.0762 -0.11091,0.16933 -0.0843,0.0931 -0.1723,0.16933 -0.19558,0.16933 -0.0233,0 0.0266,-0.0762 0.11091,-0.16933 z m -56.475314,-0.9525 -0.50535,-0.52917 0.529166,0.50535 c 0.491551,0.46943 0.56791,0.55299 0.50535,0.55299 -0.0131,0 -0.251224,-0.23813 -0.529166,-0.52917 z m 57.110314,0.3175 c 0.10937,-0.11642 0.2179,-0.21167 0.24119,-0.21167 0.0233,0 -0.0471,0.0952 -0.15652,0.21167 -0.10937,0.11642 -0.2179,0.21167 -0.24119,0.21167 -0.0233,0 0.0472,-0.0952 0.15652,-0.21167 z m 0.508,-0.49216 c 0,-0.0146 0.12383,-0.1384 0.27517,-0.27517 l 0.27517,-0.24867 -0.24868,0.27517 c -0.2318,0.25649 -0.30166,0.31408 -0.30166,0.24867 z m -58.724375,-0.92601 -0.161289,-0.1905 0.1905,0.16129 c 0.179022,0.15157 0.229043,0.21971 0.161289,0.21971 -0.01607,0 -0.101792,-0.0857 -0.1905,-0.1905 z m 59.613375,0.0212 c 0.0843,-0.0931 0.1723,-0.16933 0.19558,-0.16933 0.0233,0 -0.0266,0.0762 -0.11091,0.16933 -0.0843,0.0931 -0.1723,0.16933 -0.19558,0.16933 -0.0233,0 0.0266,-0.0762 0.11091,-0.16933 z m -39.28677,-1.03717 -0.92989,-0.9525 0.9525,0.92989 c 0.52387,0.51144 0.9525,0.94007 0.9525,0.9525 0,0.0611 -0.1114,-0.0452 -0.97511,-0.92989 z m -32.21574,0 c 0.824317,-0.84538 0.932846,-0.94863 0.932846,-0.88748 0,0.0125 -0.409575,0.42204 -0.910167,0.91016 l -0.910167,0.88749 z m 99.51687,-0.23283 c 0,-0.53552 0.0137,-0.75459 0.0305,-0.48683 0.0168,0.26776 0.0168,0.70591 0,0.97366 -0.0168,0.26776 -0.0305,0.0487 -0.0305,-0.48683 z m -27.25236,0.508 c 0.0843,-0.0931 0.1723,-0.16933 0.19558,-0.16933 0.0233,0 -0.0266,0.0762 -0.11091,0.16933 -0.0843,0.0931 -0.1723,0.16933 -0.19558,0.16933 -0.0233,0 0.0266,-0.0762 0.11091,-0.16933 z m -62.148514,-1.03717 -0.42015,-0.4445 0.4445,0.42015 c 0.413037,0.39042 0.483328,0.46885 0.42015,0.46885 -0.01339,0 -0.213417,-0.20002 -0.4445,-0.4445 z m 62.783514,0.41254 c 0,-0.0176 0.0667,-0.0843 0.14817,-0.14817 0.13429,-0.10531 0.13728,-0.10232 0.032,0.032 -0.11061,0.14103 -0.18014,0.18588 -0.18014,0.1162 z m 0.635,-0.64537 c 0.0843,-0.0931 0.1723,-0.16933 0.19558,-0.16933 0.0233,0 -0.0266,0.0762 -0.11091,0.16933 -0.0843,0.0931 -0.1723,0.16933 -0.19558,0.16933 -0.0233,0 0.0266,-0.0762 0.11091,-0.16933 z m 24.09435,-0.0494 c 0.004,-0.0986 0.0241,-0.11869 0.0512,-0.0511 0.0245,0.0611 0.0215,0.13414 -0.007,0.16228 -0.0281,0.0281 -0.0482,-0.0219 -0.0445,-0.11113 z"
         style="fill:#ebf1f6;stroke-width:0.08466667"
         inkscape:connector-curvature="0" />
      <path
         id="path60"
         d="m 87.573939,155.56205 c 0.08149,-0.0213 0.214842,-0.0213 0.296333,0 0.08149,0.0213 0.01482,0.0387 -0.148166,0.0387 -0.162984,0 -0.229659,-0.0174 -0.148167,-0.0387 z m 13.885331,0 c 0.0815,-0.0213 0.21484,-0.0213 0.29634,0 0.0815,0.0213 0.0148,0.0387 -0.14817,0.0387 -0.16298,0 -0.22966,-0.0174 -0.14817,-0.0387 z m 24.8085,-0.002 c 0.1287,-0.0195 0.3192,-0.0189 0.42333,0.001 0.10414,0.0201 -0.001,0.036 -0.23399,0.0354 -0.23284,-6.8e-4 -0.31804,-0.0171 -0.18934,-0.0365 z m -47.842829,-0.17181 c 0.590977,-0.0145 1.581577,-0.0146 2.201333,-8e-5 0.619758,0.0145 0.136232,0.0264 -1.074502,0.0264 -1.210733,5e-5 -1.717807,-0.0118 -1.126831,-0.0263 z m 11.688998,6.8e-4 c 0.267758,-0.0168 0.705908,-0.0168 0.973667,0 0.267758,0.0168 0.04868,0.0306 -0.486834,0.0306 -0.535516,0 -0.754591,-0.0138 -0.486833,-0.0306 z m 3.178318,-1.7e-4 c 0.292866,-0.0166 0.750066,-0.0164 1.016,3.4e-4 0.265933,0.0168 0.02631,0.0303 -0.532485,0.0301 -0.5588,-1.7e-4 -0.776382,-0.0139 -0.483515,-0.0305 z m 3.217333,0 c 0.292867,-0.0166 0.750067,-0.0164 1.016,3.4e-4 0.265933,0.0168 0.02632,0.0303 -0.532484,0.0301 -0.5588,-1.7e-4 -0.776383,-0.0139 -0.483516,-0.0305 z m 7.32035,1.7e-4 c 0.26776,-0.0168 0.70591,-0.0168 0.97367,0 0.26775,0.0168 0.0487,0.0306 -0.48684,0.0306 -0.53551,0 -0.75459,-0.0138 -0.48683,-0.0306 z m 3.13267,0 c 0.26775,-0.0168 0.7059,-0.0168 0.97366,0 0.26776,0.0168 0.0487,0.0306 -0.48683,0.0306 -0.53552,0 -0.75459,-0.0138 -0.48683,-0.0306 z m 3.65994,5.9e-4 0.97207,-0.028 0.0256,-1.69072 0.0256,-1.69072 -0.003,1.71456 -0.003,1.71455 -0.99498,0.004 -0.99498,0.004 0.97207,-0.0281 z m 3.13009,-0.0462 c -0.0228,-0.0595 -0.0303,-0.88814 -0.0167,-1.8415 l 0.0248,-1.73338 0.0193,1.79648 0.0193,1.79648 0.99483,0.0268 0.99484,0.0268 -0.99749,0.0182 c -0.74475,0.0136 -1.00801,-0.009 -1.03898,-0.0899 z m 5.78297,-1.72596 c 0.0582,-0.0235 0.15345,-0.0235 0.21166,0 0.0582,0.0235 0.0106,0.0427 -0.10583,0.0427 -0.11642,0 -0.16404,-0.0192 -0.10583,-0.0427 z m -20.624136,-1.12926 c 0,-0.11641 0.01922,-0.16404 0.0427,-0.10583 0.02349,0.0582 0.02349,0.15346 0,0.21167 -0.02349,0.0582 -0.0427,0.0106 -0.0427,-0.10584 z m 21.931806,-0.29633 c 0.002,-0.1397 0.0207,-0.1866 0.0422,-0.10422 0.0215,0.0824 0.02,0.19668 -0.003,0.254 -0.0232,0.0573 -0.0408,-0.0101 -0.039,-0.14978 z m -21.93849,-0.17639 c 0.0041,-0.0986 0.02412,-0.11869 0.05115,-0.0512 0.02446,0.0611 0.02145,0.13414 -0.0067,0.16228 -0.02813,0.0281 -0.04815,-0.0219 -0.04447,-0.11113 z m 28.69532,-0.93671 c 0.70107,-0.0622 1.58995,-0.0672 1.55353,-0.009 -0.0217,0.0349 -0.44685,0.0571 -0.9447,0.0493 -0.49784,-0.008 -0.77182,-0.0261 -0.60883,-0.0405 z m -47.603838,-0.76965 c 0.244475,-0.0171 0.644525,-0.0171 0.889,0 0.244475,0.0171 0.04445,0.0311 -0.4445,0.0311 -0.48895,0 -0.688975,-0.014 -0.4445,-0.0311 z m 19.790834,-0.53025 c 0.08428,-0.0931 0.172295,-0.16933 0.195578,-0.16933 0.02329,0 -0.02663,0.0762 -0.110912,0.16933 -0.08428,0.0931 -0.172295,0.16933 -0.195578,0.16933 -0.02328,0 0.02663,-0.0762 0.110912,-0.16933 z M 84.26414,149.10108 c 0,-0.11642 0.01922,-0.16404 0.0427,-0.10584 0.02349,0.0582 0.02349,0.15346 0,0.21167 -0.02349,0.0582 -0.0427,0.0106 -0.0427,-0.10583 z m 39.52141,-6.83684 -0.29178,-0.3175 0.3175,0.29178 c 0.29552,0.27158 0.35643,0.34322 0.29178,0.34322 -0.0142,0 -0.15703,-0.14287 -0.3175,-0.3175 z m -0.80296,-0.80433 -0.42015,-0.4445 0.4445,0.42015 c 0.41304,0.39041 0.48333,0.46885 0.42015,0.46885 -0.0134,0 -0.21342,-0.20002 -0.4445,-0.4445 z m 13.29585,-8.86883 c 0.0843,-0.0931 0.17229,-0.16934 0.19558,-0.16934 0.0233,0 -0.0266,0.0762 -0.11091,0.16934 -0.0843,0.0931 -0.1723,0.16933 -0.19558,0.16933 -0.0233,0 0.0266,-0.0762 0.11091,-0.16933 z m 3.429,-3.41864 c 0,-0.0176 0.0667,-0.0842 0.14817,-0.14816 0.13428,-0.10532 0.13728,-0.10232 0.032,0.032 -0.1106,0.14104 -0.18013,0.18589 -0.18013,0.1162 z m 0.80433,-0.8147 c 0.0843,-0.0931 0.1723,-0.16933 0.19558,-0.16933 0.0233,0 -0.0266,0.0762 -0.11091,0.16933 -0.0843,0.0931 -0.1723,0.16934 -0.19558,0.16934 -0.0233,0 0.0266,-0.0762 0.11091,-0.16934 z m 2.794,-2.794 c 0.0843,-0.0931 0.1723,-0.16933 0.19558,-0.16933 0.0233,0 -0.0266,0.0762 -0.11091,0.16933 -0.0843,0.0931 -0.1723,0.16934 -0.19558,0.16934 -0.0233,0 0.0266,-0.0762 0.11091,-0.16934 z m 0.762,-0.762 c 0.0843,-0.0931 0.1723,-0.16933 0.19558,-0.16933 0.0233,0 -0.0266,0.0762 -0.11091,0.16933 -0.0843,0.0931 -0.1723,0.16934 -0.19558,0.16934 -0.0233,0 0.0266,-0.0762 0.11091,-0.16934 z m 0.762,-0.762 c 0.0843,-0.0931 0.1723,-0.16933 0.19558,-0.16933 0.0233,0 -0.0266,0.0762 -0.11091,0.16933 -0.0843,0.0931 -0.1723,0.16934 -0.19558,0.16934 -0.0233,0 0.0266,-0.0762 0.11091,-0.16934 z m 33.44334,-1.43933 c 0.0843,-0.0931 0.17229,-0.16933 0.19558,-0.16933 0.0233,0 -0.0266,0.0762 -0.11092,0.16933 -0.0843,0.0931 -0.17229,0.16933 -0.19558,0.16933 -0.0233,0 0.0266,-0.0762 0.11092,-0.16933 z m 0.635,-0.635 c 0.10936,-0.11642 0.21789,-0.21167 0.24118,-0.21167 0.0233,0 -0.0472,0.0953 -0.15652,0.21167 -0.10936,0.11642 -0.2179,0.21167 -0.24118,0.21167 -0.0233,0 0.0472,-0.0953 0.15652,-0.21167 z m -50.20734,-3.13267 c 0.15797,-0.16298 0.30627,-0.29633 0.32955,-0.29633 0.0233,0 -0.0869,0.13335 -0.24488,0.29633 -0.15797,0.16299 -0.30627,0.29634 -0.32955,0.29634 -0.0233,0 0.0869,-0.13335 0.24488,-0.29634 z m 0.80434,-0.80433 c 0.22933,-0.23283 0.43601,-0.42333 0.4593,-0.42333 0.0233,0 -0.14531,0.1905 -0.37464,0.42333 -0.22933,0.23283 -0.43602,0.42333 -0.4593,0.42333 -0.0233,0 0.1453,-0.1905 0.37464,-0.42333 z m 1.016,-1.016 c 0.0843,-0.0931 0.17229,-0.16933 0.19557,-0.16933 0.0233,0 -0.0266,0.0762 -0.11091,0.16933 -0.0843,0.0931 -0.17229,0.16933 -0.19558,0.16933 -0.0233,0 0.0266,-0.0762 0.11092,-0.16933 z m 0.93133,-0.93133 c 0.18188,-0.18627 0.34975,-0.33867 0.37303,-0.33867 0.0233,0 -0.10648,0.1524 -0.28836,0.33867 -0.18189,0.18626 -0.34975,0.33866 -0.37304,0.33866 -0.0233,0 0.10648,-0.1524 0.28837,-0.33866 z m 0.889,-0.889 c 0.15797,-0.16299 0.30627,-0.29634 0.32955,-0.29634 0.0233,0 -0.0869,0.13335 -0.24488,0.29634 -0.15797,0.16298 -0.30627,0.29633 -0.32955,0.29633 -0.0233,0 0.0869,-0.13335 0.24488,-0.29633 z m 47.02701,-0.5715 -0.24868,-0.27517 0.27517,0.24867 c 0.2565,0.2318 0.31409,0.30166 0.24867,0.30166 -0.0146,0 -0.13839,-0.12382 -0.27516,-0.27516 z m -33.86688,-1.92617 c 0,-1.18745 0.0119,-1.67322 0.0265,-1.0795 0.0145,0.59373 0.0145,1.56528 0,2.159 -0.0146,0.59373 -0.0265,0.10795 -0.0265,-1.0795 z m 31.07421,-0.86783 -0.33467,-0.35984 0.35983,0.33469 c 0.19791,0.18407 0.35983,0.346 0.35983,0.35983 0,0.0641 -0.0737,-4e-5 -0.38499,-0.33468 z m -53.42212,-2.20134 -0.92989,-0.9525 0.9525,0.92989 c 0.52388,0.51144 0.9525,0.94007 0.9525,0.9525 0,0.0611 -0.11139,-0.0452 -0.97511,-0.92989 z m 54.85089,0.0635 c 0,-0.32596 0.0157,-0.44894 0.034,-0.27327 0.0183,0.17566 0.018,0.44236 -8.4e-4,0.59266 -0.0187,0.1503 -0.0337,0.007 -0.0333,-0.31939 z m -4.26567,-0.6985 -0.29177,-0.3175 0.3175,0.29178 c 0.29552,0.27158 0.35643,0.34322 0.29177,0.34322 -0.0141,0 -0.15702,-0.14287 -0.3175,-0.3175 z"
         style="fill:#cdd8e7;stroke-width:0.08466667"
         inkscape:connector-curvature="0" />
      <path
         id="path58"
         d="m 122.70942,152.25778 -0.02,-2.89697 -0.91017,-0.0272 -0.91016,-0.0272 0.91282,-0.018 c 0.66859,-0.0132 0.92375,0.0105 0.95367,0.0885 0.0225,0.0585 0.0303,1.38251 0.0173,2.94216 l -0.0235,2.83573 z m 0.84319,-1.2517 c 0.002,-0.1397 0.0207,-0.1866 0.0422,-0.10422 0.0215,0.0824 0.02,0.19667 -0.003,0.254 -0.0232,0.0573 -0.0408,-0.0101 -0.039,-0.14978 z m -37.502671,-1.71357 c 0.267758,-0.0168 0.705908,-0.0168 0.973667,0 0.267758,0.0168 0.04868,0.0306 -0.486834,0.0306 -0.535516,0 -0.754591,-0.0137 -0.486833,-0.0306 z m 4.024985,-1.7e-4 c 0.292866,-0.0166 0.750066,-0.0164 1.016,3.4e-4 0.265933,0.0168 0.02631,0.0303 -0.532485,0.0302 -0.5588,-1.7e-4 -0.776382,-0.0139 -0.483515,-0.0305 z m 3.217333,0 c 0.292866,-0.0166 0.750066,-0.0164 1.016,3.4e-4 0.265933,0.0168 0.02631,0.0303 -0.532485,0.0302 -0.5588,-1.7e-4 -0.776382,-0.0139 -0.483515,-0.0305 z m 13.670353,1.7e-4 c 0.26775,-0.0168 0.7059,-0.0168 0.97366,0 0.26776,0.0168 0.0487,0.0306 -0.48683,0.0306 -0.53552,0 -0.75459,-0.0137 -0.48683,-0.0306 z m 3.17831,-1.7e-4 c 0.29287,-0.0166 0.75007,-0.0164 1.016,3.4e-4 0.26594,0.0168 0.0263,0.0303 -0.53248,0.0302 -0.5588,-1.7e-4 -0.77638,-0.0139 -0.48352,-0.0305 z m 15.91931,-0.1644 c 0.0611,-0.0245 0.13414,-0.0214 0.16228,0.007 0.0281,0.0281 -0.0219,0.0481 -0.11113,0.0445 -0.0986,-0.004 -0.11869,-0.0241 -0.0511,-0.0512 z m 0.508,0 c 0.0611,-0.0245 0.13414,-0.0214 0.16228,0.007 0.0281,0.0281 -0.0219,0.0481 -0.11113,0.0445 -0.0986,-0.004 -0.11869,-0.0241 -0.0512,-0.0512 z m 53.05566,-16.11353 c 0,-1.79282 0.0112,-2.52624 0.0249,-1.62983 0.0137,0.89641 0.0137,2.36326 0,3.25966 -0.0137,0.89641 -0.0249,0.16299 -0.0249,-1.62983 z m -4e-5,-14.94367 c -2e-5,-1.76953 0.0112,-2.50546 0.0249,-1.6354 0.0138,0.87006 0.0138,2.31786 5e-5,3.21733 -0.0137,0.89947 -0.025,0.18761 -0.025,-1.58193 z m -1.83229,-7.80483 c 0.0611,-0.0245 0.13415,-0.0215 0.16228,0.007 0.0281,0.0281 -0.0219,0.0482 -0.11112,0.0445 -0.0986,-0.004 -0.11869,-0.0241 -0.0512,-0.0511 z m 0.73615,-0.0259 c -0.0297,-0.048 0.004,-0.0622 0.0797,-0.0333 0.14667,0.0563 0.17351,0.11697 0.0517,0.11697 -0.0438,0 -0.10295,-0.0377 -0.13139,-0.0837 z m 0.90675,0.0308 c 0.12249,-0.0363 0.14981,-0.17883 0.17364,-0.9053 l 0.0283,-0.86217 -0.004,0.888 c -0.004,0.82417 -0.0165,0.88924 -0.17363,0.9053 -0.12637,0.0129 -0.13246,0.006 -0.024,-0.0258 z"
         style="fill:#b2c7dd;stroke-width:0.08466667"
         inkscape:connector-curvature="0" />
      <path
         id="path56"
         d="m 84.602807,152.82641 c 0,-0.11642 0.01922,-0.16404 0.0427,-0.10583 0.02349,0.0582 0.02349,0.15346 0,0.21166 -0.02349,0.0582 -0.0427,0.0106 -0.0427,-0.10583 z m 15.649963,-10.62567 c -0.20566,-0.20955 -0.354871,-0.381 -0.331588,-0.381 0.02328,0 0.210598,0.17145 0.416258,0.381 0.20566,0.20955 0.35487,0.381 0.33159,0.381 -0.0233,0 -0.2106,-0.17145 -0.41626,-0.381 z m 49.82235,-1.41816 -0.33468,-0.35984 0.35983,0.33469 c 0.19791,0.18407 0.35984,0.346 0.35984,0.35983 0,0.0641 -0.0737,-4e-5 -0.38499,-0.33468 z m -52.577197,-1.35467 -0.420151,-0.4445 0.4445,0.42015 c 0.244475,0.23108 0.4445,0.43111 0.4445,0.4445 0,0.0632 -0.07844,-0.007 -0.468849,-0.42015 z m 49.783197,-1.43933 -0.33468,-0.35984 0.35983,0.33469 c 0.19791,0.18407 0.35984,0.346 0.35984,0.35983 0,0.0641 -0.0737,-4e-5 -0.38499,-0.33468 z m -52.662665,-1.43934 -0.334683,-0.35983 0.359834,0.33468 c 0.334641,0.31126 0.39874,0.38499 0.334683,0.38499 -0.01383,0 -0.175758,-0.16193 -0.359834,-0.35984 z m -2.877865,-2.87866 -0.420151,-0.4445 0.4445,0.42015 c 0.413037,0.39041 0.483328,0.46885 0.420151,0.46885 -0.01339,0 -0.213418,-0.20003 -0.4445,-0.4445 z m 29.2092,-0.67734 -0.33468,-0.35983 0.35983,0.33468 c 0.19791,0.18408 0.35983,0.346 0.35983,0.35984 0,0.064 -0.0737,-4e-5 -0.38498,-0.33469 z"
         style="fill:#a5bad5;stroke-width:0.08466667"
         inkscape:connector-curvature="0" />
      <path
         id="path54"
         d="m 77.34923,151.19659 0.0012,-4.16985 1.989667,-0.002 1.989666,-0.002 -1.967703,0.0252 -1.967703,0.0252 -0.02317,4.14712 -0.02317,4.14712 0.0012,-4.16984 z m 20.637877,0.045 -0.02033,-4.16715 -0.994833,-0.0268 -0.994833,-0.0268 0.99749,-0.0182 c 0.733799,-0.0134 1.008211,0.01 1.038045,0.0876 0.0223,0.0582 0.03026,1.95369 0.01768,4.21217 l -0.02288,4.10633 z m 22.862723,-1.54786 c 0,-0.20955 0.0165,-0.29527 0.0367,-0.1905 0.0202,0.10478 0.0202,0.27623 0,0.381 -0.0202,0.10478 -0.0367,0.019 -0.0367,-0.1905 z M 81.520272,147.013 c 0.05821,-0.0235 0.153459,-0.0235 0.211667,0 0.05821,0.0235 0.01058,0.0427 -0.105833,0.0427 -0.116417,0 -0.164042,-0.0192 -0.105834,-0.0427 z m 11.771985,-0.007 c 0.292866,-0.0166 0.750066,-0.0165 1.016,3.4e-4 0.265933,0.0167 0.02631,0.0303 -0.532485,0.0301 -0.5588,-1.7e-4 -0.776382,-0.0139 -0.483515,-0.0305 z m 10.498663,0 c 0.29287,-0.0166 0.75007,-0.0165 1.016,3.4e-4 0.26594,0.0167 0.0263,0.0303 -0.53248,0.0301 -0.5588,-1.7e-4 -0.77638,-0.0139 -0.48352,-0.0305 z m 3.17169,1.7e-4 c 0.26775,-0.0168 0.7059,-0.0168 0.97366,0 0.26776,0.0168 0.0487,0.0305 -0.48683,0.0305 -0.53552,0 -0.75459,-0.0137 -0.48683,-0.0305 z m -28.768687,-5.54657 -0.420151,-0.4445 0.4445,0.42015 c 0.413038,0.39041 0.483328,0.46885 0.420151,0.46885 -0.01339,0 -0.213417,-0.20002 -0.4445,-0.4445 z m 41.358287,-9.86367 -0.29177,-0.3175 0.3175,0.29178 c 0.29552,0.27158 0.35643,0.34322 0.29177,0.34322 -0.0141,0 -0.15702,-0.14287 -0.3175,-0.3175 z m 38.73604,-1.82033 c -0.0223,-0.0582 -0.0303,-1.99178 -0.0177,-4.29683 l 0.0229,-4.191 0.0203,4.25371 0.0204,4.25372 4.2545,0.0228 4.2545,0.0228 -4.25716,0.0204 c -3.3428,0.016 -4.26587,-0.002 -4.2977,-0.0855 z m -41.57179,-1.016 -0.33469,-0.35983 0.35984,0.33468 c 0.33464,0.31125 0.39874,0.38498 0.33468,0.38498 -0.0138,0 -0.17576,-0.16192 -0.35983,-0.35983 z m -2.83691,-2.83633 -0.29178,-0.3175 0.3175,0.29177 c 0.17463,0.16048 0.3175,0.30335 0.3175,0.3175 0,0.0647 -0.0716,0.004 -0.34322,-0.29177 z m 18.83726,-13.18684 c -5e-5,-1.16416 0.0119,-1.65216 0.0265,-1.08443 0.0146,0.56774 0.0147,1.52024 9e-5,2.11667 -0.0146,0.59644 -0.0265,0.13193 -0.0266,-1.03224 z m 46.49307,-3.62315 c 0.0318,-0.0835 0.0791,-0.13049 0.10521,-0.10442 0.0261,0.0261 5e-5,0.0944 -0.0578,0.15182 -0.0836,0.083 -0.0934,0.0733 -0.0474,-0.0474 z"
         style="fill:#98b2d0;stroke-width:0.08466667"
         inkscape:connector-curvature="0" />
      <path
         id="path52"
         d="m 119.45246,157.50638 c 0.15217,-0.0188 0.38077,-0.0185 0.508,8.7e-4 0.12722,0.0193 0.003,0.0347 -0.27669,0.0343 -0.2794,-5.1e-4 -0.38349,-0.0163 -0.23131,-0.0351 z m -2.34252,-0.89499 c -0.1071,-0.17833 -0.10529,-0.18013 0.0405,-0.0405 0.0839,0.0804 0.13436,0.16437 0.11209,0.18664 -0.0223,0.0223 -0.0909,-0.0435 -0.15259,-0.14615 z m -21.051265,-5.39365 c 0,-2.30505 0.01089,-3.24802 0.0242,-2.0955 0.01331,1.15253 0.01331,3.03848 0,4.191 -0.01331,1.15253 -0.0242,0.20955 -0.0242,-2.0955 z m 13.630315,1.143 c -3e-5,-1.6764 0.0113,-2.3742 0.0251,-1.55066 0.0139,0.82353 0.0139,2.19513 5e-5,3.048 -0.0138,0.85286 -0.0251,0.17906 -0.0252,-1.49734 z m 6.01009,0.80434 c 0,-1.23402 0.0118,-1.73884 0.0263,-1.12184 0.0145,0.61701 0.0145,1.62666 0,2.24367 -0.0145,0.61701 -0.0263,0.11218 -0.0263,-1.12183 z m -29.548634,1.8415 -0.248674,-0.27517 0.275167,0.24867 c 0.151342,0.13678 0.275167,0.2606 0.275167,0.27517 0,0.0654 -0.06986,0.008 -0.30166,-0.24867 z m 5.419775,-2.64584 c 2.9e-5,-1.62983 0.0114,-2.2846 0.02528,-1.45503 0.01387,0.82956 0.01385,2.16306 -5.3e-5,2.96333 -0.0139,0.80027 -0.02525,0.12154 -0.02522,-1.5083 z m 29.282789,2.37067 c 5.1e-4,-0.2794 0.0163,-0.38349 0.0351,-0.23132 0.0189,0.15218 0.0185,0.38078 -8.6e-4,0.508 -0.0193,0.12723 -0.0347,0.003 -0.0343,-0.27668 z m -31.606904,0.16933 c 0.109368,-0.11641 0.2179,-0.21166 0.241184,-0.21166 0.02328,0 -0.04715,0.0953 -0.156518,0.21166 -0.109368,0.11642 -0.2179,0.21167 -0.241184,0.21167 -0.02328,0 0.04715,-0.0953 0.156518,-0.21167 z m 29.278794,0.15383 c 0.0611,-0.0245 0.13414,-0.0215 0.16228,0.007 0.0281,0.0281 -0.0219,0.0481 -0.11113,0.0445 -0.0986,-0.004 -0.11869,-0.0241 -0.0511,-0.0511 z m 1.46226,-0.13545 c 0.0194,-0.0132 0.11148,-0.0798 0.20461,-0.14817 0.15664,-0.11489 0.16062,-0.11309 0.0531,0.024 -0.0639,0.0815 -0.15599,0.14817 -0.20462,0.14817 -0.0486,0 -0.0725,-0.0108 -0.0531,-0.024 z m 3.99963,-0.16654 c -0.0943,-0.10478 -0.2018,-0.24765 -0.23884,-0.3175 -0.0715,-0.13474 -0.052,-0.11632 0.29102,0.27516 0.11219,0.12806 0.18494,0.23284 0.16165,0.23284 -0.0233,0 -0.1195,-0.0857 -0.21383,-0.1905 z m 4.79865,-0.0212 c 0.10937,-0.11642 0.2179,-0.21167 0.24118,-0.21167 0.0233,0 -0.0472,0.0952 -0.15651,0.21167 -0.10937,0.11642 -0.21791,0.21167 -0.24119,0.21167 -0.0233,0 0.0472,-0.0953 0.15652,-0.21167 z m -44.873334,-0.16933 c 0.109368,-0.11642 0.2179,-0.21167 0.241184,-0.21167 0.02328,0 -0.04715,0.0952 -0.156518,0.21167 -0.109368,0.11641 -0.2179,0.21166 -0.241184,0.21166 -0.02328,0 0.04715,-0.0952 0.156518,-0.21166 z m 15.7372,0.0635 c -0.105315,-0.13429 -0.10232,-0.13728 0.03197,-0.032 0.08149,0.0639 0.148167,0.13059 0.148167,0.14817 0,0.0697 -0.06953,0.0248 -0.180133,-0.1162 z m 17.658474,-0.21167 -0.24867,-0.27517 0.27516,0.24868 c 0.2565,0.2318 0.31409,0.30166 0.24868,0.30166 -0.0146,0 -0.1384,-0.12383 -0.27517,-0.27517 z m 11.77944,-0.0883 c 0.0318,-0.0835 0.0791,-0.13049 0.1052,-0.10442 0.0261,0.0261 5e-5,0.0944 -0.0578,0.15182 -0.0836,0.083 -0.0933,0.0733 -0.0474,-0.0474 z m -2.73434,-0.0339 c 0.0824,-0.0215 0.19668,-0.0201 0.254,0.003 0.0573,0.0232 -0.0101,0.0408 -0.14977,0.039 -0.1397,-0.002 -0.1866,-0.0207 -0.10423,-0.0422 z m -0.83515,-0.30116 -0.16129,-0.1905 0.1905,0.16129 c 0.17902,0.15157 0.22904,0.21971 0.16129,0.21971 -0.0161,0 -0.10179,-0.0857 -0.1905,-0.1905 z m -24.21467,-0.254 -0.16129,-0.1905 0.1905,0.16129 c 0.17902,0.15157 0.22905,0.21971 0.16129,0.21971 -0.0161,0 -0.10179,-0.0857 -0.1905,-0.1905 z m -12.049674,-0.11585 c 0.112413,-0.1452 0.221416,-0.24882 0.24223,-0.23026 0.02081,0.0186 -0.07116,0.13736 -0.204386,0.26401 l -0.24223,0.23026 z m 13.624054,0.18971 c 0,-0.0176 0.0667,-0.0842 0.14817,-0.14816 0.13428,-0.10532 0.13728,-0.10232 0.032,0.032 -0.1106,0.14104 -0.18013,0.18589 -0.18013,0.1162 z m -20.905612,-0.2441 c 0.0194,-0.0121 0.130528,-0.0979 0.246944,-0.1905 l 0.211667,-0.16843 -0.161289,0.1905 c -0.08871,0.10478 -0.199834,0.1905 -0.246944,0.1905 -0.04711,0 -0.06978,-0.01 -0.05038,-0.0221 z m 37.035212,-0.0616 c -0.0297,-0.048 0.004,-0.0622 0.0797,-0.0333 0.14668,0.0563 0.17351,0.11697 0.0517,0.11697 -0.0438,0 -0.10295,-0.0377 -0.1314,-0.0837 z m -17.95342,-0.0913 c -0.0307,-0.0497 -0.0376,-0.10845 -0.0155,-0.13065 0.0222,-0.0222 0.0629,0.0184 0.0905,0.0903 0.0573,0.14919 0.008,0.17544 -0.075,0.0404 z m 19.43449,-0.12136 c 0.10936,-0.11642 0.2179,-0.21167 0.24118,-0.21167 0.0233,0 -0.0472,0.0952 -0.15652,0.21167 -0.10937,0.11641 -0.2179,0.21166 -0.24118,0.21166 -0.0233,0 0.0471,-0.0952 0.15652,-0.21166 z m 6.51933,-0.127 c -0.0763,-0.0493 -0.0868,-0.0826 -0.0262,-0.0834 0.0555,-6.8e-4 0.12438,0.0368 0.15316,0.0834 0.065,0.10511 0.0357,0.10511 -0.127,0 z m -37.386705,-2.032 c 0,-1.00119 0.01225,-1.41076 0.02722,-0.91017 0.01497,0.50059 0.01497,1.31974 0,1.82033 -0.01497,0.5006 -0.02722,0.091 -0.02722,-0.91016 z m 11.246055,1.143 c 9.4e-4,-0.18627 0.0183,-0.2525 0.0385,-0.14718 0.0202,0.10532 0.0195,0.25772 -0.002,0.33866 -0.0212,0.081 -0.0378,-0.005 -0.0368,-0.19148 z m 27.95294,0.0212 -0.16129,-0.1905 0.1905,0.16129 c 0.17902,0.15158 0.22904,0.21971 0.16129,0.21971 -0.0161,0 -0.10179,-0.0857 -0.1905,-0.1905 z m -4.74974,-0.11201 -0.23755,-0.21784 0.27517,0.19143 c 0.15134,0.10529 0.27516,0.20332 0.27516,0.21785 0,0.0668 -0.0936,0.01 -0.31278,-0.19144 z m -41.862018,-0.18432 c -0.105314,-0.13429 -0.102319,-0.13728 0.03197,-0.032 0.08149,0.0639 0.148167,0.13059 0.148167,0.14817 0,0.0697 -0.06953,0.0248 -0.180134,-0.1162 z M 120.83346,151.761 c 0.004,-0.0986 0.0241,-0.11869 0.0511,-0.0512 0.0245,0.0611 0.0215,0.13414 -0.007,0.16228 -0.0281,0.0281 -0.0482,-0.0219 -0.0445,-0.11113 z m -2.37067,-0.0847 c 0.004,-0.0986 0.0241,-0.1187 0.0512,-0.0512 0.0245,0.0611 0.0215,0.13415 -0.007,0.16228 -0.0281,0.0281 -0.0481,-0.0219 -0.0445,-0.11112 z m -34.472426,-0.35278 -0.205258,-0.23284 0.232833,0.20526 c 0.217618,0.19185 0.271661,0.26041 0.205258,0.26041 -0.01516,0 -0.11994,-0.10477 -0.232833,-0.23283 z m 14.999093,0.0988 c 0.0041,-0.0986 0.02412,-0.1187 0.05115,-0.0512 0.02446,0.0611 0.02145,0.13415 -0.0067,0.16228 -0.02813,0.0281 -0.04815,-0.0219 -0.04447,-0.11112 z m 12.825763,-0.22943 c 0.0318,-0.0835 0.0791,-0.13049 0.1052,-0.10443 0.0261,0.0261 5e-5,0.0944 -0.0578,0.15182 -0.0836,0.083 -0.0933,0.0733 -0.0474,-0.0474 z m 8.74675,-0.12335 c -0.10531,-0.13429 -0.10232,-0.13728 0.032,-0.032 0.14103,0.11061 0.18588,0.18013 0.1162,0.18013 -0.0176,0 -0.0843,-0.0667 -0.14817,-0.14816 z m -17.65024,-0.127 -0.16129,-0.1905 0.1905,0.16129 c 0.17902,0.15157 0.22904,0.21971 0.16129,0.21971 -0.0161,0 -0.10179,-0.0857 -0.1905,-0.1905 z m -19.639646,-0.0716 c -0.03154,-0.051 0.01175,-0.15581 0.0962,-0.23283 0.144496,-0.13179 0.146655,-0.13093 0.03663,0.0146 -0.0998,0.13198 -0.09912,0.16588 0.0046,0.23153 0.0763,0.0483 0.08401,0.0774 0.02072,0.0782 -0.05546,6.8e-4 -0.126644,-0.0405 -0.158185,-0.0915 z m 43.871326,-0.233 -0.16036,-0.22454 0.19799,0.18815 c 0.1089,0.10348 0.18106,0.20452 0.16036,0.22454 -0.0207,0.02 -0.10979,-0.0647 -0.19799,-0.18815 z m -8.02958,0.0575 c 0.0492,-0.0492 0.13944,-0.0728 0.20052,-0.0524 0.0634,0.0211 0.025,0.0595 -0.0895,0.0894 -0.14083,0.0368 -0.17388,0.0258 -0.11106,-0.037 z m -35.413391,-0.3244 c 0.08428,-0.0931 0.172295,-0.16934 0.195578,-0.16934 0.02328,0 -0.02663,0.0762 -0.110911,0.16934 -0.08428,0.0931 -0.172295,0.16933 -0.195579,0.16933 -0.02328,0 0.02663,-0.0762 0.110912,-0.16933 z m -2.067278,-0.10674 c 0.0194,-0.0121 0.130528,-0.0979 0.246945,-0.1905 l 0.211666,-0.16843 -0.161289,0.1905 c -0.08871,0.10478 -0.199833,0.1905 -0.246944,0.1905 -0.04711,0 -0.06978,-0.01 -0.05038,-0.0221 z m 35.552949,-0.23193 c 0.0995,-0.1397 0.19991,-0.254 0.22319,-0.254 0.0233,0 -0.0391,0.1143 -0.13853,0.254 -0.0995,0.1397 -0.19991,0.254 -0.2232,0.254 -0.0233,0 0.0391,-0.1143 0.13854,-0.254 z M 99.829439,149.8207 c 0.157969,-0.16298 0.306271,-0.29633 0.329551,-0.29633 0.0233,0 -0.0869,0.13335 -0.244884,0.29633 -0.15797,0.16299 -0.306268,0.29634 -0.329551,0.29634 -0.02328,0 0.08692,-0.13335 0.244884,-0.29634 z m 28.739011,0.0212 -0.24868,-0.27517 0.27517,0.24868 c 0.25649,0.2318 0.31408,0.30166 0.24867,0.30166 -0.0146,0 -0.13839,-0.12383 -0.27516,-0.27517 z m -8.11653,-0.14017 -0.24786,-0.30433 0.28585,0.27245 c 0.15721,0.14985 0.26875,0.2868 0.24785,0.30433 -0.0209,0.0175 -0.14952,-0.10507 -0.28584,-0.27245 z m -17.54019,-0.0292 -0.16129,-0.1905 0.1905,0.16129 c 0.17902,0.15157 0.22904,0.21971 0.16129,0.21971 -0.0161,0 -0.10179,-0.0857 -0.1905,-0.1905 z m 12.07304,-0.0711 c -0.18235,-0.14915 -0.18593,-0.16056 -0.0259,-0.0823 0.10218,0.0499 0.20921,0.1287 0.23783,0.17502 0.0764,0.12365 0.0251,0.1012 -0.21195,-0.0927 z m -14.66991,-0.17227 c 0.0574,-0.0579 0.12575,-0.0839 0.15182,-0.0578 0.0261,0.0261 -0.0209,0.0734 -0.10442,0.1052 -0.12067,0.046 -0.13039,0.0362 -0.0474,-0.0474 z m 2.22391,0.0105 c -0.0763,-0.0493 -0.0867,-0.0826 -0.0262,-0.0834 0.0555,-6.7e-4 0.12438,0.0368 0.15316,0.0834 0.065,0.10512 0.0357,0.10512 -0.127,0 z m 9.88342,-0.0105 c 0.0574,-0.0579 0.12575,-0.0839 0.15182,-0.0578 0.0261,0.0261 -0.0209,0.0734 -0.10442,0.1052 -0.12067,0.046 -0.13039,0.0362 -0.0474,-0.0474 z m 5.50334,0 c 0.0574,-0.0579 0.12575,-0.0839 0.15182,-0.0578 0.0261,0.0261 -0.0209,0.0734 -0.10443,0.1052 -0.12066,0.046 -0.13039,0.0362 -0.0474,-0.0474 z m 7.54203,-0.21667 c 0.0611,-0.0245 0.13415,-0.0214 0.16228,0.007 0.0281,0.0281 -0.0219,0.0482 -0.11112,0.0445 -0.0986,-0.004 -0.1187,-0.0241 -0.0512,-0.0512 z m 1.69334,0 c 0.0611,-0.0245 0.13414,-0.0214 0.16228,0.007 0.0281,0.0281 -0.0219,0.0482 -0.11113,0.0445 -0.0986,-0.004 -0.11869,-0.0241 -0.0512,-0.0512 z m -45.291594,-0.34433 c -0.105315,-0.13428 -0.10232,-0.13728 0.03197,-0.032 0.141034,0.1106 0.185884,0.18013 0.1162,0.18013 -0.01758,0 -0.08426,-0.0667 -0.148166,-0.14817 z m 1.867058,-1.10066 -0.205258,-0.23284 0.232833,0.20526 c 0.128058,0.1129 0.232833,0.21767 0.232833,0.23284 0,0.0664 -0.06856,0.0124 -0.260408,-0.20526 z m -1.4488,-0.67167 c 0.06112,-0.0245 0.134143,-0.0215 0.162278,0.007 0.02813,0.0281 -0.02187,0.0481 -0.111125,0.0445 -0.09863,-0.004 -0.118694,-0.0241 -0.05115,-0.0512 z m 41.204226,-5.21267 -0.67535,-0.6985 0.6985,0.67535 c 0.38417,0.37144 0.6985,0.68577 0.6985,0.6985 0,0.0617 -0.0944,-0.0266 -0.72165,-0.67535 z m 10.20432,-0.35983 c 0.58068,-0.58208 1.07484,-1.05833 1.09812,-1.05833 0.0233,0 -0.43277,0.47625 -1.01346,1.05833 -0.58068,0.58208 -1.07484,1.05833 -1.09812,1.05833 -0.0233,0 0.43277,-0.47625 1.01346,-1.05833 z m 42.672,-2.11667 c 1.74578,-1.74625 3.1932,-3.175 3.21648,-3.175 0.0233,0 -1.38603,1.42875 -3.13182,3.175 -1.74578,1.74625 -3.1932,3.175 -3.21648,3.175 -0.0233,0 1.38603,-1.42875 3.13182,-3.175 z m -99.00356,1.17123 c -0.03104,-0.031 -0.05644,-6.8039 -0.05644,-15.05077 v -14.99433 l 1.038389,-1.0359 1.038389,-1.03589 h 4.232365 4.232365 l 5.291412,5.31283 5.291413,5.31283 -5.291919,-5.2705 -5.291918,-5.2705 h -4.234405 -4.234405 l -0.993976,0.99658 -0.993976,0.99657 0.02163,15.04776 c 0.0119,8.27627 0.01846,15.04776 0.01458,15.04776 -0.0039,0 -0.03245,-0.0254 -0.0635,-0.0564 z m 44.68601,-3.33023 c 0,-1.79281 0.0112,-2.52624 0.0249,-1.62983 0.0137,0.89641 0.0137,2.36326 0,3.25967 -0.0137,0.89641 -0.0249,0.16298 -0.0249,-1.62984 z m 13.29655,-3.81 c 0.32346,-0.32596 0.60717,-0.59266 0.63045,-0.59266 0.0233,0 -0.22232,0.2667 -0.54579,0.59266 -0.32347,0.32597 -0.60717,0.59267 -0.63046,0.59267 -0.0233,0 0.22233,-0.2667 0.5458,-0.59267 z m -14.39732,-0.52916 -0.33468,-0.35984 0.35983,0.33469 c 0.33464,0.31125 0.39874,0.38498 0.33468,0.38498 -0.0138,0 -0.17576,-0.16192 -0.35983,-0.35983 z m -2.83524,-2.75167 -0.46278,-0.48683 0.48684,0.46277 c 0.45228,0.42993 0.52561,0.51089 0.46277,0.51089 -0.0132,0 -0.23231,-0.21907 -0.48683,-0.48683 z m 60.36895,-1.43933 -1.05706,-1.0795 1.0795,1.05706 c 1.00274,0.9819 1.11789,1.10194 1.05706,1.10194 -0.0123,0 -0.49812,-0.48578 -1.0795,-1.0795 z m -63.24473,-1.41817 c -0.20566,-0.20955 -0.35487,-0.381 -0.33159,-0.381 0.0233,0 0.2106,0.17145 0.41626,0.381 0.20566,0.20955 0.35487,0.381 0.33159,0.381 -0.0233,0 -0.2106,-0.17145 -0.41626,-0.381 z m -2.794,-2.794 c -0.20566,-0.20955 -0.35487,-0.381 -0.33159,-0.381 0.0233,0 0.2106,0.17145 0.41626,0.381 0.20566,0.20955 0.35487,0.381 0.33159,0.381 -0.0233,0 -0.2106,-0.17145 -0.41626,-0.381 z m 31.496,0.34903 c 0,-0.0176 0.0667,-0.0842 0.14817,-0.14816 0.13429,-0.10532 0.13728,-0.10232 0.032,0.032 -0.11061,0.14104 -0.18014,0.18589 -0.18014,0.1162 z m 34.33234,-2.3387 c 0.46392,-0.46566 0.86254,-0.84666 0.88582,-0.84666 0.0233,0 -0.33724,0.381 -0.80116,0.84666 -0.46392,0.46567 -0.86254,0.84667 -0.88582,0.84667 -0.0233,0 0.33723,-0.381 0.80116,-0.84667 z m -52.07064,-5.5245 -2.11603,-2.13783 2.13783,2.11603 c 1.98659,1.96633 2.17599,2.15964 2.11603,2.15964 -0.012,0 -0.97401,-0.96203 -2.13783,-2.13784 z m 2.32897,2.11455 c 0,-0.0128 0.29527,-0.30808 0.65617,-0.65617 l 0.65616,-0.63288 -0.63288,0.65617 c -0.5878,0.60943 -0.67945,0.6948 -0.67945,0.63288 z m 3.429,-3.44805 c 0.32347,-0.32596 0.60717,-0.59266 0.63046,-0.59266 0.0233,0 -0.22233,0.2667 -0.54579,0.59266 -0.32347,0.32597 -0.60718,0.59267 -0.63046,0.59267 -0.0233,0 0.22232,-0.2667 0.54579,-0.59267 z m 16.80591,-4.0005 3.17458,-3.19616 h 10.63689 c 10.03121,0 10.64327,0.008 10.749,0.14816 0.0954,0.12605 0.0944,0.13237 -0.007,0.0423 -0.0936,-0.0835 -2.36429,-0.10584 -10.74813,-0.10584 h -10.62948 l -3.17542,3.15384 -3.17542,3.15383 z m 29.25154,1.69334 -1.09945,-1.12184 1.12183,1.09945 c 0.61701,0.60469 1.12184,1.10952 1.12184,1.12183 0,0.0608 -0.12293,-0.0573 -1.14422,-1.09944 z m -2.20411,-2.20134 -0.33467,-0.35983 0.35983,0.33468 c 0.19791,0.18408 0.35983,0.346 0.35983,0.35984 0,0.064 -0.0737,-5e-5 -0.38499,-0.33469 z m -1.14088,-1.143 -0.71779,-0.74083 0.74083,0.7178 c 0.40746,0.39479 0.74083,0.72816 0.74083,0.74083 0,0.0616 -0.0972,-0.0297 -0.76387,-0.7178 z M 99.616551,109.58283 100.716,108.461 h 4.23582 4.23583 l 1.05706,1.0795 1.05706,1.0795 -1.05955,-1.03717 -1.05956,-1.03717 h -4.23093 -4.23094 l -1.101841,1.0795 -1.101843,1.0795 z m 24.168999,0.762 -0.29178,-0.3175 0.3175,0.29178 c 0.29552,0.27157 0.35643,0.34322 0.29178,0.34322 -0.0142,0 -0.15703,-0.14287 -0.3175,-0.3175 z m -11.34205,-0.80433 1.05706,-1.0795 4.27694,0.0204 4.27694,0.0204 -4.27524,0.0228 -4.27524,0.0228 -1.05876,1.03637 -1.05876,1.03638 z m 65.53327,-0.53417 c 0,-0.0726 0.0387,-0.10806 0.0861,-0.0788 0.0473,0.0293 0.0641,0.0886 0.0373,0.13199 -0.0726,0.11744 -0.12339,0.0955 -0.12339,-0.0532 z m -1.92456,-0.26534 c 0.0824,-0.0215 0.19668,-0.02 0.254,0.003 0.0573,0.0232 -0.0101,0.0408 -0.14977,0.039 -0.1397,-0.002 -0.1866,-0.0207 -0.10423,-0.0422 z m 0.73923,0.0256 c 0,-0.0182 0.13067,-0.0483 0.2904,-0.067 0.15971,-0.0187 0.27176,-0.004 0.24899,0.0331 -0.041,0.0663 -0.53939,0.0976 -0.53939,0.0339 z m 2.30725,-0.13626 c 0.0193,-0.0716 0.142,-0.13285 0.28161,-0.14043 0.21312,-0.0116 0.21809,-0.007 0.0358,0.0297 -0.11642,0.0237 -0.24315,0.0869 -0.28161,0.14043 -0.0468,0.065 -0.0586,0.0552 -0.0358,-0.0297 z m -1.16425,-0.0847 -0.254,-0.0646 0.27517,-0.01 c 0.15134,-0.006 0.27516,0.0281 0.27516,0.0746 0,0.0466 -0.01,0.0802 -0.0212,0.0747 -0.0117,-0.006 -0.13547,-0.0391 -0.27517,-0.0747 z m -40.99392,-0.0634 c 1.20235,-0.0133 3.14545,-0.0132 4.318,2e-5 1.17256,0.0133 0.18882,0.0241 -2.18608,0.0241 -2.3749,-1e-5 -3.33426,-0.0109 -2.13192,-0.0241 z m 39.27942,0.001 c 0.22119,-0.0174 0.58314,-0.0174 0.80433,0 0.22119,0.0174 0.0402,0.0317 -0.40216,0.0317 -0.44239,0 -0.62336,-0.0143 -0.40217,-0.0317 z"
         style="fill:#375795;stroke-width:0.08466667"
         inkscape:connector-curvature="0" />
      <path
         id="path50"
         d="m 118.30328,157.35173 c -0.52605,-0.1654 -0.89329,-0.41551 -1.14301,-0.77845 -0.2134,-0.31017 -0.3975,-0.71481 -0.3975,-0.87371 0,-0.0443 0.40695,-0.0792 0.92297,-0.0792 h 0.92297 l 0.16738,0.28369 c 0.1772,0.30032 0.42406,0.39364 1.04128,0.39364 0.73841,0 0.98681,-0.3156 1.06702,-1.35574 0.0424,-0.54966 0.0298,-0.67626 -0.067,-0.67626 -0.0656,0 -0.16537,0.074 -0.22183,0.16437 -0.0564,0.0904 -0.28469,0.27138 -0.5072,0.40217 -0.35198,0.2069 -0.48706,0.23666 -1.03955,0.22901 -0.39121,-0.005 -0.75762,-0.063 -0.95438,-0.15009 -1.70826,-0.75576 -2.12161,-3.45032 -0.75757,-4.93847 0.86299,-0.94152 2.42052,-1.05601 3.14475,-0.23116 0.14045,0.15996 0.29463,0.29084 0.34262,0.29084 0.048,0 0.0872,-0.1524 0.0872,-0.33867 v -0.33866 h 0.89194 0.89195 l -0.0241,3.15383 -0.0241,3.15383 -0.23732,0.48327 c -0.47259,0.96238 -1.27401,1.34232 -2.80266,1.3287 -0.52924,-0.005 -1.09849,-0.0584 -1.30385,-0.12298 z m 2.08866,-3.90979 c 0.67414,-0.49872 0.69709,-1.98671 0.0395,-2.56404 -0.24908,-0.2187 -0.35444,-0.25282 -0.78063,-0.25282 -0.40282,0 -0.53272,0.0371 -0.71211,0.20335 -0.31362,0.29064 -0.48264,0.7571 -0.48264,1.33191 0,0.78774 0.26835,1.25113 0.84666,1.462 0.24096,0.0879 0.86664,-0.0158 1.08917,-0.1804 z m -33.557212,1.9585 c -0.432209,-0.1582 -0.852737,-0.56685 -1.080546,-1.05003 -0.166142,-0.35239 -0.182254,-0.55427 -0.214537,-2.68817 l -0.0349,-2.30716 h 0.976231 0.976231 l 0.02662,2.07256 0.02662,2.07257 0.220431,0.22027 c 0.18463,0.1845 0.299237,0.22099 0.70564,0.22464 0.355213,0.003 0.545676,-0.0404 0.710902,-0.16262 0.441631,-0.32675 0.477503,-0.50683 0.50668,-2.54359 l 0.02699,-1.88383 h 0.925513 0.925514 v 3.00566 3.00567 h -0.926695 -0.926694 l -0.02581,-0.4006 -0.02581,-0.4006 -0.347299,0.31446 c -0.50076,0.45342 -0.993754,0.65315 -1.600035,0.64825 -0.2794,-0.002 -0.65967,-0.0596 -0.845044,-0.12748 z m 13.873742,-0.0402 c -1.330056,-0.51158 -2.057751,-2.40877 -1.599196,-4.16928 0.145453,-0.55843 0.290577,-0.81685 0.714104,-1.27158 0.506352,-0.54365 0.869982,-0.69088 1.699392,-0.68803 0.75231,0.003 0.78045,0.0132 1.5875,0.5988 l 0.1905,0.13823 v -1.44966 -1.44966 h 0.97367 0.97367 v 4.14866 4.14867 h -0.92647 -0.92646 l -0.026,-0.34774 -0.026,-0.34773 -0.28187,0.27021 c -0.61633,0.59084 -1.49797,0.74789 -2.35277,0.41911 z m 2.05903,-1.42976 c 0.44878,-0.27363 0.56851,-0.60423 0.56851,-1.56976 0,-0.944 -0.1066,-1.25541 -0.53386,-1.55965 -0.29647,-0.21111 -0.91757,-0.23611 -1.27491,-0.0513 -0.27206,0.14068 -0.55459,0.67139 -0.63788,1.1982 -0.0674,0.42626 0.0869,1.33365 0.27585,1.622 0.33342,0.50885 1.08257,0.67742 1.60229,0.36053 z m 22.54661,1.48542 c -0.62477,-0.18654 -0.81285,-0.27899 -1.12474,-0.55283 -0.32775,-0.28777 -0.65326,-0.90137 -0.65326,-1.23142 v -0.21259 h 0.88227 0.88227 l 0.0556,0.25297 c 0.10795,0.49149 0.81084,0.77704 1.466,0.59556 0.44998,-0.12464 0.5242,-0.19216 0.57839,-0.52605 0.0721,-0.44434 -0.16208,-0.61479 -1.14525,-0.83356 -1.63191,-0.36313 -2.04536,-0.5423 -2.40002,-1.04006 -0.15243,-0.21394 -0.19185,-0.38336 -0.19201,-0.82536 -2.6e-4,-0.77418 0.25158,-1.14827 1.03175,-1.53234 0.56119,-0.27628 0.59613,-0.28214 1.67559,-0.2809 0.96741,0.001 1.1543,0.025 1.52578,0.19504 0.53012,0.24266 0.8655,0.55348 1.06715,0.98903 0.28896,0.62412 0.27647,0.635 -0.72848,0.635 -0.80767,0 -0.889,-0.0143 -0.889,-0.15621 0,-0.32735 -0.31177,-0.47879 -0.98565,-0.47879 -0.68606,0 -0.78871,0.0633 -0.79106,0.48808 -0.002,0.30212 0.33463,0.51314 1.04106,0.65322 1.45841,0.28921 1.78305,0.39746 2.1591,0.71992 1.04269,0.89413 0.53524,2.54536 -0.93696,3.04884 -0.57637,0.19712 -1.99371,0.24914 -2.51849,0.0925 z m -47.921338,-4.20376 v -4.15426 l 2.561167,0.0309 c 2.827005,0.0341 3.018974,0.0651 3.656343,0.59048 0.863045,0.7114 0.839106,2.08271 -0.04881,2.79626 -0.378656,0.3043 -0.399329,0.38011 -0.131424,0.48197 0.356318,0.13547 0.757701,0.54416 0.958999,0.97644 0.491374,1.05522 0.02291,2.49496 -0.977947,3.00556 -0.723494,0.3691 -1.221896,0.4269 -3.681046,0.4269 h -2.337279 z m 4.87578,2.18103 c 0.157064,-0.1827 0.20422,-0.3355 0.20422,-0.66173 0,-0.8699 -0.24526,-1.00572 -1.816128,-1.00572 h -1.147205 v 0.98144 0.98143 l 1.277446,-0.0289 1.277446,-0.0289 z m -0.33873,-3.302 c 0.259749,-0.30205 0.280671,-0.87691 0.04263,-1.17123 -0.153234,-0.18947 -0.221609,-0.20133 -1.312333,-0.22761 l -1.150675,-0.0277 v 0.86173 0.86173 l 1.10805,-0.0297 c 1.09324,-0.0293 1.110779,-0.0328 1.312333,-0.26722 z m 10.872284,2.26955 v -3.00566 h 0.973666 0.973667 v 3.00566 3.00567 h -0.973667 -0.973666 z m 3.302,-1.143 v -4.14866 h 0.931333 0.931333 v 4.14866 4.14867 h -0.931333 -0.931333 z m 10.414004,1.143 v -3.00566 h 0.97366 0.97367 v 3.00566 3.00567 h -0.97367 -0.97366 z m 3.21733,-0.003 v -3.00853 l 0.91017,0.024 0.91016,0.024 0.0423,0.381 0.0423,0.381 0.254,-0.26374 c 0.47308,-0.49124 0.92841,-0.66544 1.74231,-0.66657 0.66101,-9.3e-4 0.76343,0.0219 1.13925,0.25429 0.30065,0.18587 0.47729,0.37846 0.64953,0.70817 l 0.23658,0.45286 v 2.36099 2.361 h -0.93134 -0.93133 l -0.002,-1.79916 c -0.003,-2.56544 -0.0902,-2.81235 -0.99398,-2.81235 -0.5328,0 -0.85299,0.16717 -1.04865,0.54751 -0.0763,0.14832 -0.11811,0.78817 -0.13971,2.13784 l -0.0308,1.92616 h -0.92441 -0.9244 v -3.00853 z m -16.87689,-3.90591 c -0.03104,-0.031 -0.05644,-0.3549 -0.05644,-0.71967 v -0.66322 h 0.973666 0.973667 v 0.71966 0.71967 h -0.917222 c -0.504473,0 -0.942623,-0.0254 -0.973667,-0.0564 z m 13.65956,-0.66045 v -0.72244 h 0.97709 0.97709 l -0.0246,0.6985 -0.0246,0.6985 -0.9525,0.0239 -0.9525,0.0239 z m -28.130504,-6.221 -0.994834,-1.00292 V 125.55002 110.5326 l 0.996105,-0.99351 0.996105,-0.99351 h 4.231159 4.23116 l 5.334902,5.31284 5.334903,5.31283 0.02197,-4.23296 0.02197,-4.23296 1.077477,-1.07987 1.077477,-1.07988 h 4.23587 4.23588 l 1.01336,1.016 c 0.55734,0.5588 1.07169,1.016 1.143,1.016 0.0713,0 0.58565,-0.4572 1.143,-1.016 l 1.01335,-1.016 4.27699,-0.002 4.27699,-0.002 1.0363,1.08165 1.03631,1.08165 8.6e-4,2.11731 8.6e-4,2.1173 2.09613,2.09486 c 1.15286,1.15218 2.14956,2.09487 2.21488,2.09487 0.0653,0 1.06516,-0.94804 2.22188,-2.10675 l 2.10311,-2.10675 v -2.14902 -2.14902 l 1.03839,-1.0359 1.03839,-1.0359 h 4.27572 4.27571 l 1.0359,1.03839 1.03589,1.03839 v 2.09428 c 0,1.62349 0.0239,2.09428 0.10626,2.09428 0.0584,0 1.51558,-1.4097 3.23808,-3.13267 l 3.1318,-3.13267 h 10.6346 10.63459 l 3.18766,3.18981 3.18768,3.1898 v 3.16681 3.16681 l -1.0795,1.04808 -1.0795,1.04808 -5.2705,0.004 -5.2705,0.004 v -1.05834 -1.05833 h -4.318 -4.318 v 4.318 4.318 h 4.318 4.318 v -1.10067 -1.10066 h 5.27172 5.27173 l 1.07827,1.08067 1.07828,1.08068 v 3.17424 3.17424 l -3.19658,3.19575 -3.19658,3.19574 -10.62526,-9.9e-4 -10.62525,-0.001 -3.19616,-3.19886 -3.19617,-3.19886 v -6.36748 c 0,-3.50211 -0.0324,-6.36747 -0.0721,-6.36747 -0.0396,0 -2.459,2.3809 -5.37634,5.2909 l -5.30425,5.29091 v 3.19815 3.19815 l -1.08067,1.07828 -1.08068,1.07827 -4.18982,-0.002 -4.18983,-0.002 -1.0795,-1.05316 -1.0795,-1.05315 v -3.21564 -3.21565 l -5.25609,-5.23271 c -2.89085,-2.87799 -5.3102,-5.26318 -5.37633,-5.30042 -0.10353,-0.0583 -0.12024,1.11281 -0.12024,8.42556 v 8.49326 l -1.08068,1.07828 -1.08068,1.07827 h -4.22467 -4.22466 l -5.220218,-5.21616 c -2.871119,-2.86889 -5.284315,-5.25203 -5.362655,-5.29587 -0.132634,-0.0742 -0.142438,0.2106 -0.142438,4.13788 v 4.2176 l -1.080677,1.07828 -1.080678,1.07827 -4.232156,-0.004 -4.232156,-0.004 z m 98.047294,-32.07228 -0.0245,-0.74083 -0.27517,-0.0265 c -0.15134,-0.0146 -0.27516,-0.0622 -0.27516,-0.10583 0,-0.0436 0.34515,-0.0793 0.76699,-0.0793 0.48977,0 0.74809,0.0306 0.71467,0.0847 -0.0288,0.0466 -0.16438,0.0847 -0.30133,0.0847 h -0.249 v 0.762 c 0,0.70051 -0.0134,0.762 -0.16604,0.762 -0.15042,0 -0.16834,-0.0697 -0.1905,-0.74084 z m 1.28787,-0.10583 v -0.84667 h 0.21467 c 0.17212,0 0.245,0.0713 0.36765,0.35984 0.0841,0.19791 0.17877,0.46461 0.21028,0.59266 0.0596,0.2422 0.20183,0.31024 0.26548,0.127 0.33951,-0.97729 0.39622,-1.0795 0.599,-1.0795 0.20396,0 0.20559,0.007 0.20559,0.84667 0,0.68572 -0.0235,0.84667 -0.12358,0.84667 -0.0964,0 -0.12899,-0.15389 -0.14817,-0.6985 l -0.0246,-0.6985 -0.254,0.70018 c -0.16221,0.44714 -0.2948,0.69193 -0.36688,0.67733 -0.0621,-0.0126 -0.20553,-0.28821 -0.31876,-0.61255 -0.30022,-0.85986 -0.3727,-0.87196 -0.3727,-0.0622 0,0.56068 -0.0244,0.69427 -0.127,0.69427 -0.10442,0 -0.127,-0.15052 -0.127,-0.84667 z"
         style="fill:#002777;stroke-width:0.08466667"
         inkscape:connector-curvature="0" />
    </g>
  </g>
</svg>
