<?xml version="1.0" encoding="UTF-8" standalone="no"?>
<svg
   xmlns:dc="http://purl.org/dc/elements/1.1/"
   xmlns:cc="http://creativecommons.org/ns#"
   xmlns:rdf="http://www.w3.org/1999/02/22-rdf-syntax-ns#"
   xmlns:svg="http://www.w3.org/2000/svg"
   xmlns="http://www.w3.org/2000/svg"
   id="svg8"
   version="1.1"
   viewBox="0 0 155.01871 45.549748"
   height="45.549747mm"
   width="155.01871mm">
  <defs
     id="defs2" />
  <metadata
     id="metadata5">
    <rdf:RDF>
      <cc:Work
         rdf:about="">
        <dc:format>image/svg+xml</dc:format>
        <dc:type
           rdf:resource="http://purl.org/dc/dcmitype/StillImage" />
        <dc:title></dc:title>
      </cc:Work>
    </rdf:RDF>
  </metadata>
  <g
     transform="translate(18.116546,-181.33266)"
     id="layer1">
    <path
       id="path27"
       d="m 0.47003693,226.84041 c -5.56758633,-0.47175 -10.53734593,-2.82996 -14.37373193,-6.82055 -1.142183,-1.18809 -1.800998,-2.01086 -2.655168,-3.31596 -0.606015,-0.92592 -1.512144,-2.53429 -1.427785,-2.53429 0.02075,0 0.155889,0.18673 0.3003,0.41498 1.507034,2.38173 4.264813,4.83174 7.002087,6.22069 1.6651725,0.84493 3.9522976,1.55011 5.8118177,1.79194 1.8978075,0.24679 4.44693627,0.13762 6.2959587,-0.26965 6.7553454,-1.48792 12.1842966,-6.80271 13.8707516,-13.57904 0.402172,-1.61598 0.53904,-2.78011 0.540504,-4.59729 0.0014,-1.83996 -0.170466,-3.17927 -0.622446,-4.84824 -1.81047,-6.68537 -7.275893,-11.91019 -13.8883651,-13.27694 -1.51320698,-0.31279 -2.26509279,-0.38714 -3.8747941,-0.38323 -1.5982955,0.004 -2.5669346,0.11201 -4.0825043,0.45597 -4.3220535,0.98072 -8.4470785,3.81616 -10.9119345,7.50062 -0.612385,0.91537 -0.695226,1.00403 -0.42445,0.45424 3.064855,-6.22295 8.9203258,-10.7949 15.5700739,-12.15712 2.56991649,-0.52644 5.5629894,-0.59693 8.107215,-0.19088 6.0516491,0.96581 11.4438171,4.41565 14.9687681,9.57686 3.640973,5.33112 4.836084,12.04855 3.275792,18.41247 -1.892285,7.71803 -7.747928,13.92893 -15.3055433,16.23412 -1.1052427,0.33712 -2.9016756,0.71112 -3.9880586,0.83031 -1.1017649,0.12091 -3.2317403,0.16204 -4.18848717,0.0809 z M 34.344868,226.52653 c -1.69326,-0.21757 -3.381147,-0.67347 -5.19284,-1.40254 -0.865339,-0.34824 -2.558244,-1.13799 -2.684789,-1.25247 -0.01282,-0.0112 -0.126436,-0.94302 -0.252475,-2.06982 -0.12604,-1.12679 -0.353321,-3.15167 -0.505069,-4.49973 -0.151747,-1.34802 -0.275904,-2.49246 -0.275904,-2.54319 0,-0.0825 1.548641,-0.4743 1.613822,-0.40835 0.01414,0.0142 0.09942,0.41251 0.189524,0.88491 0.355078,1.86154 1.14511,3.80317 2.08469,5.12347 0.5773,0.81123 1.643995,1.84184 2.399193,2.31805 2.2081,1.3924 5.345968,1.66851 7.843998,0.69023 2.176793,-0.85249 3.74281,-2.79464 4.109297,-5.09631 0.136027,-0.85431 0.06159,-2.53731 -0.147353,-3.33131 -0.483008,-1.83554 -1.762646,-3.44948 -3.826638,-4.82635 -0.992036,-0.66178 -1.612981,-1.01529 -3.933748,-2.23953 -3.314882,-1.74864 -4.944799,-2.82998 -6.267358,-4.15794 -1.797011,-1.80434 -2.781635,-3.80434 -3.216646,-6.53372 -0.164737,-1.03361 -0.123321,-3.68792 0.07479,-4.79311 0.453809,-2.53171 1.484774,-4.58457 3.142411,-6.25716 2.106133,-2.12514 4.873551,-3.32379 8.419469,-3.64673 1.529133,-0.1393 2.955128,-0.0397 7.632169,0.53241 1.313126,0.16065 2.408599,0.32407 2.434385,0.36314 0.02579,0.0392 0.06836,0.89736 0.09461,1.90727 0.04675,1.79853 0.177525,3.58935 0.411056,5.62899 0.06428,0.56148 0.102153,1.0358 0.08414,1.05402 -0.01801,0.0183 -0.385537,0.0972 -0.816722,0.17559 l -0.783974,0.14246 -0.134424,-0.7609 c -0.512141,-2.89899 -2.106323,-5.27542 -4.23406,-6.31165 -0.932533,-0.45416 -1.635888,-0.60294 -2.847635,-0.6024 -3.93515,9.7e-4 -6.440953,2.02496 -7.138003,5.76318 -0.0597,0.32014 -0.09953,1.07569 -0.09571,1.81551 0.0052,1.02611 0.03773,1.38228 0.170531,1.87248 0.508002,1.87516 1.786928,3.36214 4.188764,4.8701 0.396966,0.24924 1.937033,1.08167 3.422372,1.84989 4.053632,2.09646 5.317258,2.92097 6.854022,4.47226 2.107472,2.12735 3.139305,4.60845 3.29475,7.92238 0.237972,5.07331 -2.130704,9.3064 -6.463341,11.55071 -1.639621,0.84935 -3.246598,1.36719 -5.211866,1.67956 -0.903522,0.14359 -3.661198,0.21609 -4.435436,0.11658 z m 14.102853,-1.69363 v -0.89823 l 1.193749,-0.0489 c 2.028232,-0.083 2.980396,-0.45318 3.574218,-1.38942 0.510738,-0.80526 0.480576,0.3927 0.458022,-18.19217 L 53.65328,187.44074 53.427879,186.947 c -0.234956,-0.51464 -0.758242,-1.08475 -1.215006,-1.32374 -0.510318,-0.26698 -1.433655,-0.44146 -2.60855,-0.49291 l -1.156573,-0.0507 v -0.87144 -0.87145 l 2.054816,0.051 c 1.130145,0.028 3.166658,0.0885 4.525587,0.13443 1.725897,0.0583 3.248034,0.0585 5.048971,5.5e-4 1.418012,-0.0457 3.608553,-0.10615 4.867859,-0.13457 l 2.289652,-0.0517 v 0.87161 0.87161 l -1.38945,0.0504 c -0.764192,0.0276 -1.624157,0.10198 -1.911026,0.16508 -1.448286,0.31852 -2.269332,1.14642 -2.487783,2.50859 -0.05185,0.32336 -0.08167,2.97585 -0.08206,7.29906 l -5.86e-4,6.79112 h 10.919867 10.919881 l -0.0017,-6.87028 c -0.0025,-7.33227 -0.0095,-7.50138 -0.387446,-8.25113 -0.221821,-0.43989 -0.71013,-0.9066 -1.204783,-1.15144 -0.618111,-0.30596 -1.367341,-0.43501 -2.848734,-0.4907 l -1.350334,-0.0507 v -0.87159 -0.87158 l 2.250507,0.0518 c 1.237785,0.0285 3.410721,0.089 4.828724,0.13456 1.798854,0.0577 3.32507,0.0573 5.048974,-7.9e-4 1.358919,-0.046 3.395435,-0.10643 4.525578,-0.13442 l 2.054834,-0.051 v 0.87143 0.87145 l -1.156588,0.0507 c -1.172305,0.0513 -2.098166,0.22587 -2.605193,0.49115 -0.686604,0.35924 -1.223,1.10196 -1.399662,1.93801 -0.06925,0.3281 -0.0861,4.57928 -0.0681,17.22527 l 0.02389,16.7897 0.243647,0.52019 c 0.614112,1.3112 1.631253,1.76652 3.944261,1.76567 1.190222,-7.9e-4 1.340764,-0.017 1.917846,-0.21185 0.825979,-0.27881 1.330804,-0.58244 1.962666,-1.18043 0.541595,-0.51258 0.967498,-1.08836 1.306025,-1.7656 0.22584,-0.45179 10.92471,-31.48956 11.35629,-32.94494 0.3174,-1.07041 0.75677,-2.85236 0.75677,-3.06938 0,-0.0787 0.0617,-0.16436 0.13698,-0.19042 1.16099,-0.40136 3.77494,-1.62746 4.93438,-2.31452 0.66409,-0.39355 0.95338,-0.46021 1.17113,-0.26987 0.10008,0.0875 0.36324,0.71982 0.68529,1.64676 0.28755,0.82761 2.88392,8.29388 5.76973,16.59171 2.88579,8.29782 5.46722,15.74627 5.73652,16.55208 0.75658,2.26407 1.43098,4.08631 1.8083,4.88615 0.70766,1.50005 1.74643,2.17466 3.53482,2.29567 l 0.72406,0.049 v 0.88721 0.8872 l -0.37181,-0.028 c -2.44045,-0.18378 -10.01286,-0.24511 -13.60093,-0.11018 -1.07632,0.0405 -2.25636,0.0837 -2.62233,0.096 l -0.66537,0.0223 -0.022,-0.87686 -0.022,-0.87689 1.03965,-0.0487 c 1.67787,-0.0787 2.74736,-0.4426 3.17126,-1.07899 0.23867,-0.35833 0.23406,-0.95872 -0.0148,-1.91746 -0.10581,-0.40769 -0.89273,-2.86174 -1.74874,-5.45345 l -1.55637,-4.71222 h -6.83356 -6.83357 l -1.03392,3.40548 c -0.56864,1.87298 -1.25307,4.07731 -1.52093,4.89846 -0.85285,2.61437 -0.87559,3.2049 -0.15044,3.90788 0.59102,0.57295 1.71063,0.87844 3.49007,0.95233 l 1.11548,0.0463 3e-5,0.87887 4e-5,0.87886 -2.09398,-0.10282 c -2.40328,-0.11799 -9.673379,-0.0761 -10.303752,0.0593 -0.272244,0.0586 -1.272486,0.0485 -3.483404,-0.0354 -4.609658,-0.17448 -8.173081,-0.15581 -14.354076,0.0753 l -1.076335,0.0403 v -0.90927 -0.90928 h 0.960964 c 2.52179,0 3.785608,-0.45378 4.389352,-1.57608 0.44119,-0.82013 0.439466,-0.78381 0.440939,-9.25406 l 0.0017,-7.78105 H 72.281048 61.358693 l 0.02314,8.01865 c 0.02571,8.91363 -0.0059,8.39147 0.554809,9.21442 0.665317,0.97677 1.917759,1.37812 4.300394,1.37812 h 1.002672 l -0.02216,0.89098 -0.02216,0.89095 -1.330733,-0.0254 c -0.731906,-0.0139 -2.264214,-0.0581 -3.405121,-0.0982 -3.709104,-0.13025 -7.616797,-0.094 -12.974693,0.1205 l -1.037192,0.0415 z M 119.1588,207.2993 c 0.043,-0.0736 -5.40746,-17.05892 -5.5061,-17.15897 -0.0431,-0.0437 -0.0997,0.004 -0.14278,0.11883 -0.20134,0.5383 -5.49242,16.91608 -5.49228,17.00059 0,0.0783 1.16305,0.099 5.55332,0.099 3.05423,0 5.56875,-0.0266 5.58784,-0.0596 z m 9.08896,-17.63938 c -2.11715,-0.46617 -3.53759,-2.52742 -3.24579,-4.71008 0.24563,-1.83746 1.751,-3.33365 3.60311,-3.58117 2.13492,-0.28531 4.13098,1.15348 4.57845,3.30019 0.0637,0.3049 0.11555,0.69693 0.11555,0.87115 0,1.05563 -0.47765,2.19421 -1.24705,2.9726 -1.01845,1.03042 -2.41811,1.45252 -3.80427,1.14731 z m 1.49755,-0.6818 c 1.04449,-0.19376 2.01978,-0.95548 2.47021,-1.92932 0.48847,-1.0561 0.47313,-2.03426 -0.0487,-3.1063 -0.63561,-1.30572 -2.1461,-2.09032 -3.561,-1.8497 -1.49476,0.2542 -2.66538,1.44108 -2.89356,2.93379 -0.22459,1.46909 0.58635,3.02457 1.90141,3.64719 0.78477,0.37155 1.34115,0.45098 2.13168,0.30434 z m -2.23614,-3.52893 v -2.50632 l 1.13541,0.043 c 0.98282,0.0374 1.18527,0.0682 1.50674,0.22942 0.53916,0.27065 0.74599,0.62102 0.70618,1.19627 -0.0348,0.50406 -0.261,0.8312 -0.70251,1.01623 l -0.23211,0.0972 0.2354,0.10019 c 0.34628,0.14729 0.47919,0.4137 0.60693,1.21655 0.0629,0.39571 0.1478,0.80819 0.18855,0.91662 l 0.074,0.19714 h -0.49729 -0.4973 l -0.0954,-0.65338 c -0.20439,-1.39994 -0.27048,-1.48494 -1.15447,-1.48494 h -0.56964 v 1.06916 1.06916 h -0.35225 -0.35227 z m 2.10794,-0.53982 c 0.24472,-0.12801 0.31871,-0.26457 0.31871,-0.58824 0,-0.43685 -0.14801,-0.52072 -0.97209,-0.55088 l -0.75004,-0.0274 v 0.64122 0.64121 h 0.59097 c 0.36558,0 0.67545,-0.0443 0.81245,-0.1159 z"
       style="fill:#010101;stroke-width:0.07873634" />
  </g>
</svg>
